<svg xmlns="http://www.w3.org/2000/svg" viewBox="0 0 1600 1200" width="1600" height="1200" role="img">
  <defs>
    <linearGradient id="sgrandresidences" x1="0" y1="0" x2="0" y2="1">
      <stop offset="0%" stop-color="#2050A0"/>
      <stop offset="58%" stop-color="#0B1830"/>
      <stop offset="100%" stop-color="#000000"/>
    </linearGradient>
    <radialGradient id="grgrandresidences">
      <stop offset="0%" stop-color="#EC1C2D" stop-opacity="0.8"/>
      <stop offset="100%" stop-color="#EC1C2D" stop-opacity="0"/>
    </radialGradient>
    <radialGradient id="gbgrandresidences">
      <stop offset="0%" stop-color="#9AA2DB" stop-opacity="0.7"/>
      <stop offset="100%" stop-color="#9AA2DB" stop-opacity="0"/>
    </radialGradient>
  </defs>
  <rect width="1600" height="1200" fill="url(#sgrandresidences)"/>
  <circle cx="26%" cy="46%" r="30%" fill="url(#gbgrandresidences)" opacity="0.45"/>
  <rect x="0" y="757.5" width="1600" height="2" fill="#EC1C2D" opacity="0.4"/>
  <rect x="-80.0" y="303.6" width="155.9" height="896.4" fill="#000" opacity="0.35"/><rect x="-70.0" y="325.6" width="27.0" height="12" fill="#FFFFFF" opacity="0.24"/><rect x="-70.0" y="370.7" width="27.0" height="12" fill="#FFFFFF" opacity="0.09"/><rect x="-70.0" y="415.8" width="27.0" height="12" fill="#FFFFFF" opacity="0.22"/><rect x="-70.0" y="505.9" width="27.0" height="12" fill="#FFFFFF" opacity="0.07"/><rect x="-70.0" y="551.0" width="27.0" height="12" fill="#FFFFFF" opacity="0.28"/><rect x="-70.0" y="596.0" width="27.0" height="12" fill="#FFFFFF" opacity="0.21"/><rect x="-70.0" y="641.1" width="27.0" height="12" fill="#FFFFFF" opacity="0.32"/><rect x="-70.0" y="686.2" width="27.0" height="12" fill="#FFFFFF" opacity="0.10"/><rect x="-70.0" y="911.6" width="27.0" height="12" fill="#FFFFFF" opacity="0.19"/><rect x="-70.0" y="1046.8" width="27.0" height="12" fill="#FFFFFF" opacity="0.20"/><rect x="-70.0" y="1091.9" width="27.0" height="12" fill="#FFFFFF" opacity="0.26"/><rect x="-70.0" y="1136.9" width="27.0" height="12" fill="#FFFFFF" opacity="0.23"/><rect x="-36.0" y="415.8" width="27.0" height="12" fill="#FFFFFF" opacity="0.29"/><rect x="-36.0" y="460.8" width="27.0" height="12" fill="#FFFFFF" opacity="0.34"/><rect x="-36.0" y="505.9" width="27.0" height="12" fill="#FFFFFF" opacity="0.27"/><rect x="-36.0" y="551.0" width="27.0" height="12" fill="#EC1C2D" opacity="0.16"/><rect x="-36.0" y="641.1" width="27.0" height="12" fill="#FFFFFF" opacity="0.10"/><rect x="-36.0" y="686.2" width="27.0" height="12" fill="#FFFFFF" opacity="0.09"/><rect x="-36.0" y="866.5" width="27.0" height="12" fill="#FFFFFF" opacity="0.29"/><rect x="-36.0" y="911.6" width="27.0" height="12" fill="#FFFFFF" opacity="0.18"/><rect x="-36.0" y="1001.7" width="27.0" height="12" fill="#FFFFFF" opacity="0.33"/><rect x="-36.0" y="1046.8" width="27.0" height="12" fill="#FFFFFF" opacity="0.16"/><rect x="-36.0" y="1091.9" width="27.0" height="12" fill="#FFFFFF" opacity="0.17"/><rect x="-36.0" y="1136.9" width="27.0" height="12" fill="#EC1C2D" opacity="0.14"/><rect x="-2.0" y="325.6" width="27.0" height="12" fill="#FFFFFF" opacity="0.16"/><rect x="-2.0" y="370.7" width="27.0" height="12" fill="#FFFFFF" opacity="0.26"/><rect x="-2.0" y="415.8" width="27.0" height="12" fill="#FFFFFF" opacity="0.34"/><rect x="-2.0" y="460.8" width="27.0" height="12" fill="#FFFFFF" opacity="0.24"/><rect x="-2.0" y="505.9" width="27.0" height="12" fill="#FFFFFF" opacity="0.12"/><rect x="-2.0" y="551.0" width="27.0" height="12" fill="#FFFFFF" opacity="0.16"/><rect x="-2.0" y="731.3" width="27.0" height="12" fill="#FFFFFF" opacity="0.33"/><rect x="-2.0" y="776.3" width="27.0" height="12" fill="#FFFFFF" opacity="0.18"/><rect x="-2.0" y="821.4" width="27.0" height="12" fill="#FFFFFF" opacity="0.24"/><rect x="-2.0" y="866.5" width="27.0" height="12" fill="#FFFFFF" opacity="0.23"/><rect x="-2.0" y="911.6" width="27.0" height="12" fill="#FFFFFF" opacity="0.30"/><rect x="-2.0" y="956.6" width="27.0" height="12" fill="#FFFFFF" opacity="0.12"/><rect x="-2.0" y="1001.7" width="27.0" height="12" fill="#EC1C2D" opacity="0.15"/><rect x="-2.0" y="1046.8" width="27.0" height="12" fill="#FFFFFF" opacity="0.26"/><rect x="-2.0" y="1091.9" width="27.0" height="12" fill="#FFFFFF" opacity="0.26"/><rect x="31.9" y="370.7" width="27.0" height="12" fill="#FFFFFF" opacity="0.11"/><rect x="31.9" y="415.8" width="27.0" height="12" fill="#FFFFFF" opacity="0.13"/><rect x="31.9" y="460.8" width="27.0" height="12" fill="#EC1C2D" opacity="0.15"/><rect x="31.9" y="551.0" width="27.0" height="12" fill="#FFFFFF" opacity="0.22"/><rect x="31.9" y="596.0" width="27.0" height="12" fill="#FFFFFF" opacity="0.27"/><rect x="31.9" y="641.1" width="27.0" height="12" fill="#FFFFFF" opacity="0.23"/><rect x="31.9" y="686.2" width="27.0" height="12" fill="#FFFFFF" opacity="0.28"/><rect x="31.9" y="731.3" width="27.0" height="12" fill="#FFFFFF" opacity="0.28"/><rect x="31.9" y="776.3" width="27.0" height="12" fill="#EC1C2D" opacity="0.28"/><rect x="31.9" y="821.4" width="27.0" height="12" fill="#FFFFFF" opacity="0.20"/><rect x="31.9" y="956.6" width="27.0" height="12" fill="#FFFFFF" opacity="0.16"/><rect x="31.9" y="1046.8" width="27.0" height="12" fill="#FFFFFF" opacity="0.28"/><rect x="31.9" y="1136.9" width="27.0" height="12" fill="#FFFFFF" opacity="0.15"/><rect x="120.0" y="561.0" width="206.4" height="639.0" fill="#000" opacity="0.42"/><rect x="130.0" y="629.1" width="22.4" height="12" fill="#FFFFFF" opacity="0.19"/><rect x="130.0" y="675.1" width="22.4" height="12" fill="#FFFFFF" opacity="0.23"/><rect x="130.0" y="721.2" width="22.4" height="12" fill="#FFFFFF" opacity="0.31"/><rect x="130.0" y="767.3" width="22.4" height="12" fill="#FFFFFF" opacity="0.22"/><rect x="130.0" y="813.4" width="22.4" height="12" fill="#FFFFFF" opacity="0.34"/><rect x="130.0" y="859.5" width="22.4" height="12" fill="#FFFFFF" opacity="0.08"/><rect x="130.0" y="951.6" width="22.4" height="12" fill="#FFFFFF" opacity="0.20"/><rect x="130.0" y="1089.8" width="22.4" height="12" fill="#FFFFFF" opacity="0.22"/><rect x="130.0" y="1135.9" width="22.4" height="12" fill="#FFFFFF" opacity="0.21"/><rect x="161.1" y="675.1" width="22.4" height="12" fill="#EC1C2D" opacity="0.33"/><rect x="161.1" y="721.2" width="22.4" height="12" fill="#FFFFFF" opacity="0.14"/><rect x="161.1" y="813.4" width="22.4" height="12" fill="#FFFFFF" opacity="0.27"/><rect x="161.1" y="905.5" width="22.4" height="12" fill="#FFFFFF" opacity="0.15"/><rect x="161.1" y="997.7" width="22.4" height="12" fill="#EC1C2D" opacity="0.20"/><rect x="161.1" y="1089.8" width="22.4" height="12" fill="#EC1C2D" opacity="0.12"/><rect x="192.2" y="583.0" width="22.4" height="12" fill="#FFFFFF" opacity="0.13"/><rect x="192.2" y="721.2" width="22.4" height="12" fill="#FFFFFF" opacity="0.23"/><rect x="192.2" y="767.3" width="22.4" height="12" fill="#FFFFFF" opacity="0.06"/><rect x="192.2" y="905.5" width="22.4" height="12" fill="#FFFFFF" opacity="0.16"/><rect x="192.2" y="951.6" width="22.4" height="12" fill="#EC1C2D" opacity="0.09"/><rect x="192.2" y="1089.8" width="22.4" height="12" fill="#FFFFFF" opacity="0.26"/><rect x="223.3" y="629.1" width="22.4" height="12" fill="#FFFFFF" opacity="0.26"/><rect x="223.3" y="767.3" width="22.4" height="12" fill="#EC1C2D" opacity="0.21"/><rect x="223.3" y="813.4" width="22.4" height="12" fill="#FFFFFF" opacity="0.13"/><rect x="223.3" y="997.7" width="22.4" height="12" fill="#FFFFFF" opacity="0.13"/><rect x="223.3" y="1043.8" width="22.4" height="12" fill="#FFFFFF" opacity="0.27"/><rect x="254.3" y="583.0" width="22.4" height="12" fill="#FFFFFF" opacity="0.09"/><rect x="254.3" y="629.1" width="22.4" height="12" fill="#FFFFFF" opacity="0.25"/><rect x="254.3" y="675.1" width="22.4" height="12" fill="#FFFFFF" opacity="0.29"/><rect x="254.3" y="721.2" width="22.4" height="12" fill="#FFFFFF" opacity="0.18"/><rect x="254.3" y="813.4" width="22.4" height="12" fill="#FFFFFF" opacity="0.09"/><rect x="254.3" y="859.5" width="22.4" height="12" fill="#FFFFFF" opacity="0.33"/><rect x="254.3" y="951.6" width="22.4" height="12" fill="#FFFFFF" opacity="0.07"/><rect x="254.3" y="1043.8" width="22.4" height="12" fill="#EC1C2D" opacity="0.32"/><rect x="254.3" y="1089.8" width="22.4" height="12" fill="#FFFFFF" opacity="0.21"/><rect x="254.3" y="1135.9" width="22.4" height="12" fill="#FFFFFF" opacity="0.16"/><rect x="285.4" y="767.3" width="22.4" height="12" fill="#FFFFFF" opacity="0.19"/><rect x="285.4" y="813.4" width="22.4" height="12" fill="#FFFFFF" opacity="0.25"/><rect x="285.4" y="859.5" width="22.4" height="12" fill="#FFFFFF" opacity="0.08"/><rect x="285.4" y="905.5" width="22.4" height="12" fill="#FFFFFF" opacity="0.21"/><rect x="285.4" y="951.6" width="22.4" height="12" fill="#FFFFFF" opacity="0.20"/><rect x="285.4" y="997.7" width="22.4" height="12" fill="#FFFFFF" opacity="0.14"/><rect x="285.4" y="1089.8" width="22.4" height="12" fill="#FFFFFF" opacity="0.31"/><rect x="342.0" y="138.1" width="243.3" height="1061.9" fill="#000" opacity="0.26"/><rect x="352.0" y="160.1" width="22.8" height="12" fill="#FFFFFF" opacity="0.07"/><rect x="352.0" y="204.6" width="22.8" height="12" fill="#FFFFFF" opacity="0.17"/><rect x="352.0" y="293.4" width="22.8" height="12" fill="#FFFFFF" opacity="0.27"/><rect x="352.0" y="382.3" width="22.8" height="12" fill="#FFFFFF" opacity="0.18"/><rect x="352.0" y="426.7" width="22.8" height="12" fill="#FFFFFF" opacity="0.14"/><rect x="352.0" y="560.0" width="22.8" height="12" fill="#FFFFFF" opacity="0.18"/><rect x="352.0" y="604.4" width="22.8" height="12" fill="#EC1C2D" opacity="0.15"/><rect x="352.0" y="693.3" width="22.8" height="12" fill="#FFFFFF" opacity="0.12"/><rect x="352.0" y="737.7" width="22.8" height="12" fill="#FFFFFF" opacity="0.25"/><rect x="352.0" y="826.6" width="22.8" height="12" fill="#EC1C2D" opacity="0.25"/><rect x="352.0" y="871.0" width="22.8" height="12" fill="#FFFFFF" opacity="0.29"/><rect x="352.0" y="959.9" width="22.8" height="12" fill="#EC1C2D" opacity="0.13"/><rect x="352.0" y="1048.7" width="22.8" height="12" fill="#FFFFFF" opacity="0.26"/><rect x="352.0" y="1093.1" width="22.8" height="12" fill="#FFFFFF" opacity="0.07"/><rect x="352.0" y="1137.6" width="22.8" height="12" fill="#FFFFFF" opacity="0.18"/><rect x="384.0" y="160.1" width="22.8" height="12" fill="#FFFFFF" opacity="0.26"/><rect x="384.0" y="204.6" width="22.8" height="12" fill="#FFFFFF" opacity="0.19"/><rect x="384.0" y="293.4" width="22.8" height="12" fill="#FFFFFF" opacity="0.31"/><rect x="384.0" y="337.9" width="22.8" height="12" fill="#FFFFFF" opacity="0.23"/><rect x="384.0" y="382.3" width="22.8" height="12" fill="#FFFFFF" opacity="0.15"/><rect x="384.0" y="426.7" width="22.8" height="12" fill="#FFFFFF" opacity="0.25"/><rect x="384.0" y="471.1" width="22.8" height="12" fill="#FFFFFF" opacity="0.23"/><rect x="384.0" y="515.6" width="22.8" height="12" fill="#FFFFFF" opacity="0.17"/><rect x="384.0" y="560.0" width="22.8" height="12" fill="#FFFFFF" opacity="0.22"/><rect x="384.0" y="604.4" width="22.8" height="12" fill="#FFFFFF" opacity="0.25"/><rect x="384.0" y="693.3" width="22.8" height="12" fill="#FFFFFF" opacity="0.34"/><rect x="384.0" y="826.6" width="22.8" height="12" fill="#FFFFFF" opacity="0.24"/><rect x="384.0" y="1048.7" width="22.8" height="12" fill="#FFFFFF" opacity="0.07"/><rect x="384.0" y="1093.1" width="22.8" height="12" fill="#FFFFFF" opacity="0.23"/><rect x="384.0" y="1137.6" width="22.8" height="12" fill="#FFFFFF" opacity="0.25"/><rect x="415.9" y="204.6" width="22.8" height="12" fill="#FFFFFF" opacity="0.34"/><rect x="415.9" y="337.9" width="22.8" height="12" fill="#FFFFFF" opacity="0.30"/><rect x="415.9" y="382.3" width="22.8" height="12" fill="#FFFFFF" opacity="0.06"/><rect x="415.9" y="426.7" width="22.8" height="12" fill="#FFFFFF" opacity="0.26"/><rect x="415.9" y="471.1" width="22.8" height="12" fill="#EC1C2D" opacity="0.32"/><rect x="415.9" y="515.6" width="22.8" height="12" fill="#FFFFFF" opacity="0.08"/><rect x="415.9" y="560.0" width="22.8" height="12" fill="#FFFFFF" opacity="0.14"/><rect x="415.9" y="604.4" width="22.8" height="12" fill="#FFFFFF" opacity="0.23"/><rect x="415.9" y="693.3" width="22.8" height="12" fill="#FFFFFF" opacity="0.27"/><rect x="415.9" y="737.7" width="22.8" height="12" fill="#FFFFFF" opacity="0.33"/><rect x="415.9" y="826.6" width="22.8" height="12" fill="#FFFFFF" opacity="0.25"/><rect x="415.9" y="871.0" width="22.8" height="12" fill="#FFFFFF" opacity="0.20"/><rect x="415.9" y="959.9" width="22.8" height="12" fill="#FFFFFF" opacity="0.25"/><rect x="415.9" y="1004.3" width="22.8" height="12" fill="#EC1C2D" opacity="0.07"/><rect x="415.9" y="1048.7" width="22.8" height="12" fill="#FFFFFF" opacity="0.20"/><rect x="415.9" y="1093.1" width="22.8" height="12" fill="#FFFFFF" opacity="0.16"/><rect x="415.9" y="1137.6" width="22.8" height="12" fill="#EC1C2D" opacity="0.18"/><rect x="447.8" y="160.1" width="22.8" height="12" fill="#FFFFFF" opacity="0.18"/><rect x="447.8" y="249.0" width="22.8" height="12" fill="#FFFFFF" opacity="0.29"/><rect x="447.8" y="382.3" width="22.8" height="12" fill="#FFFFFF" opacity="0.28"/><rect x="447.8" y="426.7" width="22.8" height="12" fill="#FFFFFF" opacity="0.30"/><rect x="447.8" y="471.1" width="22.8" height="12" fill="#FFFFFF" opacity="0.34"/><rect x="447.8" y="515.6" width="22.8" height="12" fill="#FFFFFF" opacity="0.25"/><rect x="447.8" y="560.0" width="22.8" height="12" fill="#FFFFFF" opacity="0.12"/><rect x="447.8" y="648.9" width="22.8" height="12" fill="#FFFFFF" opacity="0.15"/><rect x="447.8" y="693.3" width="22.8" height="12" fill="#FFFFFF" opacity="0.21"/><rect x="447.8" y="737.7" width="22.8" height="12" fill="#FFFFFF" opacity="0.31"/><rect x="447.8" y="782.1" width="22.8" height="12" fill="#FFFFFF" opacity="0.07"/><rect x="447.8" y="826.6" width="22.8" height="12" fill="#FFFFFF" opacity="0.19"/><rect x="447.8" y="871.0" width="22.8" height="12" fill="#FFFFFF" opacity="0.27"/><rect x="447.8" y="915.4" width="22.8" height="12" fill="#FFFFFF" opacity="0.25"/><rect x="447.8" y="959.9" width="22.8" height="12" fill="#FFFFFF" opacity="0.24"/><rect x="447.8" y="1004.3" width="22.8" height="12" fill="#FFFFFF" opacity="0.07"/><rect x="447.8" y="1048.7" width="22.8" height="12" fill="#FFFFFF" opacity="0.09"/><rect x="447.8" y="1093.1" width="22.8" height="12" fill="#EC1C2D" opacity="0.23"/><rect x="479.7" y="204.6" width="22.8" height="12" fill="#FFFFFF" opacity="0.19"/><rect x="479.7" y="337.9" width="22.8" height="12" fill="#FFFFFF" opacity="0.32"/><rect x="479.7" y="382.3" width="22.8" height="12" fill="#FFFFFF" opacity="0.33"/><rect x="479.7" y="426.7" width="22.8" height="12" fill="#EC1C2D" opacity="0.24"/><rect x="479.7" y="471.1" width="22.8" height="12" fill="#FFFFFF" opacity="0.26"/><rect x="479.7" y="515.6" width="22.8" height="12" fill="#FFFFFF" opacity="0.30"/><rect x="479.7" y="604.4" width="22.8" height="12" fill="#FFFFFF" opacity="0.22"/><rect x="479.7" y="693.3" width="22.8" height="12" fill="#FFFFFF" opacity="0.29"/><rect x="479.7" y="782.1" width="22.8" height="12" fill="#FFFFFF" opacity="0.22"/><rect x="479.7" y="826.6" width="22.8" height="12" fill="#FFFFFF" opacity="0.06"/><rect x="479.7" y="871.0" width="22.8" height="12" fill="#FFFFFF" opacity="0.29"/><rect x="479.7" y="915.4" width="22.8" height="12" fill="#FFFFFF" opacity="0.15"/><rect x="479.7" y="959.9" width="22.8" height="12" fill="#FFFFFF" opacity="0.07"/><rect x="479.7" y="1004.3" width="22.8" height="12" fill="#FFFFFF" opacity="0.31"/><rect x="479.7" y="1048.7" width="22.8" height="12" fill="#FFFFFF" opacity="0.26"/><rect x="479.7" y="1093.1" width="22.8" height="12" fill="#FFFFFF" opacity="0.07"/><rect x="511.6" y="293.4" width="22.8" height="12" fill="#FFFFFF" opacity="0.11"/><rect x="511.6" y="337.9" width="22.8" height="12" fill="#EC1C2D" opacity="0.21"/><rect x="511.6" y="426.7" width="22.8" height="12" fill="#FFFFFF" opacity="0.21"/><rect x="511.6" y="471.1" width="22.8" height="12" fill="#FFFFFF" opacity="0.20"/><rect x="511.6" y="515.6" width="22.8" height="12" fill="#FFFFFF" opacity="0.34"/><rect x="511.6" y="560.0" width="22.8" height="12" fill="#FFFFFF" opacity="0.20"/><rect x="511.6" y="782.1" width="22.8" height="12" fill="#FFFFFF" opacity="0.26"/><rect x="511.6" y="826.6" width="22.8" height="12" fill="#FFFFFF" opacity="0.32"/><rect x="511.6" y="915.4" width="22.8" height="12" fill="#FFFFFF" opacity="0.15"/><rect x="511.6" y="959.9" width="22.8" height="12" fill="#FFFFFF" opacity="0.33"/><rect x="511.6" y="1093.1" width="22.8" height="12" fill="#FFFFFF" opacity="0.27"/><rect x="511.6" y="1137.6" width="22.8" height="12" fill="#FFFFFF" opacity="0.13"/><rect x="543.5" y="160.1" width="22.8" height="12" fill="#FFFFFF" opacity="0.19"/><rect x="543.5" y="293.4" width="22.8" height="12" fill="#FFFFFF" opacity="0.15"/><rect x="543.5" y="426.7" width="22.8" height="12" fill="#FFFFFF" opacity="0.24"/><rect x="543.5" y="515.6" width="22.8" height="12" fill="#FFFFFF" opacity="0.30"/><rect x="543.5" y="560.0" width="22.8" height="12" fill="#FFFFFF" opacity="0.18"/><rect x="543.5" y="648.9" width="22.8" height="12" fill="#FFFFFF" opacity="0.06"/><rect x="543.5" y="737.7" width="22.8" height="12" fill="#EC1C2D" opacity="0.22"/><rect x="543.5" y="782.1" width="22.8" height="12" fill="#FFFFFF" opacity="0.24"/><rect x="543.5" y="826.6" width="22.8" height="12" fill="#FFFFFF" opacity="0.17"/><rect x="543.5" y="871.0" width="22.8" height="12" fill="#EC1C2D" opacity="0.22"/><rect x="543.5" y="915.4" width="22.8" height="12" fill="#FFFFFF" opacity="0.14"/><rect x="543.5" y="959.9" width="22.8" height="12" fill="#FFFFFF" opacity="0.08"/><rect x="543.5" y="1004.3" width="22.8" height="12" fill="#FFFFFF" opacity="0.30"/><rect x="543.5" y="1093.1" width="22.8" height="12" fill="#FFFFFF" opacity="0.24"/><rect x="603.7" y="200.1" width="224.3" height="999.9" fill="#000" opacity="0.39"/><rect x="613.7" y="222.1" width="25.4" height="12" fill="#FFFFFF" opacity="0.10"/><rect x="613.7" y="267.8" width="25.4" height="12" fill="#FFFFFF" opacity="0.18"/><rect x="613.7" y="313.5" width="25.4" height="12" fill="#FFFFFF" opacity="0.24"/><rect x="613.7" y="404.9" width="25.4" height="12" fill="#FFFFFF" opacity="0.32"/><rect x="613.7" y="450.6" width="25.4" height="12" fill="#FFFFFF" opacity="0.31"/><rect x="613.7" y="496.4" width="25.4" height="12" fill="#FFFFFF" opacity="0.33"/><rect x="613.7" y="542.1" width="25.4" height="12" fill="#FFFFFF" opacity="0.25"/><rect x="613.7" y="633.5" width="25.4" height="12" fill="#FFFFFF" opacity="0.16"/><rect x="613.7" y="816.3" width="25.4" height="12" fill="#FFFFFF" opacity="0.12"/><rect x="613.7" y="862.0" width="25.4" height="12" fill="#FFFFFF" opacity="0.18"/><rect x="613.7" y="907.7" width="25.4" height="12" fill="#FFFFFF" opacity="0.08"/><rect x="613.7" y="953.5" width="25.4" height="12" fill="#FFFFFF" opacity="0.31"/><rect x="613.7" y="999.2" width="25.4" height="12" fill="#EC1C2D" opacity="0.30"/><rect x="613.7" y="1090.6" width="25.4" height="12" fill="#EC1C2D" opacity="0.17"/><rect x="613.7" y="1136.3" width="25.4" height="12" fill="#FFFFFF" opacity="0.11"/><rect x="647.8" y="267.8" width="25.4" height="12" fill="#FFFFFF" opacity="0.11"/><rect x="647.8" y="313.5" width="25.4" height="12" fill="#FFFFFF" opacity="0.11"/><rect x="647.8" y="359.2" width="25.4" height="12" fill="#FFFFFF" opacity="0.30"/><rect x="647.8" y="404.9" width="25.4" height="12" fill="#FFFFFF" opacity="0.26"/><rect x="647.8" y="450.6" width="25.4" height="12" fill="#EC1C2D" opacity="0.06"/><rect x="647.8" y="496.4" width="25.4" height="12" fill="#FFFFFF" opacity="0.06"/><rect x="647.8" y="587.8" width="25.4" height="12" fill="#FFFFFF" opacity="0.10"/><rect x="647.8" y="724.9" width="25.4" height="12" fill="#FFFFFF" opacity="0.24"/><rect x="647.8" y="770.6" width="25.4" height="12" fill="#FFFFFF" opacity="0.31"/><rect x="647.8" y="816.3" width="25.4" height="12" fill="#FFFFFF" opacity="0.14"/><rect x="647.8" y="862.0" width="25.4" height="12" fill="#FFFFFF" opacity="0.33"/><rect x="647.8" y="907.7" width="25.4" height="12" fill="#FFFFFF" opacity="0.18"/><rect x="647.8" y="953.5" width="25.4" height="12" fill="#FFFFFF" opacity="0.23"/><rect x="647.8" y="1090.6" width="25.4" height="12" fill="#FFFFFF" opacity="0.21"/><rect x="681.8" y="267.8" width="25.4" height="12" fill="#FFFFFF" opacity="0.14"/><rect x="681.8" y="313.5" width="25.4" height="12" fill="#FFFFFF" opacity="0.29"/><rect x="681.8" y="359.2" width="25.4" height="12" fill="#FFFFFF" opacity="0.23"/><rect x="681.8" y="450.6" width="25.4" height="12" fill="#FFFFFF" opacity="0.25"/><rect x="681.8" y="496.4" width="25.4" height="12" fill="#FFFFFF" opacity="0.11"/><rect x="681.8" y="542.1" width="25.4" height="12" fill="#FFFFFF" opacity="0.16"/><rect x="681.8" y="679.2" width="25.4" height="12" fill="#FFFFFF" opacity="0.23"/><rect x="681.8" y="770.6" width="25.4" height="12" fill="#FFFFFF" opacity="0.30"/><rect x="681.8" y="816.3" width="25.4" height="12" fill="#FFFFFF" opacity="0.30"/><rect x="681.8" y="907.7" width="25.4" height="12" fill="#FFFFFF" opacity="0.30"/><rect x="681.8" y="999.2" width="25.4" height="12" fill="#FFFFFF" opacity="0.21"/><rect x="681.8" y="1044.9" width="25.4" height="12" fill="#FFFFFF" opacity="0.09"/><rect x="681.8" y="1136.3" width="25.4" height="12" fill="#FFFFFF" opacity="0.24"/><rect x="715.9" y="222.1" width="25.4" height="12" fill="#FFFFFF" opacity="0.13"/><rect x="715.9" y="313.5" width="25.4" height="12" fill="#FFFFFF" opacity="0.30"/><rect x="715.9" y="359.2" width="25.4" height="12" fill="#FFFFFF" opacity="0.23"/><rect x="715.9" y="404.9" width="25.4" height="12" fill="#FFFFFF" opacity="0.22"/><rect x="715.9" y="542.1" width="25.4" height="12" fill="#FFFFFF" opacity="0.27"/><rect x="715.9" y="633.5" width="25.4" height="12" fill="#FFFFFF" opacity="0.17"/><rect x="715.9" y="679.2" width="25.4" height="12" fill="#FFFFFF" opacity="0.08"/><rect x="715.9" y="724.9" width="25.4" height="12" fill="#FFFFFF" opacity="0.07"/><rect x="715.9" y="816.3" width="25.4" height="12" fill="#FFFFFF" opacity="0.17"/><rect x="715.9" y="907.7" width="25.4" height="12" fill="#FFFFFF" opacity="0.06"/><rect x="715.9" y="953.5" width="25.4" height="12" fill="#FFFFFF" opacity="0.26"/><rect x="749.9" y="267.8" width="25.4" height="12" fill="#FFFFFF" opacity="0.17"/><rect x="749.9" y="313.5" width="25.4" height="12" fill="#FFFFFF" opacity="0.33"/><rect x="749.9" y="587.8" width="25.4" height="12" fill="#FFFFFF" opacity="0.08"/><rect x="749.9" y="633.5" width="25.4" height="12" fill="#FFFFFF" opacity="0.32"/><rect x="749.9" y="770.6" width="25.4" height="12" fill="#EC1C2D" opacity="0.20"/><rect x="749.9" y="816.3" width="25.4" height="12" fill="#FFFFFF" opacity="0.27"/><rect x="749.9" y="862.0" width="25.4" height="12" fill="#FFFFFF" opacity="0.11"/><rect x="749.9" y="907.7" width="25.4" height="12" fill="#FFFFFF" opacity="0.11"/><rect x="749.9" y="1136.3" width="25.4" height="12" fill="#FFFFFF" opacity="0.33"/><rect x="784.0" y="222.1" width="25.4" height="12" fill="#FFFFFF" opacity="0.33"/><rect x="784.0" y="359.2" width="25.4" height="12" fill="#FFFFFF" opacity="0.19"/><rect x="784.0" y="404.9" width="25.4" height="12" fill="#FFFFFF" opacity="0.25"/><rect x="784.0" y="450.6" width="25.4" height="12" fill="#EC1C2D" opacity="0.33"/><rect x="784.0" y="679.2" width="25.4" height="12" fill="#FFFFFF" opacity="0.13"/><rect x="784.0" y="724.9" width="25.4" height="12" fill="#FFFFFF" opacity="0.32"/><rect x="784.0" y="862.0" width="25.4" height="12" fill="#FFFFFF" opacity="0.29"/><rect x="784.0" y="999.2" width="25.4" height="12" fill="#EC1C2D" opacity="0.32"/><rect x="784.0" y="1044.9" width="25.4" height="12" fill="#FFFFFF" opacity="0.32"/><rect x="870.2" y="330.6" width="154.8" height="869.4" fill="#000" opacity="0.48"/><rect x="880.2" y="352.6" width="26.7" height="12" fill="#FFFFFF" opacity="0.34"/><rect x="880.2" y="444.8" width="26.7" height="12" fill="#FFFFFF" opacity="0.21"/><rect x="880.2" y="490.8" width="26.7" height="12" fill="#FFFFFF" opacity="0.11"/><rect x="880.2" y="536.9" width="26.7" height="12" fill="#FFFFFF" opacity="0.33"/><rect x="880.2" y="583.0" width="26.7" height="12" fill="#FFFFFF" opacity="0.10"/><rect x="880.2" y="629.1" width="26.7" height="12" fill="#EC1C2D" opacity="0.12"/><rect x="880.2" y="675.1" width="26.7" height="12" fill="#EC1C2D" opacity="0.20"/><rect x="880.2" y="721.2" width="26.7" height="12" fill="#FFFFFF" opacity="0.25"/><rect x="880.2" y="813.4" width="26.7" height="12" fill="#FFFFFF" opacity="0.10"/><rect x="880.2" y="997.7" width="26.7" height="12" fill="#FFFFFF" opacity="0.24"/><rect x="880.2" y="1043.8" width="26.7" height="12" fill="#FFFFFF" opacity="0.17"/><rect x="913.9" y="398.7" width="26.7" height="12" fill="#FFFFFF" opacity="0.23"/><rect x="913.9" y="490.8" width="26.7" height="12" fill="#FFFFFF" opacity="0.29"/><rect x="913.9" y="536.9" width="26.7" height="12" fill="#FFFFFF" opacity="0.18"/><rect x="913.9" y="583.0" width="26.7" height="12" fill="#FFFFFF" opacity="0.10"/><rect x="913.9" y="675.1" width="26.7" height="12" fill="#EC1C2D" opacity="0.21"/><rect x="913.9" y="721.2" width="26.7" height="12" fill="#FFFFFF" opacity="0.13"/><rect x="913.9" y="813.4" width="26.7" height="12" fill="#FFFFFF" opacity="0.16"/><rect x="913.9" y="859.5" width="26.7" height="12" fill="#FFFFFF" opacity="0.06"/><rect x="913.9" y="997.7" width="26.7" height="12" fill="#FFFFFF" opacity="0.30"/><rect x="913.9" y="1089.8" width="26.7" height="12" fill="#FFFFFF" opacity="0.25"/><rect x="947.5" y="352.6" width="26.7" height="12" fill="#EC1C2D" opacity="0.27"/><rect x="947.5" y="629.1" width="26.7" height="12" fill="#FFFFFF" opacity="0.24"/><rect x="947.5" y="675.1" width="26.7" height="12" fill="#FFFFFF" opacity="0.17"/><rect x="947.5" y="813.4" width="26.7" height="12" fill="#FFFFFF" opacity="0.31"/><rect x="947.5" y="905.5" width="26.7" height="12" fill="#FFFFFF" opacity="0.14"/><rect x="947.5" y="951.6" width="26.7" height="12" fill="#FFFFFF" opacity="0.27"/><rect x="947.5" y="997.7" width="26.7" height="12" fill="#FFFFFF" opacity="0.21"/><rect x="947.5" y="1043.8" width="26.7" height="12" fill="#FFFFFF" opacity="0.11"/><rect x="981.2" y="352.6" width="26.7" height="12" fill="#FFFFFF" opacity="0.30"/><rect x="981.2" y="444.8" width="26.7" height="12" fill="#FFFFFF" opacity="0.17"/><rect x="981.2" y="490.8" width="26.7" height="12" fill="#FFFFFF" opacity="0.13"/><rect x="981.2" y="536.9" width="26.7" height="12" fill="#FFFFFF" opacity="0.33"/><rect x="981.2" y="583.0" width="26.7" height="12" fill="#FFFFFF" opacity="0.28"/><rect x="981.2" y="721.2" width="26.7" height="12" fill="#FFFFFF" opacity="0.25"/><rect x="981.2" y="767.3" width="26.7" height="12" fill="#FFFFFF" opacity="0.28"/><rect x="981.2" y="813.4" width="26.7" height="12" fill="#FFFFFF" opacity="0.18"/><rect x="981.2" y="951.6" width="26.7" height="12" fill="#FFFFFF" opacity="0.27"/><rect x="981.2" y="1089.8" width="26.7" height="12" fill="#FFFFFF" opacity="0.09"/><rect x="981.2" y="1135.9" width="26.7" height="12" fill="#FFFFFF" opacity="0.11"/><rect x="1050.6" y="417.3" width="234.2" height="782.7" fill="#000" opacity="0.29"/><rect x="1060.6" y="439.3" width="27.0" height="12" fill="#FFFFFF" opacity="0.13"/><rect x="1060.6" y="526.6" width="27.0" height="12" fill="#FFFFFF" opacity="0.33"/><rect x="1060.6" y="570.3" width="27.0" height="12" fill="#FFFFFF" opacity="0.30"/><rect x="1060.6" y="614.0" width="27.0" height="12" fill="#FFFFFF" opacity="0.31"/><rect x="1060.6" y="657.7" width="27.0" height="12" fill="#FFFFFF" opacity="0.17"/><rect x="1060.6" y="701.4" width="27.0" height="12" fill="#EC1C2D" opacity="0.15"/><rect x="1060.6" y="745.1" width="27.0" height="12" fill="#FFFFFF" opacity="0.18"/><rect x="1060.6" y="963.5" width="27.0" height="12" fill="#FFFFFF" opacity="0.18"/><rect x="1060.6" y="1007.2" width="27.0" height="12" fill="#FFFFFF" opacity="0.13"/><rect x="1060.6" y="1050.9" width="27.0" height="12" fill="#FFFFFF" opacity="0.32"/><rect x="1060.6" y="1138.3" width="27.0" height="12" fill="#FFFFFF" opacity="0.23"/><rect x="1096.3" y="439.3" width="27.0" height="12" fill="#FFFFFF" opacity="0.24"/><rect x="1096.3" y="614.0" width="27.0" height="12" fill="#FFFFFF" opacity="0.31"/><rect x="1096.3" y="701.4" width="27.0" height="12" fill="#FFFFFF" opacity="0.11"/><rect x="1096.3" y="745.1" width="27.0" height="12" fill="#FFFFFF" opacity="0.08"/><rect x="1096.3" y="876.2" width="27.0" height="12" fill="#FFFFFF" opacity="0.08"/><rect x="1096.3" y="963.5" width="27.0" height="12" fill="#FFFFFF" opacity="0.22"/><rect x="1096.3" y="1138.3" width="27.0" height="12" fill="#FFFFFF" opacity="0.16"/><rect x="1132.0" y="439.3" width="27.0" height="12" fill="#EC1C2D" opacity="0.26"/><rect x="1132.0" y="483.0" width="27.0" height="12" fill="#FFFFFF" opacity="0.31"/><rect x="1132.0" y="526.6" width="27.0" height="12" fill="#EC1C2D" opacity="0.18"/><rect x="1132.0" y="657.7" width="27.0" height="12" fill="#FFFFFF" opacity="0.22"/><rect x="1132.0" y="701.4" width="27.0" height="12" fill="#FFFFFF" opacity="0.26"/><rect x="1132.0" y="745.1" width="27.0" height="12" fill="#FFFFFF" opacity="0.07"/><rect x="1132.0" y="788.8" width="27.0" height="12" fill="#FFFFFF" opacity="0.28"/><rect x="1132.0" y="876.2" width="27.0" height="12" fill="#FFFFFF" opacity="0.21"/><rect x="1132.0" y="1050.9" width="27.0" height="12" fill="#FFFFFF" opacity="0.28"/><rect x="1132.0" y="1094.6" width="27.0" height="12" fill="#FFFFFF" opacity="0.28"/><rect x="1167.7" y="439.3" width="27.0" height="12" fill="#FFFFFF" opacity="0.09"/><rect x="1167.7" y="483.0" width="27.0" height="12" fill="#FFFFFF" opacity="0.21"/><rect x="1167.7" y="526.6" width="27.0" height="12" fill="#FFFFFF" opacity="0.14"/><rect x="1167.7" y="570.3" width="27.0" height="12" fill="#EC1C2D" opacity="0.32"/><rect x="1167.7" y="657.7" width="27.0" height="12" fill="#FFFFFF" opacity="0.18"/><rect x="1167.7" y="745.1" width="27.0" height="12" fill="#FFFFFF" opacity="0.08"/><rect x="1167.7" y="919.9" width="27.0" height="12" fill="#FFFFFF" opacity="0.32"/><rect x="1167.7" y="1007.2" width="27.0" height="12" fill="#FFFFFF" opacity="0.34"/><rect x="1167.7" y="1094.6" width="27.0" height="12" fill="#FFFFFF" opacity="0.12"/><rect x="1167.7" y="1138.3" width="27.0" height="12" fill="#FFFFFF" opacity="0.33"/><rect x="1203.4" y="483.0" width="27.0" height="12" fill="#FFFFFF" opacity="0.23"/><rect x="1203.4" y="526.6" width="27.0" height="12" fill="#FFFFFF" opacity="0.28"/><rect x="1203.4" y="657.7" width="27.0" height="12" fill="#FFFFFF" opacity="0.20"/><rect x="1203.4" y="745.1" width="27.0" height="12" fill="#FFFFFF" opacity="0.29"/><rect x="1203.4" y="788.8" width="27.0" height="12" fill="#FFFFFF" opacity="0.34"/><rect x="1203.4" y="919.9" width="27.0" height="12" fill="#FFFFFF" opacity="0.34"/><rect x="1203.4" y="963.5" width="27.0" height="12" fill="#FFFFFF" opacity="0.31"/><rect x="1203.4" y="1007.2" width="27.0" height="12" fill="#FFFFFF" opacity="0.08"/><rect x="1203.4" y="1050.9" width="27.0" height="12" fill="#FFFFFF" opacity="0.11"/><rect x="1203.4" y="1138.3" width="27.0" height="12" fill="#FFFFFF" opacity="0.17"/><rect x="1239.1" y="439.3" width="27.0" height="12" fill="#FFFFFF" opacity="0.07"/><rect x="1239.1" y="483.0" width="27.0" height="12" fill="#FFFFFF" opacity="0.18"/><rect x="1239.1" y="570.3" width="27.0" height="12" fill="#EC1C2D" opacity="0.16"/><rect x="1239.1" y="614.0" width="27.0" height="12" fill="#FFFFFF" opacity="0.18"/><rect x="1239.1" y="657.7" width="27.0" height="12" fill="#FFFFFF" opacity="0.10"/><rect x="1239.1" y="788.8" width="27.0" height="12" fill="#FFFFFF" opacity="0.29"/><rect x="1239.1" y="876.2" width="27.0" height="12" fill="#FFFFFF" opacity="0.11"/><rect x="1239.1" y="919.9" width="27.0" height="12" fill="#FFFFFF" opacity="0.33"/><rect x="1239.1" y="963.5" width="27.0" height="12" fill="#FFFFFF" opacity="0.26"/><rect x="1239.1" y="1094.6" width="27.0" height="12" fill="#FFFFFF" opacity="0.24"/><rect x="1239.1" y="1138.3" width="27.0" height="12" fill="#FFFFFF" opacity="0.10"/><rect x="1328.7" y="530.6" width="185.1" height="669.4" fill="#000" opacity="0.29"/><rect x="1338.7" y="597.5" width="25.0" height="12" fill="#FFFFFF" opacity="0.17"/><rect x="1338.7" y="687.4" width="25.0" height="12" fill="#FFFFFF" opacity="0.28"/><rect x="1338.7" y="732.4" width="25.0" height="12" fill="#EC1C2D" opacity="0.27"/><rect x="1338.7" y="777.4" width="25.0" height="12" fill="#FFFFFF" opacity="0.24"/><rect x="1338.7" y="912.2" width="25.0" height="12" fill="#FFFFFF" opacity="0.30"/><rect x="1338.7" y="1047.1" width="25.0" height="12" fill="#EC1C2D" opacity="0.12"/><rect x="1338.7" y="1092.1" width="25.0" height="12" fill="#FFFFFF" opacity="0.25"/><rect x="1338.7" y="1137.0" width="25.0" height="12" fill="#FFFFFF" opacity="0.07"/><rect x="1371.7" y="597.5" width="25.0" height="12" fill="#FFFFFF" opacity="0.31"/><rect x="1371.7" y="732.4" width="25.0" height="12" fill="#FFFFFF" opacity="0.07"/><rect x="1371.7" y="822.3" width="25.0" height="12" fill="#FFFFFF" opacity="0.27"/><rect x="1371.7" y="957.2" width="25.0" height="12" fill="#FFFFFF" opacity="0.08"/><rect x="1371.7" y="1002.2" width="25.0" height="12" fill="#FFFFFF" opacity="0.11"/><rect x="1371.7" y="1047.1" width="25.0" height="12" fill="#FFFFFF" opacity="0.22"/><rect x="1371.7" y="1092.1" width="25.0" height="12" fill="#FFFFFF" opacity="0.21"/><rect x="1371.7" y="1137.0" width="25.0" height="12" fill="#FFFFFF" opacity="0.26"/><rect x="1404.8" y="552.6" width="25.0" height="12" fill="#FFFFFF" opacity="0.12"/><rect x="1404.8" y="597.5" width="25.0" height="12" fill="#FFFFFF" opacity="0.24"/><rect x="1404.8" y="642.5" width="25.0" height="12" fill="#FFFFFF" opacity="0.29"/><rect x="1404.8" y="822.3" width="25.0" height="12" fill="#FFFFFF" opacity="0.23"/><rect x="1404.8" y="867.3" width="25.0" height="12" fill="#FFFFFF" opacity="0.14"/><rect x="1404.8" y="957.2" width="25.0" height="12" fill="#FFFFFF" opacity="0.23"/><rect x="1404.8" y="1002.2" width="25.0" height="12" fill="#FFFFFF" opacity="0.12"/><rect x="1404.8" y="1092.1" width="25.0" height="12" fill="#EC1C2D" opacity="0.26"/><rect x="1404.8" y="1137.0" width="25.0" height="12" fill="#FFFFFF" opacity="0.33"/><rect x="1437.8" y="552.6" width="25.0" height="12" fill="#FFFFFF" opacity="0.25"/><rect x="1437.8" y="597.5" width="25.0" height="12" fill="#FFFFFF" opacity="0.10"/><rect x="1437.8" y="642.5" width="25.0" height="12" fill="#FFFFFF" opacity="0.28"/><rect x="1437.8" y="687.4" width="25.0" height="12" fill="#FFFFFF" opacity="0.18"/><rect x="1437.8" y="732.4" width="25.0" height="12" fill="#FFFFFF" opacity="0.08"/><rect x="1437.8" y="777.4" width="25.0" height="12" fill="#EC1C2D" opacity="0.31"/><rect x="1437.8" y="822.3" width="25.0" height="12" fill="#FFFFFF" opacity="0.21"/><rect x="1437.8" y="867.3" width="25.0" height="12" fill="#FFFFFF" opacity="0.33"/><rect x="1437.8" y="912.2" width="25.0" height="12" fill="#FFFFFF" opacity="0.23"/><rect x="1437.8" y="957.2" width="25.0" height="12" fill="#FFFFFF" opacity="0.17"/><rect x="1437.8" y="1002.2" width="25.0" height="12" fill="#FFFFFF" opacity="0.13"/><rect x="1437.8" y="1047.1" width="25.0" height="12" fill="#FFFFFF" opacity="0.07"/><rect x="1437.8" y="1092.1" width="25.0" height="12" fill="#FFFFFF" opacity="0.18"/><rect x="1470.8" y="597.5" width="25.0" height="12" fill="#FFFFFF" opacity="0.29"/><rect x="1470.8" y="642.5" width="25.0" height="12" fill="#FFFFFF" opacity="0.33"/><rect x="1470.8" y="732.4" width="25.0" height="12" fill="#FFFFFF" opacity="0.25"/><rect x="1470.8" y="777.4" width="25.0" height="12" fill="#FFFFFF" opacity="0.20"/><rect x="1470.8" y="822.3" width="25.0" height="12" fill="#FFFFFF" opacity="0.09"/><rect x="1470.8" y="867.3" width="25.0" height="12" fill="#FFFFFF" opacity="0.28"/><rect x="1470.8" y="957.2" width="25.0" height="12" fill="#FFFFFF" opacity="0.13"/><rect x="1470.8" y="1047.1" width="25.0" height="12" fill="#FFFFFF" opacity="0.09"/><rect x="1470.8" y="1137.0" width="25.0" height="12" fill="#FFFFFF" opacity="0.27"/><rect x="1532.2" y="219.2" width="196.5" height="980.8" fill="#000" opacity="0.35"/><rect x="1542.2" y="241.2" width="27.3" height="12" fill="#FFFFFF" opacity="0.09"/><rect x="1542.2" y="330.8" width="27.3" height="12" fill="#FFFFFF" opacity="0.31"/><rect x="1542.2" y="375.6" width="27.3" height="12" fill="#FFFFFF" opacity="0.08"/><rect x="1542.2" y="465.2" width="27.3" height="12" fill="#EC1C2D" opacity="0.11"/><rect x="1542.2" y="510.0" width="27.3" height="12" fill="#FFFFFF" opacity="0.07"/><rect x="1542.2" y="644.4" width="27.3" height="12" fill="#EC1C2D" opacity="0.32"/><rect x="1542.2" y="868.4" width="27.3" height="12" fill="#FFFFFF" opacity="0.12"/><rect x="1542.2" y="913.2" width="27.3" height="12" fill="#FFFFFF" opacity="0.18"/><rect x="1542.2" y="958.0" width="27.3" height="12" fill="#FFFFFF" opacity="0.20"/><rect x="1542.2" y="1002.8" width="27.3" height="12" fill="#FFFFFF" opacity="0.08"/><rect x="1542.2" y="1047.6" width="27.3" height="12" fill="#FFFFFF" opacity="0.24"/><rect x="1542.2" y="1137.2" width="27.3" height="12" fill="#FFFFFF" opacity="0.34"/><rect x="1577.5" y="241.2" width="27.3" height="12" fill="#EC1C2D" opacity="0.25"/><rect x="1577.5" y="330.8" width="27.3" height="12" fill="#FFFFFF" opacity="0.32"/><rect x="1577.5" y="420.4" width="27.3" height="12" fill="#FFFFFF" opacity="0.09"/><rect x="1577.5" y="465.2" width="27.3" height="12" fill="#FFFFFF" opacity="0.13"/><rect x="1577.5" y="510.0" width="27.3" height="12" fill="#FFFFFF" opacity="0.14"/><rect x="1577.5" y="734.0" width="27.3" height="12" fill="#FFFFFF" opacity="0.18"/><rect x="1577.5" y="778.8" width="27.3" height="12" fill="#FFFFFF" opacity="0.29"/><rect x="1577.5" y="823.6" width="27.3" height="12" fill="#FFFFFF" opacity="0.14"/><rect x="1577.5" y="868.4" width="27.3" height="12" fill="#FFFFFF" opacity="0.22"/><rect x="1577.5" y="958.0" width="27.3" height="12" fill="#FFFFFF" opacity="0.33"/><rect x="1577.5" y="1002.8" width="27.3" height="12" fill="#FFFFFF" opacity="0.16"/><rect x="1577.5" y="1137.2" width="27.3" height="12" fill="#FFFFFF" opacity="0.16"/><rect x="1612.8" y="286.0" width="27.3" height="12" fill="#FFFFFF" opacity="0.06"/><rect x="1612.8" y="465.2" width="27.3" height="12" fill="#FFFFFF" opacity="0.33"/><rect x="1612.8" y="554.8" width="27.3" height="12" fill="#FFFFFF" opacity="0.15"/><rect x="1612.8" y="599.6" width="27.3" height="12" fill="#FFFFFF" opacity="0.25"/><rect x="1612.8" y="644.4" width="27.3" height="12" fill="#FFFFFF" opacity="0.24"/><rect x="1612.8" y="689.2" width="27.3" height="12" fill="#FFFFFF" opacity="0.21"/><rect x="1612.8" y="778.8" width="27.3" height="12" fill="#FFFFFF" opacity="0.25"/><rect x="1612.8" y="823.6" width="27.3" height="12" fill="#FFFFFF" opacity="0.15"/><rect x="1612.8" y="913.2" width="27.3" height="12" fill="#FFFFFF" opacity="0.22"/><rect x="1612.8" y="1092.4" width="27.3" height="12" fill="#FFFFFF" opacity="0.29"/><rect x="1648.1" y="241.2" width="27.3" height="12" fill="#FFFFFF" opacity="0.08"/><rect x="1648.1" y="375.6" width="27.3" height="12" fill="#FFFFFF" opacity="0.25"/><rect x="1648.1" y="420.4" width="27.3" height="12" fill="#FFFFFF" opacity="0.18"/><rect x="1648.1" y="465.2" width="27.3" height="12" fill="#FFFFFF" opacity="0.20"/><rect x="1648.1" y="554.8" width="27.3" height="12" fill="#EC1C2D" opacity="0.30"/><rect x="1648.1" y="599.6" width="27.3" height="12" fill="#FFFFFF" opacity="0.18"/><rect x="1648.1" y="689.2" width="27.3" height="12" fill="#EC1C2D" opacity="0.21"/><rect x="1648.1" y="778.8" width="27.3" height="12" fill="#FFFFFF" opacity="0.09"/><rect x="1648.1" y="868.4" width="27.3" height="12" fill="#FFFFFF" opacity="0.28"/><rect x="1648.1" y="913.2" width="27.3" height="12" fill="#FFFFFF" opacity="0.09"/><rect x="1648.1" y="958.0" width="27.3" height="12" fill="#FFFFFF" opacity="0.33"/><rect x="1648.1" y="1002.8" width="27.3" height="12" fill="#FFFFFF" opacity="0.11"/><rect x="1648.1" y="1047.6" width="27.3" height="12" fill="#FFFFFF" opacity="0.14"/><rect x="1683.4" y="420.4" width="27.3" height="12" fill="#FFFFFF" opacity="0.07"/><rect x="1683.4" y="465.2" width="27.3" height="12" fill="#FFFFFF" opacity="0.33"/><rect x="1683.4" y="554.8" width="27.3" height="12" fill="#FFFFFF" opacity="0.20"/><rect x="1683.4" y="599.6" width="27.3" height="12" fill="#FFFFFF" opacity="0.30"/><rect x="1683.4" y="644.4" width="27.3" height="12" fill="#FFFFFF" opacity="0.25"/><rect x="1683.4" y="689.2" width="27.3" height="12" fill="#FFFFFF" opacity="0.33"/><rect x="1683.4" y="734.0" width="27.3" height="12" fill="#FFFFFF" opacity="0.17"/><rect x="1683.4" y="778.8" width="27.3" height="12" fill="#FFFFFF" opacity="0.06"/><rect x="1683.4" y="868.4" width="27.3" height="12" fill="#FFFFFF" opacity="0.10"/><rect x="1683.4" y="913.2" width="27.3" height="12" fill="#FFFFFF" opacity="0.27"/><rect x="1683.4" y="958.0" width="27.3" height="12" fill="#FFFFFF" opacity="0.32"/><rect x="1683.4" y="1002.8" width="27.3" height="12" fill="#FFFFFF" opacity="0.30"/><rect x="1683.4" y="1047.6" width="27.3" height="12" fill="#FFFFFF" opacity="0.31"/><rect x="1683.4" y="1092.4" width="27.3" height="12" fill="#FFFFFF" opacity="0.34"/><rect x="1683.4" y="1137.2" width="27.3" height="12" fill="#FFFFFF" opacity="0.15"/>
  <rect width="1600" height="1200" fill="#000000" opacity="0.1"/>
</svg>
