<svg xmlns="http://www.w3.org/2000/svg" viewBox="0 0 1600 1200" width="1600" height="1200" role="img">
  <defs>
    <linearGradient id="slakewood" x1="0" y1="0" x2="0" y2="1">
      <stop offset="0%" stop-color="#2C63B4"/>
      <stop offset="58%" stop-color="#0B1830"/>
      <stop offset="100%" stop-color="#000000"/>
    </linearGradient>
    <radialGradient id="grlakewood">
      <stop offset="0%" stop-color="#EC1C2D" stop-opacity="0.8"/>
      <stop offset="100%" stop-color="#EC1C2D" stop-opacity="0"/>
    </radialGradient>
    <radialGradient id="gblakewood">
      <stop offset="0%" stop-color="#9AA2DB" stop-opacity="0.7"/>
      <stop offset="100%" stop-color="#9AA2DB" stop-opacity="0"/>
    </radialGradient>
  </defs>
  <rect width="1600" height="1200" fill="url(#slakewood)"/>
  <circle cx="26%" cy="46%" r="30%" fill="url(#gblakewood)" opacity="0.45"/>
  <rect x="0" y="775.4" width="1600" height="2" fill="#EC1C2D" opacity="0.4"/>
  <rect x="-80.0" y="526.1" width="194.0" height="673.9" fill="#000" opacity="0.34"/><rect x="-70.0" y="548.1" width="26.8" height="12" fill="#FFFFFF" opacity="0.10"/><rect x="-70.0" y="593.4" width="26.8" height="12" fill="#FFFFFF" opacity="0.10"/><rect x="-70.0" y="638.6" width="26.8" height="12" fill="#FFFFFF" opacity="0.14"/><rect x="-70.0" y="774.5" width="26.8" height="12" fill="#FFFFFF" opacity="0.30"/><rect x="-70.0" y="819.8" width="26.8" height="12" fill="#FFFFFF" opacity="0.14"/><rect x="-70.0" y="910.3" width="26.8" height="12" fill="#FFFFFF" opacity="0.09"/><rect x="-70.0" y="955.6" width="26.8" height="12" fill="#FFFFFF" opacity="0.28"/><rect x="-70.0" y="1046.2" width="26.8" height="12" fill="#FFFFFF" opacity="0.27"/><rect x="-70.0" y="1136.7" width="26.8" height="12" fill="#FFFFFF" opacity="0.23"/><rect x="-35.2" y="548.1" width="26.8" height="12" fill="#FFFFFF" opacity="0.28"/><rect x="-35.2" y="593.4" width="26.8" height="12" fill="#FFFFFF" opacity="0.19"/><rect x="-35.2" y="683.9" width="26.8" height="12" fill="#FFFFFF" opacity="0.12"/><rect x="-35.2" y="729.2" width="26.8" height="12" fill="#FFFFFF" opacity="0.08"/><rect x="-35.2" y="774.5" width="26.8" height="12" fill="#FFFFFF" opacity="0.30"/><rect x="-35.2" y="910.3" width="26.8" height="12" fill="#FFFFFF" opacity="0.33"/><rect x="-35.2" y="1136.7" width="26.8" height="12" fill="#EC1C2D" opacity="0.24"/><rect x="-0.4" y="548.1" width="26.8" height="12" fill="#FFFFFF" opacity="0.15"/><rect x="-0.4" y="593.4" width="26.8" height="12" fill="#FFFFFF" opacity="0.22"/><rect x="-0.4" y="638.6" width="26.8" height="12" fill="#FFFFFF" opacity="0.16"/><rect x="-0.4" y="729.2" width="26.8" height="12" fill="#FFFFFF" opacity="0.24"/><rect x="-0.4" y="774.5" width="26.8" height="12" fill="#FFFFFF" opacity="0.14"/><rect x="-0.4" y="819.8" width="26.8" height="12" fill="#FFFFFF" opacity="0.29"/><rect x="-0.4" y="865.0" width="26.8" height="12" fill="#FFFFFF" opacity="0.13"/><rect x="-0.4" y="955.6" width="26.8" height="12" fill="#FFFFFF" opacity="0.31"/><rect x="-0.4" y="1000.9" width="26.8" height="12" fill="#FFFFFF" opacity="0.20"/><rect x="34.4" y="638.6" width="26.8" height="12" fill="#FFFFFF" opacity="0.16"/><rect x="34.4" y="683.9" width="26.8" height="12" fill="#FFFFFF" opacity="0.23"/><rect x="34.4" y="729.2" width="26.8" height="12" fill="#FFFFFF" opacity="0.21"/><rect x="34.4" y="774.5" width="26.8" height="12" fill="#FFFFFF" opacity="0.30"/><rect x="34.4" y="819.8" width="26.8" height="12" fill="#FFFFFF" opacity="0.28"/><rect x="34.4" y="865.0" width="26.8" height="12" fill="#FFFFFF" opacity="0.23"/><rect x="34.4" y="910.3" width="26.8" height="12" fill="#EC1C2D" opacity="0.34"/><rect x="34.4" y="1046.2" width="26.8" height="12" fill="#FFFFFF" opacity="0.29"/><rect x="34.4" y="1091.4" width="26.8" height="12" fill="#EC1C2D" opacity="0.19"/><rect x="69.2" y="548.1" width="26.8" height="12" fill="#FFFFFF" opacity="0.28"/><rect x="69.2" y="593.4" width="26.8" height="12" fill="#FFFFFF" opacity="0.13"/><rect x="69.2" y="683.9" width="26.8" height="12" fill="#FFFFFF" opacity="0.16"/><rect x="69.2" y="729.2" width="26.8" height="12" fill="#FFFFFF" opacity="0.22"/><rect x="69.2" y="819.8" width="26.8" height="12" fill="#EC1C2D" opacity="0.26"/><rect x="69.2" y="865.0" width="26.8" height="12" fill="#FFFFFF" opacity="0.29"/><rect x="69.2" y="910.3" width="26.8" height="12" fill="#FFFFFF" opacity="0.20"/><rect x="69.2" y="955.6" width="26.8" height="12" fill="#FFFFFF" opacity="0.23"/><rect x="69.2" y="1091.4" width="26.8" height="12" fill="#FFFFFF" opacity="0.09"/><rect x="129.0" y="500.6" width="127.8" height="699.4" fill="#000" opacity="0.22"/><rect x="139.0" y="522.6" width="30.6" height="12" fill="#FFFFFF" opacity="0.29"/><rect x="139.0" y="566.6" width="30.6" height="12" fill="#EC1C2D" opacity="0.20"/><rect x="139.0" y="610.5" width="30.6" height="12" fill="#FFFFFF" opacity="0.31"/><rect x="139.0" y="698.4" width="30.6" height="12" fill="#FFFFFF" opacity="0.14"/><rect x="139.0" y="742.4" width="30.6" height="12" fill="#FFFFFF" opacity="0.30"/><rect x="139.0" y="786.4" width="30.6" height="12" fill="#FFFFFF" opacity="0.12"/><rect x="139.0" y="830.3" width="30.6" height="12" fill="#FFFFFF" opacity="0.06"/><rect x="139.0" y="874.3" width="30.6" height="12" fill="#FFFFFF" opacity="0.19"/><rect x="139.0" y="962.2" width="30.6" height="12" fill="#FFFFFF" opacity="0.15"/><rect x="139.0" y="1006.2" width="30.6" height="12" fill="#FFFFFF" opacity="0.24"/><rect x="139.0" y="1050.1" width="30.6" height="12" fill="#FFFFFF" opacity="0.09"/><rect x="139.0" y="1094.1" width="30.6" height="12" fill="#FFFFFF" opacity="0.22"/><rect x="175.0" y="566.6" width="30.6" height="12" fill="#FFFFFF" opacity="0.25"/><rect x="175.0" y="610.5" width="30.6" height="12" fill="#FFFFFF" opacity="0.30"/><rect x="175.0" y="654.5" width="30.6" height="12" fill="#FFFFFF" opacity="0.31"/><rect x="175.0" y="742.4" width="30.6" height="12" fill="#FFFFFF" opacity="0.17"/><rect x="175.0" y="918.2" width="30.6" height="12" fill="#FFFFFF" opacity="0.06"/><rect x="175.0" y="1050.1" width="30.6" height="12" fill="#FFFFFF" opacity="0.34"/><rect x="175.0" y="1094.1" width="30.6" height="12" fill="#FFFFFF" opacity="0.14"/><rect x="210.9" y="610.5" width="30.6" height="12" fill="#FFFFFF" opacity="0.08"/><rect x="210.9" y="698.4" width="30.6" height="12" fill="#EC1C2D" opacity="0.13"/><rect x="210.9" y="742.4" width="30.6" height="12" fill="#FFFFFF" opacity="0.14"/><rect x="210.9" y="830.3" width="30.6" height="12" fill="#FFFFFF" opacity="0.12"/><rect x="210.9" y="874.3" width="30.6" height="12" fill="#FFFFFF" opacity="0.16"/><rect x="210.9" y="918.2" width="30.6" height="12" fill="#FFFFFF" opacity="0.08"/><rect x="210.9" y="962.2" width="30.6" height="12" fill="#FFFFFF" opacity="0.13"/><rect x="210.9" y="1006.2" width="30.6" height="12" fill="#FFFFFF" opacity="0.24"/><rect x="210.9" y="1138.0" width="30.6" height="12" fill="#FFFFFF" opacity="0.23"/><rect x="281.7" y="241.1" width="103.2" height="958.9" fill="#000" opacity="0.23"/><rect x="291.7" y="263.1" width="22.4" height="12" fill="#EC1C2D" opacity="0.33"/><rect x="291.7" y="309.0" width="22.4" height="12" fill="#EC1C2D" opacity="0.06"/><rect x="291.7" y="355.0" width="22.4" height="12" fill="#FFFFFF" opacity="0.23"/><rect x="291.7" y="492.8" width="22.4" height="12" fill="#FFFFFF" opacity="0.19"/><rect x="291.7" y="538.7" width="22.4" height="12" fill="#FFFFFF" opacity="0.17"/><rect x="291.7" y="584.7" width="22.4" height="12" fill="#EC1C2D" opacity="0.24"/><rect x="291.7" y="630.6" width="22.4" height="12" fill="#FFFFFF" opacity="0.31"/><rect x="291.7" y="768.5" width="22.4" height="12" fill="#FFFFFF" opacity="0.30"/><rect x="291.7" y="860.4" width="22.4" height="12" fill="#FFFFFF" opacity="0.12"/><rect x="291.7" y="952.3" width="22.4" height="12" fill="#FFFFFF" opacity="0.22"/><rect x="291.7" y="1136.1" width="22.4" height="12" fill="#FFFFFF" opacity="0.24"/><rect x="319.5" y="309.0" width="22.4" height="12" fill="#FFFFFF" opacity="0.09"/><rect x="319.5" y="355.0" width="22.4" height="12" fill="#FFFFFF" opacity="0.22"/><rect x="319.5" y="400.9" width="22.4" height="12" fill="#FFFFFF" opacity="0.07"/><rect x="319.5" y="446.9" width="22.4" height="12" fill="#EC1C2D" opacity="0.31"/><rect x="319.5" y="538.7" width="22.4" height="12" fill="#FFFFFF" opacity="0.29"/><rect x="319.5" y="584.7" width="22.4" height="12" fill="#FFFFFF" opacity="0.32"/><rect x="319.5" y="630.6" width="22.4" height="12" fill="#FFFFFF" opacity="0.10"/><rect x="319.5" y="676.6" width="22.4" height="12" fill="#EC1C2D" opacity="0.21"/><rect x="319.5" y="722.5" width="22.4" height="12" fill="#FFFFFF" opacity="0.15"/><rect x="319.5" y="768.5" width="22.4" height="12" fill="#FFFFFF" opacity="0.09"/><rect x="319.5" y="814.4" width="22.4" height="12" fill="#FFFFFF" opacity="0.23"/><rect x="319.5" y="906.3" width="22.4" height="12" fill="#FFFFFF" opacity="0.13"/><rect x="319.5" y="952.3" width="22.4" height="12" fill="#FFFFFF" opacity="0.08"/><rect x="319.5" y="998.2" width="22.4" height="12" fill="#FFFFFF" opacity="0.25"/><rect x="319.5" y="1090.1" width="22.4" height="12" fill="#FFFFFF" opacity="0.07"/><rect x="319.5" y="1136.1" width="22.4" height="12" fill="#FFFFFF" opacity="0.32"/><rect x="347.2" y="309.0" width="22.4" height="12" fill="#FFFFFF" opacity="0.19"/><rect x="347.2" y="400.9" width="22.4" height="12" fill="#FFFFFF" opacity="0.18"/><rect x="347.2" y="446.9" width="22.4" height="12" fill="#FFFFFF" opacity="0.21"/><rect x="347.2" y="492.8" width="22.4" height="12" fill="#FFFFFF" opacity="0.29"/><rect x="347.2" y="722.5" width="22.4" height="12" fill="#EC1C2D" opacity="0.23"/><rect x="347.2" y="860.4" width="22.4" height="12" fill="#FFFFFF" opacity="0.17"/><rect x="347.2" y="906.3" width="22.4" height="12" fill="#EC1C2D" opacity="0.15"/><rect x="347.2" y="952.3" width="22.4" height="12" fill="#EC1C2D" opacity="0.30"/><rect x="347.2" y="998.2" width="22.4" height="12" fill="#FFFFFF" opacity="0.06"/><rect x="347.2" y="1044.2" width="22.4" height="12" fill="#FFFFFF" opacity="0.32"/><rect x="347.2" y="1136.1" width="22.4" height="12" fill="#FFFFFF" opacity="0.06"/><rect x="411.1" y="244.0" width="206.8" height="956.0" fill="#000" opacity="0.32"/><rect x="421.1" y="266.0" width="22.5" height="12" fill="#EC1C2D" opacity="0.19"/><rect x="421.1" y="311.8" width="22.5" height="12" fill="#FFFFFF" opacity="0.24"/><rect x="421.1" y="403.4" width="22.5" height="12" fill="#FFFFFF" opacity="0.22"/><rect x="421.1" y="449.2" width="22.5" height="12" fill="#FFFFFF" opacity="0.10"/><rect x="421.1" y="495.0" width="22.5" height="12" fill="#FFFFFF" opacity="0.07"/><rect x="421.1" y="586.6" width="22.5" height="12" fill="#FFFFFF" opacity="0.27"/><rect x="421.1" y="632.4" width="22.5" height="12" fill="#FFFFFF" opacity="0.10"/><rect x="421.1" y="678.2" width="22.5" height="12" fill="#FFFFFF" opacity="0.12"/><rect x="421.1" y="724.0" width="22.5" height="12" fill="#FFFFFF" opacity="0.12"/><rect x="421.1" y="769.8" width="22.5" height="12" fill="#FFFFFF" opacity="0.17"/><rect x="421.1" y="1090.4" width="22.5" height="12" fill="#FFFFFF" opacity="0.33"/><rect x="421.1" y="1136.2" width="22.5" height="12" fill="#FFFFFF" opacity="0.19"/><rect x="452.3" y="266.0" width="22.5" height="12" fill="#FFFFFF" opacity="0.15"/><rect x="452.3" y="311.8" width="22.5" height="12" fill="#EC1C2D" opacity="0.23"/><rect x="452.3" y="357.6" width="22.5" height="12" fill="#FFFFFF" opacity="0.18"/><rect x="452.3" y="449.2" width="22.5" height="12" fill="#FFFFFF" opacity="0.31"/><rect x="452.3" y="495.0" width="22.5" height="12" fill="#EC1C2D" opacity="0.27"/><rect x="452.3" y="586.6" width="22.5" height="12" fill="#FFFFFF" opacity="0.20"/><rect x="452.3" y="632.4" width="22.5" height="12" fill="#FFFFFF" opacity="0.20"/><rect x="452.3" y="678.2" width="22.5" height="12" fill="#FFFFFF" opacity="0.09"/><rect x="452.3" y="769.8" width="22.5" height="12" fill="#EC1C2D" opacity="0.32"/><rect x="452.3" y="815.6" width="22.5" height="12" fill="#EC1C2D" opacity="0.08"/><rect x="452.3" y="907.2" width="22.5" height="12" fill="#FFFFFF" opacity="0.20"/><rect x="452.3" y="953.0" width="22.5" height="12" fill="#FFFFFF" opacity="0.19"/><rect x="452.3" y="1090.4" width="22.5" height="12" fill="#FFFFFF" opacity="0.10"/><rect x="483.4" y="311.8" width="22.5" height="12" fill="#FFFFFF" opacity="0.19"/><rect x="483.4" y="357.6" width="22.5" height="12" fill="#FFFFFF" opacity="0.13"/><rect x="483.4" y="403.4" width="22.5" height="12" fill="#FFFFFF" opacity="0.19"/><rect x="483.4" y="449.2" width="22.5" height="12" fill="#EC1C2D" opacity="0.11"/><rect x="483.4" y="495.0" width="22.5" height="12" fill="#FFFFFF" opacity="0.10"/><rect x="483.4" y="540.8" width="22.5" height="12" fill="#FFFFFF" opacity="0.17"/><rect x="483.4" y="586.6" width="22.5" height="12" fill="#FFFFFF" opacity="0.23"/><rect x="483.4" y="678.2" width="22.5" height="12" fill="#FFFFFF" opacity="0.31"/><rect x="483.4" y="724.0" width="22.5" height="12" fill="#FFFFFF" opacity="0.19"/><rect x="483.4" y="815.6" width="22.5" height="12" fill="#FFFFFF" opacity="0.31"/><rect x="483.4" y="861.4" width="22.5" height="12" fill="#FFFFFF" opacity="0.24"/><rect x="483.4" y="907.2" width="22.5" height="12" fill="#FFFFFF" opacity="0.09"/><rect x="483.4" y="953.0" width="22.5" height="12" fill="#FFFFFF" opacity="0.31"/><rect x="483.4" y="998.8" width="22.5" height="12" fill="#FFFFFF" opacity="0.26"/><rect x="483.4" y="1044.6" width="22.5" height="12" fill="#FFFFFF" opacity="0.21"/><rect x="483.4" y="1136.2" width="22.5" height="12" fill="#FFFFFF" opacity="0.32"/><rect x="514.5" y="266.0" width="22.5" height="12" fill="#FFFFFF" opacity="0.17"/><rect x="514.5" y="357.6" width="22.5" height="12" fill="#FFFFFF" opacity="0.10"/><rect x="514.5" y="403.4" width="22.5" height="12" fill="#FFFFFF" opacity="0.27"/><rect x="514.5" y="540.8" width="22.5" height="12" fill="#FFFFFF" opacity="0.23"/><rect x="514.5" y="632.4" width="22.5" height="12" fill="#FFFFFF" opacity="0.11"/><rect x="514.5" y="678.2" width="22.5" height="12" fill="#FFFFFF" opacity="0.13"/><rect x="514.5" y="724.0" width="22.5" height="12" fill="#FFFFFF" opacity="0.27"/><rect x="514.5" y="769.8" width="22.5" height="12" fill="#FFFFFF" opacity="0.30"/><rect x="514.5" y="861.4" width="22.5" height="12" fill="#FFFFFF" opacity="0.22"/><rect x="514.5" y="907.2" width="22.5" height="12" fill="#FFFFFF" opacity="0.32"/><rect x="514.5" y="953.0" width="22.5" height="12" fill="#FFFFFF" opacity="0.17"/><rect x="514.5" y="998.8" width="22.5" height="12" fill="#FFFFFF" opacity="0.10"/><rect x="514.5" y="1044.6" width="22.5" height="12" fill="#FFFFFF" opacity="0.18"/><rect x="514.5" y="1090.4" width="22.5" height="12" fill="#EC1C2D" opacity="0.06"/><rect x="514.5" y="1136.2" width="22.5" height="12" fill="#FFFFFF" opacity="0.20"/><rect x="545.7" y="266.0" width="22.5" height="12" fill="#FFFFFF" opacity="0.09"/><rect x="545.7" y="357.6" width="22.5" height="12" fill="#FFFFFF" opacity="0.11"/><rect x="545.7" y="403.4" width="22.5" height="12" fill="#FFFFFF" opacity="0.07"/><rect x="545.7" y="495.0" width="22.5" height="12" fill="#FFFFFF" opacity="0.24"/><rect x="545.7" y="540.8" width="22.5" height="12" fill="#FFFFFF" opacity="0.15"/><rect x="545.7" y="632.4" width="22.5" height="12" fill="#FFFFFF" opacity="0.11"/><rect x="545.7" y="678.2" width="22.5" height="12" fill="#FFFFFF" opacity="0.21"/><rect x="545.7" y="724.0" width="22.5" height="12" fill="#FFFFFF" opacity="0.07"/><rect x="545.7" y="769.8" width="22.5" height="12" fill="#FFFFFF" opacity="0.20"/><rect x="545.7" y="815.6" width="22.5" height="12" fill="#FFFFFF" opacity="0.16"/><rect x="545.7" y="861.4" width="22.5" height="12" fill="#FFFFFF" opacity="0.33"/><rect x="545.7" y="907.2" width="22.5" height="12" fill="#FFFFFF" opacity="0.15"/><rect x="545.7" y="953.0" width="22.5" height="12" fill="#FFFFFF" opacity="0.10"/><rect x="545.7" y="998.8" width="22.5" height="12" fill="#FFFFFF" opacity="0.32"/><rect x="545.7" y="1044.6" width="22.5" height="12" fill="#FFFFFF" opacity="0.28"/><rect x="576.8" y="266.0" width="22.5" height="12" fill="#FFFFFF" opacity="0.13"/><rect x="576.8" y="311.8" width="22.5" height="12" fill="#FFFFFF" opacity="0.20"/><rect x="576.8" y="449.2" width="22.5" height="12" fill="#FFFFFF" opacity="0.28"/><rect x="576.8" y="495.0" width="22.5" height="12" fill="#EC1C2D" opacity="0.28"/><rect x="576.8" y="540.8" width="22.5" height="12" fill="#FFFFFF" opacity="0.19"/><rect x="576.8" y="724.0" width="22.5" height="12" fill="#FFFFFF" opacity="0.14"/><rect x="576.8" y="769.8" width="22.5" height="12" fill="#EC1C2D" opacity="0.22"/><rect x="576.8" y="815.6" width="22.5" height="12" fill="#FFFFFF" opacity="0.16"/><rect x="576.8" y="907.2" width="22.5" height="12" fill="#FFFFFF" opacity="0.14"/><rect x="576.8" y="953.0" width="22.5" height="12" fill="#FFFFFF" opacity="0.24"/><rect x="576.8" y="998.8" width="22.5" height="12" fill="#FFFFFF" opacity="0.18"/><rect x="576.8" y="1090.4" width="22.5" height="12" fill="#FFFFFF" opacity="0.17"/><rect x="648.0" y="321.8" width="132.2" height="878.2" fill="#000" opacity="0.37"/><rect x="658.0" y="432.1" width="32.1" height="12" fill="#FFFFFF" opacity="0.19"/><rect x="658.0" y="476.2" width="32.1" height="12" fill="#FFFFFF" opacity="0.34"/><rect x="658.0" y="608.5" width="32.1" height="12" fill="#FFFFFF" opacity="0.32"/><rect x="658.0" y="652.6" width="32.1" height="12" fill="#FFFFFF" opacity="0.29"/><rect x="658.0" y="696.7" width="32.1" height="12" fill="#FFFFFF" opacity="0.15"/><rect x="658.0" y="785.0" width="32.1" height="12" fill="#FFFFFF" opacity="0.09"/><rect x="658.0" y="829.1" width="32.1" height="12" fill="#FFFFFF" opacity="0.27"/><rect x="658.0" y="873.2" width="32.1" height="12" fill="#FFFFFF" opacity="0.16"/><rect x="658.0" y="917.3" width="32.1" height="12" fill="#FFFFFF" opacity="0.26"/><rect x="658.0" y="961.4" width="32.1" height="12" fill="#FFFFFF" opacity="0.33"/><rect x="658.0" y="1049.7" width="32.1" height="12" fill="#FFFFFF" opacity="0.18"/><rect x="658.0" y="1093.8" width="32.1" height="12" fill="#FFFFFF" opacity="0.14"/><rect x="658.0" y="1137.9" width="32.1" height="12" fill="#FFFFFF" opacity="0.23"/><rect x="695.4" y="343.8" width="32.1" height="12" fill="#FFFFFF" opacity="0.09"/><rect x="695.4" y="387.9" width="32.1" height="12" fill="#FFFFFF" opacity="0.07"/><rect x="695.4" y="520.3" width="32.1" height="12" fill="#FFFFFF" opacity="0.26"/><rect x="695.4" y="564.4" width="32.1" height="12" fill="#FFFFFF" opacity="0.28"/><rect x="695.4" y="608.5" width="32.1" height="12" fill="#FFFFFF" opacity="0.25"/><rect x="695.4" y="652.6" width="32.1" height="12" fill="#FFFFFF" opacity="0.15"/><rect x="695.4" y="696.7" width="32.1" height="12" fill="#FFFFFF" opacity="0.32"/><rect x="695.4" y="740.9" width="32.1" height="12" fill="#EC1C2D" opacity="0.20"/><rect x="695.4" y="829.1" width="32.1" height="12" fill="#FFFFFF" opacity="0.07"/><rect x="695.4" y="873.2" width="32.1" height="12" fill="#FFFFFF" opacity="0.12"/><rect x="695.4" y="917.3" width="32.1" height="12" fill="#FFFFFF" opacity="0.33"/><rect x="695.4" y="1005.5" width="32.1" height="12" fill="#FFFFFF" opacity="0.07"/><rect x="695.4" y="1049.7" width="32.1" height="12" fill="#FFFFFF" opacity="0.33"/><rect x="695.4" y="1137.9" width="32.1" height="12" fill="#FFFFFF" opacity="0.15"/><rect x="732.8" y="343.8" width="32.1" height="12" fill="#FFFFFF" opacity="0.26"/><rect x="732.8" y="476.2" width="32.1" height="12" fill="#FFFFFF" opacity="0.11"/><rect x="732.8" y="520.3" width="32.1" height="12" fill="#FFFFFF" opacity="0.10"/><rect x="732.8" y="564.4" width="32.1" height="12" fill="#FFFFFF" opacity="0.28"/><rect x="732.8" y="696.7" width="32.1" height="12" fill="#FFFFFF" opacity="0.16"/><rect x="732.8" y="740.9" width="32.1" height="12" fill="#FFFFFF" opacity="0.10"/><rect x="732.8" y="785.0" width="32.1" height="12" fill="#EC1C2D" opacity="0.32"/><rect x="732.8" y="873.2" width="32.1" height="12" fill="#FFFFFF" opacity="0.30"/><rect x="732.8" y="961.4" width="32.1" height="12" fill="#EC1C2D" opacity="0.30"/><rect x="732.8" y="1005.5" width="32.1" height="12" fill="#FFFFFF" opacity="0.25"/><rect x="732.8" y="1049.7" width="32.1" height="12" fill="#FFFFFF" opacity="0.28"/><rect x="732.8" y="1137.9" width="32.1" height="12" fill="#FFFFFF" opacity="0.28"/><rect x="818.9" y="493.7" width="104.3" height="706.3" fill="#000" opacity="0.46"/><rect x="828.9" y="515.7" width="22.8" height="12" fill="#FFFFFF" opacity="0.30"/><rect x="828.9" y="560.1" width="22.8" height="12" fill="#FFFFFF" opacity="0.13"/><rect x="828.9" y="693.4" width="22.8" height="12" fill="#FFFFFF" opacity="0.21"/><rect x="828.9" y="826.6" width="22.8" height="12" fill="#FFFFFF" opacity="0.11"/><rect x="828.9" y="871.1" width="22.8" height="12" fill="#FFFFFF" opacity="0.20"/><rect x="828.9" y="1004.3" width="22.8" height="12" fill="#FFFFFF" opacity="0.19"/><rect x="828.9" y="1048.7" width="22.8" height="12" fill="#FFFFFF" opacity="0.23"/><rect x="828.9" y="1093.2" width="22.8" height="12" fill="#FFFFFF" opacity="0.24"/><rect x="857.0" y="515.7" width="22.8" height="12" fill="#FFFFFF" opacity="0.24"/><rect x="857.0" y="649.0" width="22.8" height="12" fill="#FFFFFF" opacity="0.09"/><rect x="857.0" y="737.8" width="22.8" height="12" fill="#FFFFFF" opacity="0.10"/><rect x="857.0" y="782.2" width="22.8" height="12" fill="#FFFFFF" opacity="0.32"/><rect x="857.0" y="915.5" width="22.8" height="12" fill="#FFFFFF" opacity="0.27"/><rect x="857.0" y="959.9" width="22.8" height="12" fill="#FFFFFF" opacity="0.32"/><rect x="857.0" y="1004.3" width="22.8" height="12" fill="#FFFFFF" opacity="0.06"/><rect x="857.0" y="1048.7" width="22.8" height="12" fill="#FFFFFF" opacity="0.29"/><rect x="857.0" y="1093.2" width="22.8" height="12" fill="#FFFFFF" opacity="0.29"/><rect x="885.1" y="560.1" width="22.8" height="12" fill="#FFFFFF" opacity="0.17"/><rect x="885.1" y="604.5" width="22.8" height="12" fill="#FFFFFF" opacity="0.19"/><rect x="885.1" y="649.0" width="22.8" height="12" fill="#FFFFFF" opacity="0.24"/><rect x="885.1" y="693.4" width="22.8" height="12" fill="#FFFFFF" opacity="0.34"/><rect x="885.1" y="782.2" width="22.8" height="12" fill="#FFFFFF" opacity="0.26"/><rect x="885.1" y="826.6" width="22.8" height="12" fill="#EC1C2D" opacity="0.32"/><rect x="885.1" y="871.1" width="22.8" height="12" fill="#FFFFFF" opacity="0.12"/><rect x="885.1" y="959.9" width="22.8" height="12" fill="#FFFFFF" opacity="0.22"/><rect x="885.1" y="1004.3" width="22.8" height="12" fill="#FFFFFF" opacity="0.15"/><rect x="885.1" y="1048.7" width="22.8" height="12" fill="#EC1C2D" opacity="0.14"/><rect x="885.1" y="1093.2" width="22.8" height="12" fill="#FFFFFF" opacity="0.10"/><rect x="885.1" y="1137.6" width="22.8" height="12" fill="#FFFFFF" opacity="0.08"/><rect x="960.5" y="404.6" width="204.7" height="795.4" fill="#000" opacity="0.50"/><rect x="970.5" y="782.1" width="22.1" height="12" fill="#FFFFFF" opacity="0.32"/><rect x="970.5" y="826.5" width="22.1" height="12" fill="#FFFFFF" opacity="0.10"/><rect x="970.5" y="915.4" width="22.1" height="12" fill="#FFFFFF" opacity="0.20"/><rect x="970.5" y="959.8" width="22.1" height="12" fill="#EC1C2D" opacity="0.13"/><rect x="970.5" y="1004.3" width="22.1" height="12" fill="#FFFFFF" opacity="0.29"/><rect x="970.5" y="1048.7" width="22.1" height="12" fill="#FFFFFF" opacity="0.18"/><rect x="970.5" y="1093.1" width="22.1" height="12" fill="#FFFFFF" opacity="0.27"/><rect x="970.5" y="1137.6" width="22.1" height="12" fill="#FFFFFF" opacity="0.14"/><rect x="1001.2" y="426.6" width="22.1" height="12" fill="#FFFFFF" opacity="0.07"/><rect x="1001.2" y="471.0" width="22.1" height="12" fill="#FFFFFF" opacity="0.28"/><rect x="1001.2" y="559.9" width="22.1" height="12" fill="#EC1C2D" opacity="0.08"/><rect x="1001.2" y="604.3" width="22.1" height="12" fill="#FFFFFF" opacity="0.22"/><rect x="1001.2" y="737.6" width="22.1" height="12" fill="#FFFFFF" opacity="0.09"/><rect x="1001.2" y="782.1" width="22.1" height="12" fill="#FFFFFF" opacity="0.12"/><rect x="1001.2" y="826.5" width="22.1" height="12" fill="#FFFFFF" opacity="0.29"/><rect x="1001.2" y="915.4" width="22.1" height="12" fill="#FFFFFF" opacity="0.25"/><rect x="1001.2" y="959.8" width="22.1" height="12" fill="#FFFFFF" opacity="0.27"/><rect x="1001.2" y="1048.7" width="22.1" height="12" fill="#FFFFFF" opacity="0.20"/><rect x="1001.2" y="1093.1" width="22.1" height="12" fill="#FFFFFF" opacity="0.13"/><rect x="1001.2" y="1137.6" width="22.1" height="12" fill="#FFFFFF" opacity="0.13"/><rect x="1032.0" y="426.6" width="22.1" height="12" fill="#FFFFFF" opacity="0.15"/><rect x="1032.0" y="471.0" width="22.1" height="12" fill="#FFFFFF" opacity="0.27"/><rect x="1032.0" y="515.5" width="22.1" height="12" fill="#FFFFFF" opacity="0.32"/><rect x="1032.0" y="559.9" width="22.1" height="12" fill="#FFFFFF" opacity="0.13"/><rect x="1032.0" y="648.8" width="22.1" height="12" fill="#FFFFFF" opacity="0.24"/><rect x="1032.0" y="693.2" width="22.1" height="12" fill="#EC1C2D" opacity="0.30"/><rect x="1032.0" y="737.6" width="22.1" height="12" fill="#FFFFFF" opacity="0.22"/><rect x="1032.0" y="782.1" width="22.1" height="12" fill="#FFFFFF" opacity="0.21"/><rect x="1032.0" y="870.9" width="22.1" height="12" fill="#FFFFFF" opacity="0.30"/><rect x="1032.0" y="915.4" width="22.1" height="12" fill="#FFFFFF" opacity="0.13"/><rect x="1032.0" y="959.8" width="22.1" height="12" fill="#FFFFFF" opacity="0.30"/><rect x="1032.0" y="1048.7" width="22.1" height="12" fill="#FFFFFF" opacity="0.20"/><rect x="1032.0" y="1093.1" width="22.1" height="12" fill="#FFFFFF" opacity="0.25"/><rect x="1062.8" y="426.6" width="22.1" height="12" fill="#FFFFFF" opacity="0.31"/><rect x="1062.8" y="471.0" width="22.1" height="12" fill="#FFFFFF" opacity="0.21"/><rect x="1062.8" y="515.5" width="22.1" height="12" fill="#EC1C2D" opacity="0.14"/><rect x="1062.8" y="559.9" width="22.1" height="12" fill="#FFFFFF" opacity="0.21"/><rect x="1062.8" y="604.3" width="22.1" height="12" fill="#FFFFFF" opacity="0.11"/><rect x="1062.8" y="648.8" width="22.1" height="12" fill="#FFFFFF" opacity="0.21"/><rect x="1062.8" y="737.6" width="22.1" height="12" fill="#FFFFFF" opacity="0.32"/><rect x="1062.8" y="826.5" width="22.1" height="12" fill="#FFFFFF" opacity="0.10"/><rect x="1062.8" y="870.9" width="22.1" height="12" fill="#FFFFFF" opacity="0.14"/><rect x="1062.8" y="915.4" width="22.1" height="12" fill="#FFFFFF" opacity="0.06"/><rect x="1062.8" y="1004.3" width="22.1" height="12" fill="#FFFFFF" opacity="0.07"/><rect x="1062.8" y="1048.7" width="22.1" height="12" fill="#FFFFFF" opacity="0.23"/><rect x="1062.8" y="1137.6" width="22.1" height="12" fill="#FFFFFF" opacity="0.23"/><rect x="1093.6" y="426.6" width="22.1" height="12" fill="#FFFFFF" opacity="0.08"/><rect x="1093.6" y="471.0" width="22.1" height="12" fill="#EC1C2D" opacity="0.21"/><rect x="1093.6" y="515.5" width="22.1" height="12" fill="#FFFFFF" opacity="0.07"/><rect x="1093.6" y="559.9" width="22.1" height="12" fill="#FFFFFF" opacity="0.20"/><rect x="1093.6" y="648.8" width="22.1" height="12" fill="#FFFFFF" opacity="0.09"/><rect x="1093.6" y="693.2" width="22.1" height="12" fill="#FFFFFF" opacity="0.33"/><rect x="1093.6" y="737.6" width="22.1" height="12" fill="#FFFFFF" opacity="0.26"/><rect x="1093.6" y="782.1" width="22.1" height="12" fill="#FFFFFF" opacity="0.27"/><rect x="1093.6" y="915.4" width="22.1" height="12" fill="#FFFFFF" opacity="0.19"/><rect x="1093.6" y="959.8" width="22.1" height="12" fill="#FFFFFF" opacity="0.10"/><rect x="1093.6" y="1048.7" width="22.1" height="12" fill="#FFFFFF" opacity="0.33"/><rect x="1093.6" y="1137.6" width="22.1" height="12" fill="#FFFFFF" opacity="0.33"/><rect x="1124.4" y="426.6" width="22.1" height="12" fill="#FFFFFF" opacity="0.31"/><rect x="1124.4" y="559.9" width="22.1" height="12" fill="#EC1C2D" opacity="0.07"/><rect x="1124.4" y="648.8" width="22.1" height="12" fill="#FFFFFF" opacity="0.31"/><rect x="1124.4" y="693.2" width="22.1" height="12" fill="#FFFFFF" opacity="0.20"/><rect x="1124.4" y="826.5" width="22.1" height="12" fill="#FFFFFF" opacity="0.27"/><rect x="1124.4" y="915.4" width="22.1" height="12" fill="#EC1C2D" opacity="0.23"/><rect x="1124.4" y="1048.7" width="22.1" height="12" fill="#FFFFFF" opacity="0.24"/><rect x="1124.4" y="1093.1" width="22.1" height="12" fill="#EC1C2D" opacity="0.19"/><rect x="1198.1" y="305.0" width="130.1" height="895.0" fill="#000" opacity="0.22"/><rect x="1208.1" y="372.0" width="31.4" height="12" fill="#EC1C2D" opacity="0.24"/><rect x="1208.1" y="417.0" width="31.4" height="12" fill="#FFFFFF" opacity="0.33"/><rect x="1208.1" y="462.0" width="31.4" height="12" fill="#FFFFFF" opacity="0.23"/><rect x="1208.1" y="597.0" width="31.4" height="12" fill="#FFFFFF" opacity="0.12"/><rect x="1208.1" y="642.0" width="31.4" height="12" fill="#FFFFFF" opacity="0.29"/><rect x="1208.1" y="687.0" width="31.4" height="12" fill="#FFFFFF" opacity="0.11"/><rect x="1208.1" y="732.0" width="31.4" height="12" fill="#FFFFFF" opacity="0.25"/><rect x="1208.1" y="777.0" width="31.4" height="12" fill="#FFFFFF" opacity="0.31"/><rect x="1208.1" y="822.0" width="31.4" height="12" fill="#FFFFFF" opacity="0.25"/><rect x="1208.1" y="867.0" width="31.4" height="12" fill="#FFFFFF" opacity="0.14"/><rect x="1208.1" y="1002.0" width="31.4" height="12" fill="#FFFFFF" opacity="0.18"/><rect x="1208.1" y="1047.0" width="31.4" height="12" fill="#FFFFFF" opacity="0.25"/><rect x="1244.8" y="327.0" width="31.4" height="12" fill="#FFFFFF" opacity="0.19"/><rect x="1244.8" y="372.0" width="31.4" height="12" fill="#FFFFFF" opacity="0.30"/><rect x="1244.8" y="417.0" width="31.4" height="12" fill="#FFFFFF" opacity="0.22"/><rect x="1244.8" y="462.0" width="31.4" height="12" fill="#FFFFFF" opacity="0.15"/><rect x="1244.8" y="597.0" width="31.4" height="12" fill="#EC1C2D" opacity="0.16"/><rect x="1244.8" y="642.0" width="31.4" height="12" fill="#EC1C2D" opacity="0.22"/><rect x="1244.8" y="687.0" width="31.4" height="12" fill="#FFFFFF" opacity="0.14"/><rect x="1244.8" y="732.0" width="31.4" height="12" fill="#FFFFFF" opacity="0.25"/><rect x="1244.8" y="822.0" width="31.4" height="12" fill="#FFFFFF" opacity="0.21"/><rect x="1244.8" y="867.0" width="31.4" height="12" fill="#FFFFFF" opacity="0.27"/><rect x="1244.8" y="912.0" width="31.4" height="12" fill="#EC1C2D" opacity="0.17"/><rect x="1244.8" y="1002.0" width="31.4" height="12" fill="#FFFFFF" opacity="0.32"/><rect x="1244.8" y="1137.0" width="31.4" height="12" fill="#FFFFFF" opacity="0.31"/><rect x="1281.5" y="372.0" width="31.4" height="12" fill="#FFFFFF" opacity="0.20"/><rect x="1281.5" y="417.0" width="31.4" height="12" fill="#FFFFFF" opacity="0.29"/><rect x="1281.5" y="462.0" width="31.4" height="12" fill="#FFFFFF" opacity="0.08"/><rect x="1281.5" y="597.0" width="31.4" height="12" fill="#FFFFFF" opacity="0.16"/><rect x="1281.5" y="642.0" width="31.4" height="12" fill="#EC1C2D" opacity="0.16"/><rect x="1281.5" y="732.0" width="31.4" height="12" fill="#FFFFFF" opacity="0.12"/><rect x="1281.5" y="777.0" width="31.4" height="12" fill="#FFFFFF" opacity="0.24"/><rect x="1281.5" y="867.0" width="31.4" height="12" fill="#FFFFFF" opacity="0.08"/><rect x="1281.5" y="912.0" width="31.4" height="12" fill="#FFFFFF" opacity="0.29"/><rect x="1281.5" y="957.0" width="31.4" height="12" fill="#FFFFFF" opacity="0.11"/><rect x="1281.5" y="1047.0" width="31.4" height="12" fill="#FFFFFF" opacity="0.11"/><rect x="1281.5" y="1092.0" width="31.4" height="12" fill="#FFFFFF" opacity="0.10"/><rect x="1281.5" y="1137.0" width="31.4" height="12" fill="#FFFFFF" opacity="0.14"/><rect x="1350.5" y="382.5" width="120.7" height="817.5" fill="#000" opacity="0.29"/><rect x="1360.5" y="404.5" width="28.2" height="12" fill="#FFFFFF" opacity="0.18"/><rect x="1360.5" y="541.7" width="28.2" height="12" fill="#FFFFFF" opacity="0.24"/><rect x="1360.5" y="587.4" width="28.2" height="12" fill="#FFFFFF" opacity="0.31"/><rect x="1360.5" y="633.2" width="28.2" height="12" fill="#EC1C2D" opacity="0.28"/><rect x="1360.5" y="678.9" width="28.2" height="12" fill="#FFFFFF" opacity="0.07"/><rect x="1360.5" y="770.4" width="28.2" height="12" fill="#FFFFFF" opacity="0.17"/><rect x="1360.5" y="816.1" width="28.2" height="12" fill="#FFFFFF" opacity="0.08"/><rect x="1360.5" y="861.8" width="28.2" height="12" fill="#FFFFFF" opacity="0.30"/><rect x="1360.5" y="907.6" width="28.2" height="12" fill="#FFFFFF" opacity="0.33"/><rect x="1360.5" y="953.3" width="28.2" height="12" fill="#FFFFFF" opacity="0.32"/><rect x="1360.5" y="1044.8" width="28.2" height="12" fill="#FFFFFF" opacity="0.14"/><rect x="1360.5" y="1090.5" width="28.2" height="12" fill="#EC1C2D" opacity="0.17"/><rect x="1360.5" y="1136.3" width="28.2" height="12" fill="#FFFFFF" opacity="0.19"/><rect x="1394.1" y="496.0" width="28.2" height="12" fill="#FFFFFF" opacity="0.10"/><rect x="1394.1" y="541.7" width="28.2" height="12" fill="#FFFFFF" opacity="0.21"/><rect x="1394.1" y="587.4" width="28.2" height="12" fill="#FFFFFF" opacity="0.15"/><rect x="1394.1" y="633.2" width="28.2" height="12" fill="#FFFFFF" opacity="0.12"/><rect x="1394.1" y="678.9" width="28.2" height="12" fill="#FFFFFF" opacity="0.31"/><rect x="1394.1" y="724.6" width="28.2" height="12" fill="#FFFFFF" opacity="0.23"/><rect x="1394.1" y="816.1" width="28.2" height="12" fill="#FFFFFF" opacity="0.20"/><rect x="1394.1" y="861.8" width="28.2" height="12" fill="#FFFFFF" opacity="0.32"/><rect x="1394.1" y="999.1" width="28.2" height="12" fill="#EC1C2D" opacity="0.10"/><rect x="1427.6" y="404.5" width="28.2" height="12" fill="#FFFFFF" opacity="0.22"/><rect x="1427.6" y="541.7" width="28.2" height="12" fill="#FFFFFF" opacity="0.32"/><rect x="1427.6" y="633.2" width="28.2" height="12" fill="#FFFFFF" opacity="0.22"/><rect x="1427.6" y="678.9" width="28.2" height="12" fill="#FFFFFF" opacity="0.31"/><rect x="1427.6" y="770.4" width="28.2" height="12" fill="#FFFFFF" opacity="0.11"/><rect x="1427.6" y="861.8" width="28.2" height="12" fill="#FFFFFF" opacity="0.23"/><rect x="1427.6" y="1090.5" width="28.2" height="12" fill="#FFFFFF" opacity="0.28"/><rect x="1488.5" y="427.1" width="244.3" height="772.9" fill="#000" opacity="0.50"/><rect x="1498.5" y="449.1" width="22.9" height="12" fill="#FFFFFF" opacity="0.17"/><rect x="1498.5" y="540.7" width="22.9" height="12" fill="#FFFFFF" opacity="0.28"/><rect x="1498.5" y="678.1" width="22.9" height="12" fill="#FFFFFF" opacity="0.17"/><rect x="1498.5" y="723.9" width="22.9" height="12" fill="#FFFFFF" opacity="0.12"/><rect x="1498.5" y="815.6" width="22.9" height="12" fill="#FFFFFF" opacity="0.08"/><rect x="1498.5" y="861.4" width="22.9" height="12" fill="#FFFFFF" opacity="0.17"/><rect x="1498.5" y="953.0" width="22.9" height="12" fill="#FFFFFF" opacity="0.07"/><rect x="1498.5" y="998.8" width="22.9" height="12" fill="#FFFFFF" opacity="0.27"/><rect x="1498.5" y="1044.6" width="22.9" height="12" fill="#FFFFFF" opacity="0.21"/><rect x="1498.5" y="1090.4" width="22.9" height="12" fill="#FFFFFF" opacity="0.29"/><rect x="1530.5" y="449.1" width="22.9" height="12" fill="#FFFFFF" opacity="0.18"/><rect x="1530.5" y="494.9" width="22.9" height="12" fill="#FFFFFF" opacity="0.07"/><rect x="1530.5" y="586.5" width="22.9" height="12" fill="#FFFFFF" opacity="0.17"/><rect x="1530.5" y="632.3" width="22.9" height="12" fill="#FFFFFF" opacity="0.13"/><rect x="1530.5" y="769.8" width="22.9" height="12" fill="#FFFFFF" opacity="0.26"/><rect x="1530.5" y="953.0" width="22.9" height="12" fill="#EC1C2D" opacity="0.21"/><rect x="1530.5" y="998.8" width="22.9" height="12" fill="#FFFFFF" opacity="0.29"/><rect x="1530.5" y="1044.6" width="22.9" height="12" fill="#FFFFFF" opacity="0.23"/><rect x="1530.5" y="1136.2" width="22.9" height="12" fill="#FFFFFF" opacity="0.26"/><rect x="1562.5" y="449.1" width="22.9" height="12" fill="#FFFFFF" opacity="0.28"/><rect x="1562.5" y="494.9" width="22.9" height="12" fill="#FFFFFF" opacity="0.17"/><rect x="1562.5" y="540.7" width="22.9" height="12" fill="#FFFFFF" opacity="0.32"/><rect x="1562.5" y="769.8" width="22.9" height="12" fill="#FFFFFF" opacity="0.21"/><rect x="1562.5" y="815.6" width="22.9" height="12" fill="#FFFFFF" opacity="0.13"/><rect x="1562.5" y="861.4" width="22.9" height="12" fill="#FFFFFF" opacity="0.07"/><rect x="1562.5" y="907.2" width="22.9" height="12" fill="#FFFFFF" opacity="0.16"/><rect x="1562.5" y="953.0" width="22.9" height="12" fill="#FFFFFF" opacity="0.06"/><rect x="1562.5" y="998.8" width="22.9" height="12" fill="#FFFFFF" opacity="0.08"/><rect x="1562.5" y="1044.6" width="22.9" height="12" fill="#FFFFFF" opacity="0.31"/><rect x="1562.5" y="1090.4" width="22.9" height="12" fill="#FFFFFF" opacity="0.20"/><rect x="1562.5" y="1136.2" width="22.9" height="12" fill="#FFFFFF" opacity="0.15"/><rect x="1594.6" y="449.1" width="22.9" height="12" fill="#FFFFFF" opacity="0.09"/><rect x="1594.6" y="494.9" width="22.9" height="12" fill="#FFFFFF" opacity="0.28"/><rect x="1594.6" y="540.7" width="22.9" height="12" fill="#FFFFFF" opacity="0.15"/><rect x="1594.6" y="586.5" width="22.9" height="12" fill="#EC1C2D" opacity="0.13"/><rect x="1594.6" y="723.9" width="22.9" height="12" fill="#FFFFFF" opacity="0.11"/><rect x="1594.6" y="769.8" width="22.9" height="12" fill="#FFFFFF" opacity="0.29"/><rect x="1594.6" y="861.4" width="22.9" height="12" fill="#FFFFFF" opacity="0.11"/><rect x="1594.6" y="998.8" width="22.9" height="12" fill="#FFFFFF" opacity="0.28"/><rect x="1594.6" y="1090.4" width="22.9" height="12" fill="#FFFFFF" opacity="0.12"/><rect x="1594.6" y="1136.2" width="22.9" height="12" fill="#EC1C2D" opacity="0.31"/><rect x="1626.6" y="449.1" width="22.9" height="12" fill="#FFFFFF" opacity="0.32"/><rect x="1626.6" y="494.9" width="22.9" height="12" fill="#FFFFFF" opacity="0.30"/><rect x="1626.6" y="540.7" width="22.9" height="12" fill="#EC1C2D" opacity="0.10"/><rect x="1626.6" y="586.5" width="22.9" height="12" fill="#FFFFFF" opacity="0.06"/><rect x="1626.6" y="632.3" width="22.9" height="12" fill="#FFFFFF" opacity="0.10"/><rect x="1626.6" y="678.1" width="22.9" height="12" fill="#FFFFFF" opacity="0.23"/><rect x="1626.6" y="769.8" width="22.9" height="12" fill="#FFFFFF" opacity="0.18"/><rect x="1626.6" y="861.4" width="22.9" height="12" fill="#FFFFFF" opacity="0.08"/><rect x="1626.6" y="907.2" width="22.9" height="12" fill="#FFFFFF" opacity="0.06"/><rect x="1626.6" y="953.0" width="22.9" height="12" fill="#FFFFFF" opacity="0.28"/><rect x="1626.6" y="998.8" width="22.9" height="12" fill="#FFFFFF" opacity="0.32"/><rect x="1626.6" y="1044.6" width="22.9" height="12" fill="#FFFFFF" opacity="0.09"/><rect x="1626.6" y="1090.4" width="22.9" height="12" fill="#FFFFFF" opacity="0.33"/><rect x="1626.6" y="1136.2" width="22.9" height="12" fill="#FFFFFF" opacity="0.20"/><rect x="1658.7" y="449.1" width="22.9" height="12" fill="#FFFFFF" opacity="0.19"/><rect x="1658.7" y="494.9" width="22.9" height="12" fill="#FFFFFF" opacity="0.11"/><rect x="1658.7" y="540.7" width="22.9" height="12" fill="#FFFFFF" opacity="0.30"/><rect x="1658.7" y="678.1" width="22.9" height="12" fill="#FFFFFF" opacity="0.32"/><rect x="1658.7" y="815.6" width="22.9" height="12" fill="#FFFFFF" opacity="0.20"/><rect x="1658.7" y="998.8" width="22.9" height="12" fill="#FFFFFF" opacity="0.27"/><rect x="1658.7" y="1136.2" width="22.9" height="12" fill="#FFFFFF" opacity="0.21"/><rect x="1690.7" y="494.9" width="22.9" height="12" fill="#FFFFFF" opacity="0.12"/><rect x="1690.7" y="586.5" width="22.9" height="12" fill="#FFFFFF" opacity="0.29"/><rect x="1690.7" y="632.3" width="22.9" height="12" fill="#FFFFFF" opacity="0.25"/><rect x="1690.7" y="678.1" width="22.9" height="12" fill="#FFFFFF" opacity="0.24"/><rect x="1690.7" y="723.9" width="22.9" height="12" fill="#FFFFFF" opacity="0.25"/><rect x="1690.7" y="861.4" width="22.9" height="12" fill="#FFFFFF" opacity="0.34"/><rect x="1690.7" y="907.2" width="22.9" height="12" fill="#FFFFFF" opacity="0.28"/><rect x="1690.7" y="1044.6" width="22.9" height="12" fill="#EC1C2D" opacity="0.12"/><rect x="1690.7" y="1090.4" width="22.9" height="12" fill="#FFFFFF" opacity="0.17"/><rect x="1690.7" y="1136.2" width="22.9" height="12" fill="#FFFFFF" opacity="0.30"/>
  <rect width="1600" height="1200" fill="#000000" opacity="0.1"/>
</svg>
