<svg xmlns="http://www.w3.org/2000/svg" viewBox="0 0 1640 800" width="1640" height="800" role="img">
  <defs>
    <linearGradient id="craft" x1="0" y1="0" x2="1" y2="0.4">
      <stop offset="0%" stop-color="#1B4685"/>
      <stop offset="55%" stop-color="#0C1A31"/>
      <stop offset="100%" stop-color="#05080E"/>
    </linearGradient>
  </defs>
  <rect width="1640" height="800" fill="url(#craft)"/>
  <rect x="0.0" y="0" width="29.7" height="800" fill="#FFFFFF" opacity="0.170"/><rect x="26.7" y="0" width="3" height="800" fill="#9AA2DB" opacity="0.407"/><rect x="35.7" y="0" width="29.7" height="800" fill="#FFFFFF" opacity="0.177"/><rect x="62.3" y="0" width="3" height="800" fill="#9AA2DB" opacity="0.422"/><rect x="71.3" y="0" width="29.7" height="800" fill="#FFFFFF" opacity="0.182"/><rect x="98.0" y="0" width="3" height="800" fill="#9AA2DB" opacity="0.433"/><rect x="107.0" y="0" width="29.7" height="800" fill="#FFFFFF" opacity="0.186"/><rect x="133.6" y="0" width="3" height="800" fill="#9AA2DB" opacity="0.442"/><rect x="142.6" y="0" width="29.7" height="800" fill="#FFFFFF" opacity="0.189"/><rect x="169.3" y="0" width="3" height="800" fill="#9AA2DB" opacity="0.448"/><rect x="178.3" y="0" width="29.7" height="800" fill="#FFFFFF" opacity="0.190"/><rect x="204.9" y="0" width="3" height="800" fill="#9AA2DB" opacity="0.450"/><rect x="213.9" y="0" width="29.7" height="800" fill="#FFFFFF" opacity="0.190"/><rect x="240.6" y="0" width="3" height="800" fill="#9AA2DB" opacity="0.449"/><rect x="249.6" y="0" width="29.7" height="800" fill="#FFFFFF" opacity="0.188"/><rect x="276.2" y="0" width="3" height="800" fill="#9AA2DB" opacity="0.445"/><rect x="285.2" y="0" width="29.7" height="800" fill="#FFFFFF" opacity="0.184"/><rect x="311.9" y="0" width="3" height="800" fill="#9AA2DB" opacity="0.438"/><rect x="320.9" y="0" width="29.7" height="800" fill="#FFFFFF" opacity="0.180"/><rect x="347.5" y="0" width="3" height="800" fill="#9AA2DB" opacity="0.427"/><rect x="356.5" y="0" width="29.7" height="800" fill="#FFFFFF" opacity="0.174"/><rect x="383.2" y="0" width="3" height="800" fill="#9AA2DB" opacity="0.414"/><rect x="392.2" y="0" width="29.7" height="800" fill="#FFFFFF" opacity="0.166"/><rect x="418.8" y="0" width="3" height="800" fill="#9AA2DB" opacity="0.398"/><rect x="427.8" y="0" width="29.7" height="800" fill="#FFFFFF" opacity="0.158"/><rect x="454.5" y="0" width="3" height="800" fill="#9AA2DB" opacity="0.379"/><rect x="463.5" y="0" width="29.7" height="800" fill="#FFFFFF" opacity="0.148"/><rect x="490.1" y="0" width="3" height="800" fill="#9AA2DB" opacity="0.358"/><rect x="499.1" y="0" width="29.7" height="800" fill="#FFFFFF" opacity="0.137"/><rect x="525.8" y="0" width="3" height="800" fill="#9AA2DB" opacity="0.334"/><rect x="534.8" y="0" width="29.7" height="800" fill="#FFFFFF" opacity="0.125"/><rect x="561.4" y="0" width="3" height="800" fill="#9AA2DB" opacity="0.308"/><rect x="570.4" y="0" width="29.7" height="800" fill="#FFFFFF" opacity="0.112"/><rect x="597.1" y="0" width="3" height="800" fill="#9AA2DB" opacity="0.280"/><rect x="606.1" y="0" width="29.7" height="800" fill="#FFFFFF" opacity="0.099"/><rect x="632.7" y="0" width="3" height="800" fill="#9AA2DB" opacity="0.251"/><rect x="641.7" y="0" width="29.7" height="800" fill="#FFFFFF" opacity="0.085"/><rect x="668.4" y="0" width="3" height="800" fill="#9AA2DB" opacity="0.220"/><rect x="677.4" y="0" width="29.7" height="800" fill="#FFFFFF" opacity="0.070"/><rect x="704.0" y="0" width="3" height="800" fill="#9AA2DB" opacity="0.188"/><rect x="713.0" y="0" width="29.7" height="800" fill="#FFFFFF" opacity="0.055"/><rect x="739.7" y="0" width="3" height="800" fill="#9AA2DB" opacity="0.155"/><rect x="748.7" y="0" width="29.7" height="800" fill="#FFFFFF" opacity="0.040"/><rect x="775.3" y="0" width="3" height="800" fill="#9AA2DB" opacity="0.122"/><rect x="784.3" y="0" width="29.7" height="800" fill="#FFFFFF" opacity="0.030"/><rect x="811.0" y="0" width="3" height="800" fill="#9AA2DB" opacity="0.100"/><rect x="820.0" y="0" width="29.7" height="800" fill="#FFFFFF" opacity="0.030"/><rect x="846.7" y="0" width="3" height="800" fill="#9AA2DB" opacity="0.100"/><rect x="855.7" y="0" width="29.7" height="800" fill="#FFFFFF" opacity="0.030"/><rect x="882.3" y="0" width="3" height="800" fill="#9AA2DB" opacity="0.100"/><rect x="891.3" y="0" width="29.7" height="800" fill="#FFFFFF" opacity="0.030"/><rect x="918.0" y="0" width="3" height="800" fill="#9AA2DB" opacity="0.100"/><rect x="927.0" y="0" width="29.7" height="800" fill="#FFFFFF" opacity="0.030"/><rect x="953.6" y="0" width="3" height="800" fill="#9AA2DB" opacity="0.100"/><rect x="962.6" y="0" width="29.7" height="800" fill="#FFFFFF" opacity="0.030"/><rect x="989.3" y="0" width="3" height="800" fill="#9AA2DB" opacity="0.100"/><rect x="998.3" y="0" width="29.7" height="800" fill="#FFFFFF" opacity="0.030"/><rect x="1024.9" y="0" width="3" height="800" fill="#9AA2DB" opacity="0.100"/><rect x="1033.9" y="0" width="29.7" height="800" fill="#FFFFFF" opacity="0.030"/><rect x="1060.6" y="0" width="3" height="800" fill="#9AA2DB" opacity="0.100"/><rect x="1069.6" y="0" width="29.7" height="800" fill="#FFFFFF" opacity="0.030"/><rect x="1096.2" y="0" width="3" height="800" fill="#9AA2DB" opacity="0.100"/><rect x="1105.2" y="0" width="29.7" height="800" fill="#FFFFFF" opacity="0.030"/><rect x="1131.9" y="0" width="3" height="800" fill="#9AA2DB" opacity="0.100"/><rect x="1140.9" y="0" width="29.7" height="800" fill="#FFFFFF" opacity="0.030"/><rect x="1167.5" y="0" width="3" height="800" fill="#9AA2DB" opacity="0.100"/><rect x="1176.5" y="0" width="29.7" height="800" fill="#FFFFFF" opacity="0.030"/><rect x="1203.2" y="0" width="3" height="800" fill="#9AA2DB" opacity="0.100"/><rect x="1212.2" y="0" width="29.7" height="800" fill="#FFFFFF" opacity="0.030"/><rect x="1238.8" y="0" width="3" height="800" fill="#9AA2DB" opacity="0.100"/><rect x="1247.8" y="0" width="29.7" height="800" fill="#FFFFFF" opacity="0.030"/><rect x="1274.5" y="0" width="3" height="800" fill="#9AA2DB" opacity="0.100"/><rect x="1283.5" y="0" width="29.7" height="800" fill="#FFFFFF" opacity="0.030"/><rect x="1310.1" y="0" width="3" height="800" fill="#9AA2DB" opacity="0.100"/><rect x="1319.1" y="0" width="29.7" height="800" fill="#FFFFFF" opacity="0.030"/><rect x="1345.8" y="0" width="3" height="800" fill="#9AA2DB" opacity="0.100"/><rect x="1354.8" y="0" width="29.7" height="800" fill="#FFFFFF" opacity="0.030"/><rect x="1381.4" y="0" width="3" height="800" fill="#9AA2DB" opacity="0.100"/><rect x="1390.4" y="0" width="29.7" height="800" fill="#FFFFFF" opacity="0.030"/><rect x="1417.1" y="0" width="3" height="800" fill="#9AA2DB" opacity="0.100"/><rect x="1426.1" y="0" width="29.7" height="800" fill="#FFFFFF" opacity="0.030"/><rect x="1452.7" y="0" width="3" height="800" fill="#9AA2DB" opacity="0.100"/><rect x="1461.7" y="0" width="29.7" height="800" fill="#FFFFFF" opacity="0.030"/><rect x="1488.4" y="0" width="3" height="800" fill="#9AA2DB" opacity="0.100"/><rect x="1497.4" y="0" width="29.7" height="800" fill="#FFFFFF" opacity="0.030"/><rect x="1524.0" y="0" width="3" height="800" fill="#9AA2DB" opacity="0.100"/><rect x="1533.0" y="0" width="29.7" height="800" fill="#FFFFFF" opacity="0.030"/><rect x="1559.7" y="0" width="3" height="800" fill="#9AA2DB" opacity="0.100"/><rect x="1568.7" y="0" width="29.7" height="800" fill="#FFFFFF" opacity="0.030"/><rect x="1595.3" y="0" width="3" height="800" fill="#9AA2DB" opacity="0.100"/><rect x="1604.3" y="0" width="29.7" height="800" fill="#FFFFFF" opacity="0.030"/><rect x="1631.0" y="0" width="3" height="800" fill="#9AA2DB" opacity="0.100"/>
  <rect x="0" y="107.28571428571429" width="1640" height="14" fill="#000000" opacity="0.42"/><rect x="0" y="221.57142857142858" width="1640" height="14" fill="#000000" opacity="0.42"/><rect x="0" y="335.85714285714283" width="1640" height="14" fill="#000000" opacity="0.42"/><rect x="0" y="450.14285714285717" width="1640" height="14" fill="#000000" opacity="0.42"/><rect x="0" y="564.4285714285714" width="1640" height="14" fill="#000000" opacity="0.42"/><rect x="0" y="678.7142857142857" width="1640" height="14" fill="#000000" opacity="0.42"/>
  <rect x="0" y="0" width="1640" height="800" fill="#EC1C2D" opacity="0.05"/>
</svg>
