<svg xmlns="http://www.w3.org/2000/svg" viewBox="0 0 1920 1100" width="1920" height="1100" role="img">
  <defs>
    <linearGradient id="slandownerband" x1="0" y1="0" x2="0" y2="1">
      <stop offset="0%" stop-color="#1B4685"/>
      <stop offset="58%" stop-color="#0B1830"/>
      <stop offset="100%" stop-color="#000000"/>
    </linearGradient>
    <radialGradient id="grlandownerband">
      <stop offset="0%" stop-color="#EC1C2D" stop-opacity="0.8"/>
      <stop offset="100%" stop-color="#EC1C2D" stop-opacity="0"/>
    </radialGradient>
    <radialGradient id="gblandownerband">
      <stop offset="0%" stop-color="#9AA2DB" stop-opacity="0.7"/>
      <stop offset="100%" stop-color="#9AA2DB" stop-opacity="0"/>
    </radialGradient>
  </defs>
  <rect width="1920" height="1100" fill="url(#slandownerband)"/>
  <circle cx="26%" cy="46%" r="30%" fill="url(#gblandownerband)" opacity="0.45"/>
  <rect x="0" y="750.8" width="1920" height="2" fill="#EC1C2D" opacity="0.4"/>
  <rect x="-96.0" y="284.6" width="268.7" height="815.4" fill="#000" opacity="0.31"/><rect x="-86.0" y="352.2" width="26.4" height="12" fill="#FFFFFF" opacity="0.18"/><rect x="-86.0" y="443.5" width="26.4" height="12" fill="#FFFFFF" opacity="0.22"/><rect x="-86.0" y="489.1" width="26.4" height="12" fill="#FFFFFF" opacity="0.13"/><rect x="-86.0" y="534.7" width="26.4" height="12" fill="#FFFFFF" opacity="0.26"/><rect x="-86.0" y="580.3" width="26.4" height="12" fill="#FFFFFF" opacity="0.18"/><rect x="-86.0" y="717.1" width="26.4" height="12" fill="#EC1C2D" opacity="0.18"/><rect x="-86.0" y="762.7" width="26.4" height="12" fill="#FFFFFF" opacity="0.09"/><rect x="-86.0" y="808.3" width="26.4" height="12" fill="#FFFFFF" opacity="0.31"/><rect x="-86.0" y="853.9" width="26.4" height="12" fill="#FFFFFF" opacity="0.10"/><rect x="-86.0" y="945.2" width="26.4" height="12" fill="#FFFFFF" opacity="0.16"/><rect x="-86.0" y="990.8" width="26.4" height="12" fill="#EC1C2D" opacity="0.18"/><rect x="-86.0" y="1036.4" width="26.4" height="12" fill="#FFFFFF" opacity="0.26"/><rect x="-50.5" y="306.6" width="26.4" height="12" fill="#FFFFFF" opacity="0.26"/><rect x="-50.5" y="352.2" width="26.4" height="12" fill="#FFFFFF" opacity="0.08"/><rect x="-50.5" y="489.1" width="26.4" height="12" fill="#FFFFFF" opacity="0.31"/><rect x="-50.5" y="534.7" width="26.4" height="12" fill="#FFFFFF" opacity="0.11"/><rect x="-50.5" y="580.3" width="26.4" height="12" fill="#FFFFFF" opacity="0.14"/><rect x="-50.5" y="625.9" width="26.4" height="12" fill="#FFFFFF" opacity="0.28"/><rect x="-50.5" y="671.5" width="26.4" height="12" fill="#EC1C2D" opacity="0.21"/><rect x="-50.5" y="717.1" width="26.4" height="12" fill="#FFFFFF" opacity="0.21"/><rect x="-50.5" y="762.7" width="26.4" height="12" fill="#FFFFFF" opacity="0.11"/><rect x="-50.5" y="899.6" width="26.4" height="12" fill="#FFFFFF" opacity="0.10"/><rect x="-50.5" y="945.2" width="26.4" height="12" fill="#FFFFFF" opacity="0.22"/><rect x="-50.5" y="990.8" width="26.4" height="12" fill="#FFFFFF" opacity="0.25"/><rect x="-50.5" y="1036.4" width="26.4" height="12" fill="#FFFFFF" opacity="0.15"/><rect x="-14.9" y="306.6" width="26.4" height="12" fill="#FFFFFF" opacity="0.22"/><rect x="-14.9" y="352.2" width="26.4" height="12" fill="#FFFFFF" opacity="0.26"/><rect x="-14.9" y="443.5" width="26.4" height="12" fill="#FFFFFF" opacity="0.18"/><rect x="-14.9" y="489.1" width="26.4" height="12" fill="#FFFFFF" opacity="0.13"/><rect x="-14.9" y="580.3" width="26.4" height="12" fill="#FFFFFF" opacity="0.21"/><rect x="-14.9" y="625.9" width="26.4" height="12" fill="#FFFFFF" opacity="0.10"/><rect x="-14.9" y="671.5" width="26.4" height="12" fill="#FFFFFF" opacity="0.08"/><rect x="-14.9" y="808.3" width="26.4" height="12" fill="#FFFFFF" opacity="0.27"/><rect x="-14.9" y="853.9" width="26.4" height="12" fill="#FFFFFF" opacity="0.21"/><rect x="-14.9" y="899.6" width="26.4" height="12" fill="#FFFFFF" opacity="0.21"/><rect x="-14.9" y="990.8" width="26.4" height="12" fill="#FFFFFF" opacity="0.10"/><rect x="-14.9" y="1036.4" width="26.4" height="12" fill="#FFFFFF" opacity="0.26"/><rect x="20.6" y="306.6" width="26.4" height="12" fill="#FFFFFF" opacity="0.20"/><rect x="20.6" y="397.8" width="26.4" height="12" fill="#EC1C2D" opacity="0.32"/><rect x="20.6" y="443.5" width="26.4" height="12" fill="#FFFFFF" opacity="0.09"/><rect x="20.6" y="489.1" width="26.4" height="12" fill="#FFFFFF" opacity="0.12"/><rect x="20.6" y="534.7" width="26.4" height="12" fill="#EC1C2D" opacity="0.31"/><rect x="20.6" y="580.3" width="26.4" height="12" fill="#EC1C2D" opacity="0.12"/><rect x="20.6" y="625.9" width="26.4" height="12" fill="#FFFFFF" opacity="0.10"/><rect x="20.6" y="717.1" width="26.4" height="12" fill="#FFFFFF" opacity="0.23"/><rect x="20.6" y="762.7" width="26.4" height="12" fill="#FFFFFF" opacity="0.12"/><rect x="20.6" y="808.3" width="26.4" height="12" fill="#FFFFFF" opacity="0.07"/><rect x="20.6" y="853.9" width="26.4" height="12" fill="#FFFFFF" opacity="0.26"/><rect x="20.6" y="899.6" width="26.4" height="12" fill="#FFFFFF" opacity="0.30"/><rect x="20.6" y="1036.4" width="26.4" height="12" fill="#FFFFFF" opacity="0.27"/><rect x="56.1" y="306.6" width="26.4" height="12" fill="#FFFFFF" opacity="0.26"/><rect x="56.1" y="352.2" width="26.4" height="12" fill="#FFFFFF" opacity="0.20"/><rect x="56.1" y="443.5" width="26.4" height="12" fill="#EC1C2D" opacity="0.14"/><rect x="56.1" y="534.7" width="26.4" height="12" fill="#FFFFFF" opacity="0.06"/><rect x="56.1" y="580.3" width="26.4" height="12" fill="#FFFFFF" opacity="0.15"/><rect x="56.1" y="762.7" width="26.4" height="12" fill="#FFFFFF" opacity="0.26"/><rect x="56.1" y="853.9" width="26.4" height="12" fill="#FFFFFF" opacity="0.08"/><rect x="91.6" y="580.3" width="26.4" height="12" fill="#FFFFFF" opacity="0.26"/><rect x="91.6" y="625.9" width="26.4" height="12" fill="#FFFFFF" opacity="0.18"/><rect x="91.6" y="671.5" width="26.4" height="12" fill="#FFFFFF" opacity="0.14"/><rect x="91.6" y="717.1" width="26.4" height="12" fill="#FFFFFF" opacity="0.11"/><rect x="91.6" y="762.7" width="26.4" height="12" fill="#FFFFFF" opacity="0.29"/><rect x="91.6" y="899.6" width="26.4" height="12" fill="#FFFFFF" opacity="0.22"/><rect x="91.6" y="945.2" width="26.4" height="12" fill="#FFFFFF" opacity="0.23"/><rect x="91.6" y="990.8" width="26.4" height="12" fill="#FFFFFF" opacity="0.13"/><rect x="91.6" y="1036.4" width="26.4" height="12" fill="#EC1C2D" opacity="0.19"/><rect x="127.2" y="352.2" width="26.4" height="12" fill="#FFFFFF" opacity="0.14"/><rect x="127.2" y="489.1" width="26.4" height="12" fill="#FFFFFF" opacity="0.11"/><rect x="127.2" y="534.7" width="26.4" height="12" fill="#FFFFFF" opacity="0.08"/><rect x="127.2" y="580.3" width="26.4" height="12" fill="#FFFFFF" opacity="0.17"/><rect x="127.2" y="671.5" width="26.4" height="12" fill="#FFFFFF" opacity="0.20"/><rect x="127.2" y="762.7" width="26.4" height="12" fill="#FFFFFF" opacity="0.20"/><rect x="127.2" y="808.3" width="26.4" height="12" fill="#FFFFFF" opacity="0.26"/><rect x="127.2" y="853.9" width="26.4" height="12" fill="#FFFFFF" opacity="0.33"/><rect x="127.2" y="1036.4" width="26.4" height="12" fill="#FFFFFF" opacity="0.06"/><rect x="196.2" y="235.2" width="257.5" height="864.8" fill="#000" opacity="0.21"/><rect x="206.2" y="257.2" width="24.8" height="12" fill="#FFFFFF" opacity="0.09"/><rect x="206.2" y="303.0" width="24.8" height="12" fill="#FFFFFF" opacity="0.31"/><rect x="206.2" y="348.9" width="24.8" height="12" fill="#FFFFFF" opacity="0.25"/><rect x="206.2" y="532.1" width="24.8" height="12" fill="#FFFFFF" opacity="0.13"/><rect x="206.2" y="578.0" width="24.8" height="12" fill="#FFFFFF" opacity="0.25"/><rect x="206.2" y="623.8" width="24.8" height="12" fill="#FFFFFF" opacity="0.22"/><rect x="206.2" y="669.6" width="24.8" height="12" fill="#EC1C2D" opacity="0.31"/><rect x="206.2" y="807.1" width="24.8" height="12" fill="#FFFFFF" opacity="0.18"/><rect x="206.2" y="898.7" width="24.8" height="12" fill="#FFFFFF" opacity="0.13"/><rect x="206.2" y="1036.2" width="24.8" height="12" fill="#EC1C2D" opacity="0.30"/><rect x="240.1" y="257.2" width="24.8" height="12" fill="#FFFFFF" opacity="0.08"/><rect x="240.1" y="348.9" width="24.8" height="12" fill="#FFFFFF" opacity="0.30"/><rect x="240.1" y="394.7" width="24.8" height="12" fill="#FFFFFF" opacity="0.13"/><rect x="240.1" y="440.5" width="24.8" height="12" fill="#FFFFFF" opacity="0.12"/><rect x="240.1" y="623.8" width="24.8" height="12" fill="#FFFFFF" opacity="0.11"/><rect x="240.1" y="669.6" width="24.8" height="12" fill="#FFFFFF" opacity="0.30"/><rect x="240.1" y="715.4" width="24.8" height="12" fill="#FFFFFF" opacity="0.20"/><rect x="240.1" y="807.1" width="24.8" height="12" fill="#FFFFFF" opacity="0.25"/><rect x="240.1" y="852.9" width="24.8" height="12" fill="#FFFFFF" opacity="0.21"/><rect x="240.1" y="898.7" width="24.8" height="12" fill="#FFFFFF" opacity="0.20"/><rect x="240.1" y="944.5" width="24.8" height="12" fill="#FFFFFF" opacity="0.30"/><rect x="240.1" y="1036.2" width="24.8" height="12" fill="#FFFFFF" opacity="0.12"/><rect x="274.1" y="532.1" width="24.8" height="12" fill="#FFFFFF" opacity="0.09"/><rect x="274.1" y="578.0" width="24.8" height="12" fill="#FFFFFF" opacity="0.12"/><rect x="274.1" y="669.6" width="24.8" height="12" fill="#FFFFFF" opacity="0.17"/><rect x="274.1" y="715.4" width="24.8" height="12" fill="#FFFFFF" opacity="0.29"/><rect x="274.1" y="807.1" width="24.8" height="12" fill="#FFFFFF" opacity="0.29"/><rect x="274.1" y="852.9" width="24.8" height="12" fill="#FFFFFF" opacity="0.23"/><rect x="274.1" y="898.7" width="24.8" height="12" fill="#FFFFFF" opacity="0.16"/><rect x="274.1" y="944.5" width="24.8" height="12" fill="#FFFFFF" opacity="0.12"/><rect x="274.1" y="990.4" width="24.8" height="12" fill="#FFFFFF" opacity="0.31"/><rect x="274.1" y="1036.2" width="24.8" height="12" fill="#FFFFFF" opacity="0.09"/><rect x="308.0" y="394.7" width="24.8" height="12" fill="#FFFFFF" opacity="0.12"/><rect x="308.0" y="486.3" width="24.8" height="12" fill="#FFFFFF" opacity="0.20"/><rect x="308.0" y="532.1" width="24.8" height="12" fill="#FFFFFF" opacity="0.20"/><rect x="308.0" y="578.0" width="24.8" height="12" fill="#EC1C2D" opacity="0.30"/><rect x="308.0" y="623.8" width="24.8" height="12" fill="#FFFFFF" opacity="0.15"/><rect x="308.0" y="715.4" width="24.8" height="12" fill="#FFFFFF" opacity="0.23"/><rect x="308.0" y="761.3" width="24.8" height="12" fill="#EC1C2D" opacity="0.25"/><rect x="308.0" y="898.7" width="24.8" height="12" fill="#FFFFFF" opacity="0.07"/><rect x="308.0" y="990.4" width="24.8" height="12" fill="#FFFFFF" opacity="0.28"/><rect x="341.9" y="303.0" width="24.8" height="12" fill="#FFFFFF" opacity="0.23"/><rect x="341.9" y="394.7" width="24.8" height="12" fill="#FFFFFF" opacity="0.33"/><rect x="341.9" y="486.3" width="24.8" height="12" fill="#FFFFFF" opacity="0.32"/><rect x="341.9" y="532.1" width="24.8" height="12" fill="#FFFFFF" opacity="0.20"/><rect x="341.9" y="578.0" width="24.8" height="12" fill="#FFFFFF" opacity="0.33"/><rect x="341.9" y="623.8" width="24.8" height="12" fill="#EC1C2D" opacity="0.25"/><rect x="341.9" y="669.6" width="24.8" height="12" fill="#FFFFFF" opacity="0.11"/><rect x="341.9" y="715.4" width="24.8" height="12" fill="#FFFFFF" opacity="0.20"/><rect x="341.9" y="761.3" width="24.8" height="12" fill="#FFFFFF" opacity="0.17"/><rect x="341.9" y="807.1" width="24.8" height="12" fill="#FFFFFF" opacity="0.22"/><rect x="341.9" y="852.9" width="24.8" height="12" fill="#EC1C2D" opacity="0.21"/><rect x="341.9" y="898.7" width="24.8" height="12" fill="#FFFFFF" opacity="0.32"/><rect x="341.9" y="990.4" width="24.8" height="12" fill="#FFFFFF" opacity="0.33"/><rect x="375.8" y="348.9" width="24.8" height="12" fill="#FFFFFF" opacity="0.08"/><rect x="375.8" y="394.7" width="24.8" height="12" fill="#FFFFFF" opacity="0.28"/><rect x="375.8" y="440.5" width="24.8" height="12" fill="#FFFFFF" opacity="0.18"/><rect x="375.8" y="486.3" width="24.8" height="12" fill="#EC1C2D" opacity="0.14"/><rect x="375.8" y="578.0" width="24.8" height="12" fill="#FFFFFF" opacity="0.28"/><rect x="375.8" y="623.8" width="24.8" height="12" fill="#FFFFFF" opacity="0.25"/><rect x="375.8" y="669.6" width="24.8" height="12" fill="#FFFFFF" opacity="0.29"/><rect x="375.8" y="715.4" width="24.8" height="12" fill="#FFFFFF" opacity="0.21"/><rect x="375.8" y="761.3" width="24.8" height="12" fill="#FFFFFF" opacity="0.23"/><rect x="375.8" y="807.1" width="24.8" height="12" fill="#FFFFFF" opacity="0.13"/><rect x="375.8" y="852.9" width="24.8" height="12" fill="#FFFFFF" opacity="0.33"/><rect x="375.8" y="990.4" width="24.8" height="12" fill="#FFFFFF" opacity="0.32"/><rect x="375.8" y="1036.2" width="24.8" height="12" fill="#FFFFFF" opacity="0.31"/><rect x="409.8" y="257.2" width="24.8" height="12" fill="#FFFFFF" opacity="0.10"/><rect x="409.8" y="348.9" width="24.8" height="12" fill="#FFFFFF" opacity="0.14"/><rect x="409.8" y="440.5" width="24.8" height="12" fill="#FFFFFF" opacity="0.26"/><rect x="409.8" y="578.0" width="24.8" height="12" fill="#FFFFFF" opacity="0.27"/><rect x="409.8" y="669.6" width="24.8" height="12" fill="#EC1C2D" opacity="0.09"/><rect x="409.8" y="807.1" width="24.8" height="12" fill="#FFFFFF" opacity="0.16"/><rect x="409.8" y="898.7" width="24.8" height="12" fill="#FFFFFF" opacity="0.10"/><rect x="409.8" y="944.5" width="24.8" height="12" fill="#FFFFFF" opacity="0.15"/><rect x="506.0" y="592.4" width="190.9" height="507.6" fill="#000" opacity="0.21"/><rect x="516.0" y="699.4" width="26.2" height="12" fill="#FFFFFF" opacity="0.23"/><rect x="516.0" y="741.9" width="26.2" height="12" fill="#FFFFFF" opacity="0.22"/><rect x="516.0" y="784.4" width="26.2" height="12" fill="#FFFFFF" opacity="0.09"/><rect x="516.0" y="826.9" width="26.2" height="12" fill="#FFFFFF" opacity="0.17"/><rect x="516.0" y="869.4" width="26.2" height="12" fill="#FFFFFF" opacity="0.14"/><rect x="516.0" y="954.5" width="26.2" height="12" fill="#FFFFFF" opacity="0.25"/><rect x="516.0" y="997.0" width="26.2" height="12" fill="#FFFFFF" opacity="0.15"/><rect x="550.1" y="784.4" width="26.2" height="12" fill="#EC1C2D" opacity="0.12"/><rect x="550.1" y="826.9" width="26.2" height="12" fill="#FFFFFF" opacity="0.26"/><rect x="550.1" y="911.9" width="26.2" height="12" fill="#EC1C2D" opacity="0.12"/><rect x="584.3" y="614.4" width="26.2" height="12" fill="#FFFFFF" opacity="0.20"/><rect x="584.3" y="656.9" width="26.2" height="12" fill="#FFFFFF" opacity="0.32"/><rect x="584.3" y="699.4" width="26.2" height="12" fill="#FFFFFF" opacity="0.30"/><rect x="584.3" y="741.9" width="26.2" height="12" fill="#FFFFFF" opacity="0.20"/><rect x="584.3" y="826.9" width="26.2" height="12" fill="#FFFFFF" opacity="0.16"/><rect x="584.3" y="869.4" width="26.2" height="12" fill="#EC1C2D" opacity="0.27"/><rect x="584.3" y="954.5" width="26.2" height="12" fill="#FFFFFF" opacity="0.14"/><rect x="584.3" y="997.0" width="26.2" height="12" fill="#FFFFFF" opacity="0.16"/><rect x="618.5" y="614.4" width="26.2" height="12" fill="#FFFFFF" opacity="0.30"/><rect x="618.5" y="656.9" width="26.2" height="12" fill="#FFFFFF" opacity="0.23"/><rect x="618.5" y="699.4" width="26.2" height="12" fill="#FFFFFF" opacity="0.25"/><rect x="618.5" y="741.9" width="26.2" height="12" fill="#EC1C2D" opacity="0.21"/><rect x="618.5" y="784.4" width="26.2" height="12" fill="#FFFFFF" opacity="0.26"/><rect x="618.5" y="869.4" width="26.2" height="12" fill="#FFFFFF" opacity="0.16"/><rect x="618.5" y="911.9" width="26.2" height="12" fill="#FFFFFF" opacity="0.25"/><rect x="618.5" y="954.5" width="26.2" height="12" fill="#FFFFFF" opacity="0.26"/><rect x="652.7" y="614.4" width="26.2" height="12" fill="#EC1C2D" opacity="0.17"/><rect x="652.7" y="656.9" width="26.2" height="12" fill="#FFFFFF" opacity="0.32"/><rect x="652.7" y="699.4" width="26.2" height="12" fill="#FFFFFF" opacity="0.09"/><rect x="652.7" y="741.9" width="26.2" height="12" fill="#FFFFFF" opacity="0.19"/><rect x="652.7" y="826.9" width="26.2" height="12" fill="#FFFFFF" opacity="0.19"/><rect x="652.7" y="869.4" width="26.2" height="12" fill="#FFFFFF" opacity="0.17"/><rect x="652.7" y="911.9" width="26.2" height="12" fill="#FFFFFF" opacity="0.24"/><rect x="652.7" y="954.5" width="26.2" height="12" fill="#FFFFFF" opacity="0.18"/><rect x="652.7" y="997.0" width="26.2" height="12" fill="#FFFFFF" opacity="0.09"/><rect x="652.7" y="1039.5" width="26.2" height="12" fill="#FFFFFF" opacity="0.21"/><rect x="720.1" y="514.3" width="129.7" height="585.7" fill="#000" opacity="0.25"/><rect x="730.1" y="672.7" width="31.2" height="12" fill="#FFFFFF" opacity="0.33"/><rect x="730.1" y="718.2" width="31.2" height="12" fill="#FFFFFF" opacity="0.32"/><rect x="730.1" y="900.1" width="31.2" height="12" fill="#FFFFFF" opacity="0.25"/><rect x="730.1" y="1036.5" width="31.2" height="12" fill="#FFFFFF" opacity="0.32"/><rect x="766.6" y="627.2" width="31.2" height="12" fill="#FFFFFF" opacity="0.21"/><rect x="766.6" y="672.7" width="31.2" height="12" fill="#FFFFFF" opacity="0.11"/><rect x="766.6" y="900.1" width="31.2" height="12" fill="#EC1C2D" opacity="0.07"/><rect x="766.6" y="945.6" width="31.2" height="12" fill="#FFFFFF" opacity="0.32"/><rect x="766.6" y="991.0" width="31.2" height="12" fill="#EC1C2D" opacity="0.27"/><rect x="766.6" y="1036.5" width="31.2" height="12" fill="#FFFFFF" opacity="0.26"/><rect x="803.2" y="536.3" width="31.2" height="12" fill="#FFFFFF" opacity="0.14"/><rect x="803.2" y="581.7" width="31.2" height="12" fill="#FFFFFF" opacity="0.30"/><rect x="803.2" y="627.2" width="31.2" height="12" fill="#FFFFFF" opacity="0.32"/><rect x="803.2" y="672.7" width="31.2" height="12" fill="#FFFFFF" opacity="0.06"/><rect x="803.2" y="718.2" width="31.2" height="12" fill="#EC1C2D" opacity="0.12"/><rect x="803.2" y="763.7" width="31.2" height="12" fill="#FFFFFF" opacity="0.17"/><rect x="803.2" y="809.1" width="31.2" height="12" fill="#FFFFFF" opacity="0.26"/><rect x="803.2" y="1036.5" width="31.2" height="12" fill="#FFFFFF" opacity="0.29"/><rect x="896.9" y="250.1" width="294.0" height="849.9" fill="#000" opacity="0.48"/><rect x="906.9" y="272.1" width="24.7" height="12" fill="#FFFFFF" opacity="0.25"/><rect x="906.9" y="407.1" width="24.7" height="12" fill="#FFFFFF" opacity="0.30"/><rect x="906.9" y="452.1" width="24.7" height="12" fill="#FFFFFF" opacity="0.22"/><rect x="906.9" y="497.1" width="24.7" height="12" fill="#FFFFFF" opacity="0.16"/><rect x="906.9" y="542.1" width="24.7" height="12" fill="#EC1C2D" opacity="0.27"/><rect x="906.9" y="632.0" width="24.7" height="12" fill="#FFFFFF" opacity="0.10"/><rect x="906.9" y="677.0" width="24.7" height="12" fill="#FFFFFF" opacity="0.22"/><rect x="906.9" y="767.0" width="24.7" height="12" fill="#FFFFFF" opacity="0.18"/><rect x="906.9" y="812.0" width="24.7" height="12" fill="#FFFFFF" opacity="0.10"/><rect x="906.9" y="947.0" width="24.7" height="12" fill="#FFFFFF" opacity="0.18"/><rect x="906.9" y="1037.0" width="24.7" height="12" fill="#FFFFFF" opacity="0.17"/><rect x="941.2" y="317.1" width="24.7" height="12" fill="#FFFFFF" opacity="0.20"/><rect x="941.2" y="452.1" width="24.7" height="12" fill="#FFFFFF" opacity="0.26"/><rect x="941.2" y="542.1" width="24.7" height="12" fill="#FFFFFF" opacity="0.15"/><rect x="941.2" y="677.0" width="24.7" height="12" fill="#FFFFFF" opacity="0.23"/><rect x="941.2" y="767.0" width="24.7" height="12" fill="#FFFFFF" opacity="0.22"/><rect x="941.2" y="902.0" width="24.7" height="12" fill="#FFFFFF" opacity="0.29"/><rect x="941.2" y="947.0" width="24.7" height="12" fill="#FFFFFF" opacity="0.08"/><rect x="941.2" y="1037.0" width="24.7" height="12" fill="#FFFFFF" opacity="0.13"/><rect x="975.4" y="272.1" width="24.7" height="12" fill="#FFFFFF" opacity="0.14"/><rect x="975.4" y="317.1" width="24.7" height="12" fill="#FFFFFF" opacity="0.08"/><rect x="975.4" y="362.1" width="24.7" height="12" fill="#FFFFFF" opacity="0.22"/><rect x="975.4" y="407.1" width="24.7" height="12" fill="#FFFFFF" opacity="0.11"/><rect x="975.4" y="452.1" width="24.7" height="12" fill="#FFFFFF" opacity="0.17"/><rect x="975.4" y="497.1" width="24.7" height="12" fill="#FFFFFF" opacity="0.14"/><rect x="975.4" y="542.1" width="24.7" height="12" fill="#FFFFFF" opacity="0.20"/><rect x="975.4" y="587.1" width="24.7" height="12" fill="#FFFFFF" opacity="0.34"/><rect x="975.4" y="632.0" width="24.7" height="12" fill="#FFFFFF" opacity="0.29"/><rect x="975.4" y="677.0" width="24.7" height="12" fill="#FFFFFF" opacity="0.32"/><rect x="975.4" y="767.0" width="24.7" height="12" fill="#FFFFFF" opacity="0.07"/><rect x="975.4" y="812.0" width="24.7" height="12" fill="#FFFFFF" opacity="0.26"/><rect x="975.4" y="857.0" width="24.7" height="12" fill="#FFFFFF" opacity="0.13"/><rect x="1009.6" y="272.1" width="24.7" height="12" fill="#FFFFFF" opacity="0.10"/><rect x="1009.6" y="317.1" width="24.7" height="12" fill="#EC1C2D" opacity="0.25"/><rect x="1009.6" y="407.1" width="24.7" height="12" fill="#FFFFFF" opacity="0.21"/><rect x="1009.6" y="452.1" width="24.7" height="12" fill="#FFFFFF" opacity="0.23"/><rect x="1009.6" y="497.1" width="24.7" height="12" fill="#FFFFFF" opacity="0.14"/><rect x="1009.6" y="542.1" width="24.7" height="12" fill="#FFFFFF" opacity="0.28"/><rect x="1009.6" y="587.1" width="24.7" height="12" fill="#FFFFFF" opacity="0.11"/><rect x="1009.6" y="812.0" width="24.7" height="12" fill="#FFFFFF" opacity="0.24"/><rect x="1009.6" y="857.0" width="24.7" height="12" fill="#FFFFFF" opacity="0.15"/><rect x="1009.6" y="902.0" width="24.7" height="12" fill="#FFFFFF" opacity="0.31"/><rect x="1009.6" y="947.0" width="24.7" height="12" fill="#FFFFFF" opacity="0.34"/><rect x="1009.6" y="1037.0" width="24.7" height="12" fill="#FFFFFF" opacity="0.12"/><rect x="1043.9" y="317.1" width="24.7" height="12" fill="#FFFFFF" opacity="0.15"/><rect x="1043.9" y="362.1" width="24.7" height="12" fill="#FFFFFF" opacity="0.15"/><rect x="1043.9" y="407.1" width="24.7" height="12" fill="#FFFFFF" opacity="0.13"/><rect x="1043.9" y="587.1" width="24.7" height="12" fill="#FFFFFF" opacity="0.33"/><rect x="1043.9" y="812.0" width="24.7" height="12" fill="#EC1C2D" opacity="0.09"/><rect x="1043.9" y="857.0" width="24.7" height="12" fill="#FFFFFF" opacity="0.22"/><rect x="1043.9" y="902.0" width="24.7" height="12" fill="#FFFFFF" opacity="0.25"/><rect x="1043.9" y="947.0" width="24.7" height="12" fill="#FFFFFF" opacity="0.10"/><rect x="1043.9" y="992.0" width="24.7" height="12" fill="#EC1C2D" opacity="0.32"/><rect x="1043.9" y="1037.0" width="24.7" height="12" fill="#FFFFFF" opacity="0.09"/><rect x="1078.1" y="272.1" width="24.7" height="12" fill="#FFFFFF" opacity="0.19"/><rect x="1078.1" y="317.1" width="24.7" height="12" fill="#FFFFFF" opacity="0.14"/><rect x="1078.1" y="362.1" width="24.7" height="12" fill="#FFFFFF" opacity="0.09"/><rect x="1078.1" y="407.1" width="24.7" height="12" fill="#FFFFFF" opacity="0.14"/><rect x="1078.1" y="497.1" width="24.7" height="12" fill="#FFFFFF" opacity="0.23"/><rect x="1078.1" y="632.0" width="24.7" height="12" fill="#FFFFFF" opacity="0.20"/><rect x="1078.1" y="677.0" width="24.7" height="12" fill="#FFFFFF" opacity="0.30"/><rect x="1078.1" y="722.0" width="24.7" height="12" fill="#EC1C2D" opacity="0.25"/><rect x="1078.1" y="812.0" width="24.7" height="12" fill="#FFFFFF" opacity="0.20"/><rect x="1078.1" y="902.0" width="24.7" height="12" fill="#FFFFFF" opacity="0.30"/><rect x="1078.1" y="992.0" width="24.7" height="12" fill="#FFFFFF" opacity="0.27"/><rect x="1078.1" y="1037.0" width="24.7" height="12" fill="#FFFFFF" opacity="0.27"/><rect x="1112.4" y="362.1" width="24.7" height="12" fill="#FFFFFF" opacity="0.30"/><rect x="1112.4" y="407.1" width="24.7" height="12" fill="#FFFFFF" opacity="0.23"/><rect x="1112.4" y="542.1" width="24.7" height="12" fill="#FFFFFF" opacity="0.32"/><rect x="1112.4" y="587.1" width="24.7" height="12" fill="#FFFFFF" opacity="0.26"/><rect x="1112.4" y="632.0" width="24.7" height="12" fill="#FFFFFF" opacity="0.31"/><rect x="1112.4" y="722.0" width="24.7" height="12" fill="#FFFFFF" opacity="0.14"/><rect x="1112.4" y="812.0" width="24.7" height="12" fill="#FFFFFF" opacity="0.12"/><rect x="1112.4" y="992.0" width="24.7" height="12" fill="#FFFFFF" opacity="0.10"/><rect x="1146.6" y="317.1" width="24.7" height="12" fill="#FFFFFF" opacity="0.33"/><rect x="1146.6" y="452.1" width="24.7" height="12" fill="#FFFFFF" opacity="0.27"/><rect x="1146.6" y="542.1" width="24.7" height="12" fill="#FFFFFF" opacity="0.08"/><rect x="1146.6" y="587.1" width="24.7" height="12" fill="#FFFFFF" opacity="0.33"/><rect x="1146.6" y="722.0" width="24.7" height="12" fill="#FFFFFF" opacity="0.16"/><rect x="1146.6" y="812.0" width="24.7" height="12" fill="#FFFFFF" opacity="0.27"/><rect x="1146.6" y="902.0" width="24.7" height="12" fill="#FFFFFF" opacity="0.27"/><rect x="1146.6" y="947.0" width="24.7" height="12" fill="#FFFFFF" opacity="0.21"/><rect x="1146.6" y="992.0" width="24.7" height="12" fill="#FFFFFF" opacity="0.27"/><rect x="1207.9" y="551.9" width="120.2" height="548.1" fill="#000" opacity="0.47"/><rect x="1217.9" y="573.9" width="28.1" height="12" fill="#FFFFFF" opacity="0.22"/><rect x="1217.9" y="620.1" width="28.1" height="12" fill="#FFFFFF" opacity="0.18"/><rect x="1217.9" y="712.4" width="28.1" height="12" fill="#FFFFFF" opacity="0.26"/><rect x="1217.9" y="804.8" width="28.1" height="12" fill="#FFFFFF" opacity="0.06"/><rect x="1217.9" y="943.4" width="28.1" height="12" fill="#FFFFFF" opacity="0.30"/><rect x="1217.9" y="1035.8" width="28.1" height="12" fill="#FFFFFF" opacity="0.09"/><rect x="1251.3" y="620.1" width="28.1" height="12" fill="#FFFFFF" opacity="0.10"/><rect x="1251.3" y="666.2" width="28.1" height="12" fill="#FFFFFF" opacity="0.18"/><rect x="1251.3" y="712.4" width="28.1" height="12" fill="#EC1C2D" opacity="0.26"/><rect x="1251.3" y="758.6" width="28.1" height="12" fill="#FFFFFF" opacity="0.27"/><rect x="1251.3" y="851.0" width="28.1" height="12" fill="#EC1C2D" opacity="0.15"/><rect x="1251.3" y="897.2" width="28.1" height="12" fill="#EC1C2D" opacity="0.31"/><rect x="1251.3" y="943.4" width="28.1" height="12" fill="#EC1C2D" opacity="0.33"/><rect x="1251.3" y="989.6" width="28.1" height="12" fill="#FFFFFF" opacity="0.34"/><rect x="1251.3" y="1035.8" width="28.1" height="12" fill="#FFFFFF" opacity="0.16"/><rect x="1284.6" y="620.1" width="28.1" height="12" fill="#EC1C2D" opacity="0.15"/><rect x="1284.6" y="851.0" width="28.1" height="12" fill="#FFFFFF" opacity="0.28"/><rect x="1284.6" y="943.4" width="28.1" height="12" fill="#FFFFFF" opacity="0.30"/><rect x="1284.6" y="989.6" width="28.1" height="12" fill="#FFFFFF" opacity="0.25"/><rect x="1284.6" y="1035.8" width="28.1" height="12" fill="#FFFFFF" opacity="0.14"/><rect x="1374.3" y="346.7" width="130.1" height="753.3" fill="#000" opacity="0.29"/><rect x="1384.3" y="413.3" width="31.4" height="12" fill="#FFFFFF" opacity="0.31"/><rect x="1384.3" y="457.9" width="31.4" height="12" fill="#FFFFFF" opacity="0.30"/><rect x="1384.3" y="547.0" width="31.4" height="12" fill="#FFFFFF" opacity="0.12"/><rect x="1384.3" y="636.2" width="31.4" height="12" fill="#FFFFFF" opacity="0.29"/><rect x="1384.3" y="725.3" width="31.4" height="12" fill="#FFFFFF" opacity="0.22"/><rect x="1384.3" y="769.9" width="31.4" height="12" fill="#FFFFFF" opacity="0.15"/><rect x="1384.3" y="814.5" width="31.4" height="12" fill="#FFFFFF" opacity="0.22"/><rect x="1384.3" y="1037.4" width="31.4" height="12" fill="#FFFFFF" opacity="0.15"/><rect x="1421.0" y="368.7" width="31.4" height="12" fill="#FFFFFF" opacity="0.19"/><rect x="1421.0" y="413.3" width="31.4" height="12" fill="#FFFFFF" opacity="0.16"/><rect x="1421.0" y="457.9" width="31.4" height="12" fill="#EC1C2D" opacity="0.18"/><rect x="1421.0" y="547.0" width="31.4" height="12" fill="#FFFFFF" opacity="0.26"/><rect x="1421.0" y="591.6" width="31.4" height="12" fill="#FFFFFF" opacity="0.33"/><rect x="1421.0" y="636.2" width="31.4" height="12" fill="#FFFFFF" opacity="0.19"/><rect x="1421.0" y="680.8" width="31.4" height="12" fill="#FFFFFF" opacity="0.13"/><rect x="1421.0" y="725.3" width="31.4" height="12" fill="#FFFFFF" opacity="0.08"/><rect x="1421.0" y="769.9" width="31.4" height="12" fill="#FFFFFF" opacity="0.11"/><rect x="1421.0" y="814.5" width="31.4" height="12" fill="#FFFFFF" opacity="0.20"/><rect x="1421.0" y="859.1" width="31.4" height="12" fill="#EC1C2D" opacity="0.12"/><rect x="1421.0" y="903.7" width="31.4" height="12" fill="#EC1C2D" opacity="0.27"/><rect x="1421.0" y="948.3" width="31.4" height="12" fill="#FFFFFF" opacity="0.18"/><rect x="1421.0" y="1037.4" width="31.4" height="12" fill="#FFFFFF" opacity="0.22"/><rect x="1457.7" y="368.7" width="31.4" height="12" fill="#FFFFFF" opacity="0.18"/><rect x="1457.7" y="502.4" width="31.4" height="12" fill="#FFFFFF" opacity="0.33"/><rect x="1457.7" y="591.6" width="31.4" height="12" fill="#FFFFFF" opacity="0.10"/><rect x="1457.7" y="636.2" width="31.4" height="12" fill="#FFFFFF" opacity="0.31"/><rect x="1457.7" y="680.8" width="31.4" height="12" fill="#EC1C2D" opacity="0.08"/><rect x="1457.7" y="725.3" width="31.4" height="12" fill="#FFFFFF" opacity="0.30"/><rect x="1457.7" y="814.5" width="31.4" height="12" fill="#FFFFFF" opacity="0.16"/><rect x="1457.7" y="859.1" width="31.4" height="12" fill="#FFFFFF" opacity="0.16"/><rect x="1457.7" y="948.3" width="31.4" height="12" fill="#FFFFFF" opacity="0.10"/><rect x="1457.7" y="992.8" width="31.4" height="12" fill="#EC1C2D" opacity="0.17"/><rect x="1457.7" y="1037.4" width="31.4" height="12" fill="#FFFFFF" opacity="0.16"/><rect x="1551.6" y="503.3" width="136.5" height="596.7" fill="#000" opacity="0.35"/><rect x="1561.6" y="571.7" width="22.1" height="12" fill="#FFFFFF" opacity="0.32"/><rect x="1561.6" y="618.1" width="22.1" height="12" fill="#FFFFFF" opacity="0.19"/><rect x="1561.6" y="664.5" width="22.1" height="12" fill="#FFFFFF" opacity="0.13"/><rect x="1561.6" y="710.9" width="22.1" height="12" fill="#FFFFFF" opacity="0.28"/><rect x="1561.6" y="850.0" width="22.1" height="12" fill="#FFFFFF" opacity="0.24"/><rect x="1561.6" y="896.4" width="22.1" height="12" fill="#FFFFFF" opacity="0.33"/><rect x="1561.6" y="942.8" width="22.1" height="12" fill="#FFFFFF" opacity="0.15"/><rect x="1561.6" y="989.2" width="22.1" height="12" fill="#FFFFFF" opacity="0.19"/><rect x="1590.7" y="571.7" width="22.1" height="12" fill="#FFFFFF" opacity="0.13"/><rect x="1590.7" y="618.1" width="22.1" height="12" fill="#EC1C2D" opacity="0.30"/><rect x="1590.7" y="710.9" width="22.1" height="12" fill="#FFFFFF" opacity="0.18"/><rect x="1590.7" y="757.3" width="22.1" height="12" fill="#FFFFFF" opacity="0.11"/><rect x="1590.7" y="803.6" width="22.1" height="12" fill="#FFFFFF" opacity="0.25"/><rect x="1590.7" y="896.4" width="22.1" height="12" fill="#FFFFFF" opacity="0.19"/><rect x="1590.7" y="942.8" width="22.1" height="12" fill="#FFFFFF" opacity="0.31"/><rect x="1590.7" y="989.2" width="22.1" height="12" fill="#FFFFFF" opacity="0.06"/><rect x="1590.7" y="1035.6" width="22.1" height="12" fill="#FFFFFF" opacity="0.12"/><rect x="1619.8" y="525.3" width="22.1" height="12" fill="#FFFFFF" opacity="0.20"/><rect x="1619.8" y="571.7" width="22.1" height="12" fill="#FFFFFF" opacity="0.20"/><rect x="1619.8" y="618.1" width="22.1" height="12" fill="#EC1C2D" opacity="0.16"/><rect x="1619.8" y="664.5" width="22.1" height="12" fill="#FFFFFF" opacity="0.29"/><rect x="1619.8" y="757.3" width="22.1" height="12" fill="#FFFFFF" opacity="0.30"/><rect x="1619.8" y="803.6" width="22.1" height="12" fill="#FFFFFF" opacity="0.15"/><rect x="1619.8" y="896.4" width="22.1" height="12" fill="#FFFFFF" opacity="0.08"/><rect x="1619.8" y="989.2" width="22.1" height="12" fill="#FFFFFF" opacity="0.20"/><rect x="1648.9" y="525.3" width="22.1" height="12" fill="#FFFFFF" opacity="0.24"/><rect x="1648.9" y="571.7" width="22.1" height="12" fill="#FFFFFF" opacity="0.30"/><rect x="1648.9" y="757.3" width="22.1" height="12" fill="#FFFFFF" opacity="0.07"/><rect x="1648.9" y="803.6" width="22.1" height="12" fill="#EC1C2D" opacity="0.29"/><rect x="1648.9" y="942.8" width="22.1" height="12" fill="#FFFFFF" opacity="0.09"/><rect x="1728.2" y="236.1" width="125.1" height="863.9" fill="#000" opacity="0.31"/><rect x="1738.2" y="349.6" width="29.7" height="12" fill="#FFFFFF" opacity="0.28"/><rect x="1738.2" y="441.2" width="29.7" height="12" fill="#FFFFFF" opacity="0.33"/><rect x="1738.2" y="532.7" width="29.7" height="12" fill="#FFFFFF" opacity="0.18"/><rect x="1738.2" y="578.5" width="29.7" height="12" fill="#FFFFFF" opacity="0.22"/><rect x="1738.2" y="761.6" width="29.7" height="12" fill="#FFFFFF" opacity="0.20"/><rect x="1738.2" y="807.4" width="29.7" height="12" fill="#FFFFFF" opacity="0.33"/><rect x="1738.2" y="853.1" width="29.7" height="12" fill="#FFFFFF" opacity="0.27"/><rect x="1738.2" y="898.9" width="29.7" height="12" fill="#FFFFFF" opacity="0.19"/><rect x="1738.2" y="944.7" width="29.7" height="12" fill="#EC1C2D" opacity="0.25"/><rect x="1738.2" y="1036.2" width="29.7" height="12" fill="#FFFFFF" opacity="0.25"/><rect x="1773.3" y="395.4" width="29.7" height="12" fill="#FFFFFF" opacity="0.22"/><rect x="1773.3" y="532.7" width="29.7" height="12" fill="#FFFFFF" opacity="0.17"/><rect x="1773.3" y="578.5" width="29.7" height="12" fill="#FFFFFF" opacity="0.16"/><rect x="1773.3" y="670.0" width="29.7" height="12" fill="#FFFFFF" opacity="0.15"/><rect x="1773.3" y="715.8" width="29.7" height="12" fill="#FFFFFF" opacity="0.07"/><rect x="1773.3" y="807.4" width="29.7" height="12" fill="#FFFFFF" opacity="0.23"/><rect x="1773.3" y="898.9" width="29.7" height="12" fill="#FFFFFF" opacity="0.30"/><rect x="1773.3" y="990.5" width="29.7" height="12" fill="#FFFFFF" opacity="0.26"/><rect x="1773.3" y="1036.2" width="29.7" height="12" fill="#FFFFFF" opacity="0.13"/><rect x="1808.3" y="258.1" width="29.7" height="12" fill="#FFFFFF" opacity="0.33"/><rect x="1808.3" y="349.6" width="29.7" height="12" fill="#FFFFFF" opacity="0.13"/><rect x="1808.3" y="395.4" width="29.7" height="12" fill="#FFFFFF" opacity="0.07"/><rect x="1808.3" y="441.2" width="29.7" height="12" fill="#FFFFFF" opacity="0.15"/><rect x="1808.3" y="487.0" width="29.7" height="12" fill="#FFFFFF" opacity="0.13"/><rect x="1808.3" y="532.7" width="29.7" height="12" fill="#FFFFFF" opacity="0.28"/><rect x="1808.3" y="670.0" width="29.7" height="12" fill="#FFFFFF" opacity="0.28"/><rect x="1808.3" y="715.8" width="29.7" height="12" fill="#FFFFFF" opacity="0.13"/><rect x="1808.3" y="761.6" width="29.7" height="12" fill="#FFFFFF" opacity="0.19"/><rect x="1808.3" y="853.1" width="29.7" height="12" fill="#FFFFFF" opacity="0.11"/><rect x="1808.3" y="898.9" width="29.7" height="12" fill="#FFFFFF" opacity="0.24"/><rect x="1808.3" y="990.5" width="29.7" height="12" fill="#FFFFFF" opacity="0.14"/><rect x="1808.3" y="1036.2" width="29.7" height="12" fill="#FFFFFF" opacity="0.06"/><rect x="1882.8" y="462.1" width="126.6" height="637.9" fill="#000" opacity="0.36"/><rect x="1892.8" y="530.1" width="30.2" height="12" fill="#FFFFFF" opacity="0.25"/><rect x="1892.8" y="576.1" width="30.2" height="12" fill="#FFFFFF" opacity="0.24"/><rect x="1892.8" y="668.1" width="30.2" height="12" fill="#FFFFFF" opacity="0.10"/><rect x="1892.8" y="760.1" width="30.2" height="12" fill="#FFFFFF" opacity="0.34"/><rect x="1892.8" y="806.0" width="30.2" height="12" fill="#FFFFFF" opacity="0.20"/><rect x="1892.8" y="852.0" width="30.2" height="12" fill="#FFFFFF" opacity="0.07"/><rect x="1892.8" y="898.0" width="30.2" height="12" fill="#FFFFFF" opacity="0.10"/><rect x="1892.8" y="944.0" width="30.2" height="12" fill="#FFFFFF" opacity="0.30"/><rect x="1928.3" y="484.1" width="30.2" height="12" fill="#FFFFFF" opacity="0.27"/><rect x="1928.3" y="576.1" width="30.2" height="12" fill="#FFFFFF" opacity="0.19"/><rect x="1928.3" y="622.1" width="30.2" height="12" fill="#EC1C2D" opacity="0.12"/><rect x="1928.3" y="668.1" width="30.2" height="12" fill="#EC1C2D" opacity="0.22"/><rect x="1928.3" y="714.1" width="30.2" height="12" fill="#FFFFFF" opacity="0.09"/><rect x="1928.3" y="760.1" width="30.2" height="12" fill="#EC1C2D" opacity="0.12"/><rect x="1928.3" y="806.0" width="30.2" height="12" fill="#FFFFFF" opacity="0.21"/><rect x="1928.3" y="852.0" width="30.2" height="12" fill="#FFFFFF" opacity="0.19"/><rect x="1928.3" y="898.0" width="30.2" height="12" fill="#FFFFFF" opacity="0.31"/><rect x="1928.3" y="944.0" width="30.2" height="12" fill="#FFFFFF" opacity="0.15"/><rect x="1928.3" y="1036.0" width="30.2" height="12" fill="#FFFFFF" opacity="0.32"/><rect x="1963.9" y="484.1" width="30.2" height="12" fill="#FFFFFF" opacity="0.07"/><rect x="1963.9" y="530.1" width="30.2" height="12" fill="#FFFFFF" opacity="0.24"/><rect x="1963.9" y="622.1" width="30.2" height="12" fill="#FFFFFF" opacity="0.20"/><rect x="1963.9" y="714.1" width="30.2" height="12" fill="#FFFFFF" opacity="0.25"/><rect x="1963.9" y="760.1" width="30.2" height="12" fill="#FFFFFF" opacity="0.30"/><rect x="1963.9" y="898.0" width="30.2" height="12" fill="#FFFFFF" opacity="0.08"/><rect x="1963.9" y="944.0" width="30.2" height="12" fill="#FFFFFF" opacity="0.22"/><rect x="1963.9" y="990.0" width="30.2" height="12" fill="#FFFFFF" opacity="0.32"/><rect x="1963.9" y="1036.0" width="30.2" height="12" fill="#FFFFFF" opacity="0.23"/>
  <rect width="1920" height="1100" fill="#000000" opacity="0.1"/>
</svg>
