<svg xmlns="http://www.w3.org/2000/svg" viewBox="0 0 1000 1250" width="1000" height="1250" role="img">
  <defs>
    <linearGradient id="saboutcollage1" x1="0" y1="0" x2="0" y2="1">
      <stop offset="0%" stop-color="#2050A0"/>
      <stop offset="58%" stop-color="#0B1830"/>
      <stop offset="100%" stop-color="#000000"/>
    </linearGradient>
    <radialGradient id="graboutcollage1">
      <stop offset="0%" stop-color="#EC1C2D" stop-opacity="0.8"/>
      <stop offset="100%" stop-color="#EC1C2D" stop-opacity="0"/>
    </radialGradient>
    <radialGradient id="gbaboutcollage1">
      <stop offset="0%" stop-color="#9AA2DB" stop-opacity="0.7"/>
      <stop offset="100%" stop-color="#9AA2DB" stop-opacity="0"/>
    </radialGradient>
  </defs>
  <rect width="1000" height="1250" fill="url(#saboutcollage1)"/>
  <circle cx="72%" cy="58%" r="28%" fill="url(#graboutcollage1)" opacity="0.5"/>
  <rect x="0" y="830.0" width="1000" height="2" fill="#EC1C2D" opacity="0.4"/>
  <rect x="-50.0" y="186.2" width="72.4" height="1063.8" fill="#000" opacity="0.31"/><rect x="-40.0" y="208.2" width="24.2" height="12" fill="#FFFFFF" opacity="0.19"/><rect x="-40.0" y="297.2" width="24.2" height="12" fill="#FFFFFF" opacity="0.10"/><rect x="-40.0" y="341.7" width="24.2" height="12" fill="#FFFFFF" opacity="0.21"/><rect x="-40.0" y="475.3" width="24.2" height="12" fill="#FFFFFF" opacity="0.27"/><rect x="-40.0" y="564.3" width="24.2" height="12" fill="#FFFFFF" opacity="0.26"/><rect x="-40.0" y="653.3" width="24.2" height="12" fill="#EC1C2D" opacity="0.18"/><rect x="-40.0" y="697.8" width="24.2" height="12" fill="#FFFFFF" opacity="0.33"/><rect x="-40.0" y="831.4" width="24.2" height="12" fill="#FFFFFF" opacity="0.07"/><rect x="-40.0" y="875.9" width="24.2" height="12" fill="#FFFFFF" opacity="0.07"/><rect x="-40.0" y="920.4" width="24.2" height="12" fill="#FFFFFF" opacity="0.30"/><rect x="-40.0" y="964.9" width="24.2" height="12" fill="#FFFFFF" opacity="0.16"/><rect x="-40.0" y="1009.4" width="24.2" height="12" fill="#FFFFFF" opacity="0.12"/><rect x="-40.0" y="1098.5" width="24.2" height="12" fill="#FFFFFF" opacity="0.18"/><rect x="-13.8" y="208.2" width="24.2" height="12" fill="#FFFFFF" opacity="0.34"/><rect x="-13.8" y="252.7" width="24.2" height="12" fill="#FFFFFF" opacity="0.27"/><rect x="-13.8" y="297.2" width="24.2" height="12" fill="#FFFFFF" opacity="0.20"/><rect x="-13.8" y="341.7" width="24.2" height="12" fill="#FFFFFF" opacity="0.14"/><rect x="-13.8" y="386.2" width="24.2" height="12" fill="#FFFFFF" opacity="0.15"/><rect x="-13.8" y="430.7" width="24.2" height="12" fill="#FFFFFF" opacity="0.21"/><rect x="-13.8" y="564.3" width="24.2" height="12" fill="#FFFFFF" opacity="0.25"/><rect x="-13.8" y="608.8" width="24.2" height="12" fill="#FFFFFF" opacity="0.10"/><rect x="-13.8" y="653.3" width="24.2" height="12" fill="#FFFFFF" opacity="0.30"/><rect x="-13.8" y="831.4" width="24.2" height="12" fill="#FFFFFF" opacity="0.21"/><rect x="-13.8" y="920.4" width="24.2" height="12" fill="#FFFFFF" opacity="0.10"/><rect x="-13.8" y="964.9" width="24.2" height="12" fill="#EC1C2D" opacity="0.30"/><rect x="-13.8" y="1053.9" width="24.2" height="12" fill="#FFFFFF" opacity="0.27"/><rect x="-13.8" y="1143.0" width="24.2" height="12" fill="#EC1C2D" opacity="0.10"/><rect x="43.0" y="573.5" width="119.1" height="676.5" fill="#000" opacity="0.36"/><rect x="53.0" y="595.5" width="27.7" height="12" fill="#EC1C2D" opacity="0.13"/><rect x="53.0" y="686.4" width="27.7" height="12" fill="#FFFFFF" opacity="0.18"/><rect x="53.0" y="731.9" width="27.7" height="12" fill="#FFFFFF" opacity="0.06"/><rect x="53.0" y="777.3" width="27.7" height="12" fill="#FFFFFF" opacity="0.25"/><rect x="53.0" y="822.8" width="27.7" height="12" fill="#FFFFFF" opacity="0.06"/><rect x="53.0" y="868.3" width="27.7" height="12" fill="#FFFFFF" opacity="0.21"/><rect x="53.0" y="1004.7" width="27.7" height="12" fill="#FFFFFF" opacity="0.29"/><rect x="53.0" y="1050.1" width="27.7" height="12" fill="#FFFFFF" opacity="0.33"/><rect x="53.0" y="1186.5" width="27.7" height="12" fill="#FFFFFF" opacity="0.08"/><rect x="86.0" y="640.9" width="27.7" height="12" fill="#FFFFFF" opacity="0.20"/><rect x="86.0" y="686.4" width="27.7" height="12" fill="#EC1C2D" opacity="0.24"/><rect x="86.0" y="731.9" width="27.7" height="12" fill="#FFFFFF" opacity="0.25"/><rect x="86.0" y="777.3" width="27.7" height="12" fill="#FFFFFF" opacity="0.10"/><rect x="86.0" y="868.3" width="27.7" height="12" fill="#FFFFFF" opacity="0.08"/><rect x="86.0" y="913.7" width="27.7" height="12" fill="#FFFFFF" opacity="0.27"/><rect x="86.0" y="959.2" width="27.7" height="12" fill="#FFFFFF" opacity="0.31"/><rect x="86.0" y="1004.7" width="27.7" height="12" fill="#FFFFFF" opacity="0.29"/><rect x="86.0" y="1141.1" width="27.7" height="12" fill="#FFFFFF" opacity="0.16"/><rect x="119.0" y="595.5" width="27.7" height="12" fill="#FFFFFF" opacity="0.28"/><rect x="119.0" y="640.9" width="27.7" height="12" fill="#FFFFFF" opacity="0.14"/><rect x="119.0" y="686.4" width="27.7" height="12" fill="#FFFFFF" opacity="0.25"/><rect x="119.0" y="777.3" width="27.7" height="12" fill="#FFFFFF" opacity="0.08"/><rect x="119.0" y="822.8" width="27.7" height="12" fill="#EC1C2D" opacity="0.22"/><rect x="119.0" y="868.3" width="27.7" height="12" fill="#FFFFFF" opacity="0.20"/><rect x="119.0" y="959.2" width="27.7" height="12" fill="#FFFFFF" opacity="0.25"/><rect x="119.0" y="1050.1" width="27.7" height="12" fill="#FFFFFF" opacity="0.27"/><rect x="119.0" y="1141.1" width="27.7" height="12" fill="#FFFFFF" opacity="0.07"/><rect x="172.9" y="220.6" width="105.3" height="1029.4" fill="#000" opacity="0.33"/><rect x="182.9" y="287.6" width="23.1" height="12" fill="#FFFFFF" opacity="0.31"/><rect x="182.9" y="422.5" width="23.1" height="12" fill="#FFFFFF" opacity="0.10"/><rect x="182.9" y="512.4" width="23.1" height="12" fill="#FFFFFF" opacity="0.21"/><rect x="182.9" y="557.4" width="23.1" height="12" fill="#FFFFFF" opacity="0.30"/><rect x="182.9" y="647.4" width="23.1" height="12" fill="#EC1C2D" opacity="0.27"/><rect x="182.9" y="692.3" width="23.1" height="12" fill="#EC1C2D" opacity="0.07"/><rect x="182.9" y="737.3" width="23.1" height="12" fill="#FFFFFF" opacity="0.26"/><rect x="182.9" y="827.3" width="23.1" height="12" fill="#FFFFFF" opacity="0.22"/><rect x="182.9" y="872.2" width="23.1" height="12" fill="#EC1C2D" opacity="0.07"/><rect x="182.9" y="917.2" width="23.1" height="12" fill="#FFFFFF" opacity="0.07"/><rect x="182.9" y="962.2" width="23.1" height="12" fill="#FFFFFF" opacity="0.34"/><rect x="182.9" y="1007.1" width="23.1" height="12" fill="#FFFFFF" opacity="0.34"/><rect x="182.9" y="1052.1" width="23.1" height="12" fill="#FFFFFF" opacity="0.10"/><rect x="182.9" y="1097.1" width="23.1" height="12" fill="#FFFFFF" opacity="0.17"/><rect x="182.9" y="1187.0" width="23.1" height="12" fill="#FFFFFF" opacity="0.12"/><rect x="211.3" y="242.6" width="23.1" height="12" fill="#FFFFFF" opacity="0.10"/><rect x="211.3" y="287.6" width="23.1" height="12" fill="#FFFFFF" opacity="0.33"/><rect x="211.3" y="377.5" width="23.1" height="12" fill="#EC1C2D" opacity="0.26"/><rect x="211.3" y="422.5" width="23.1" height="12" fill="#FFFFFF" opacity="0.17"/><rect x="211.3" y="467.5" width="23.1" height="12" fill="#FFFFFF" opacity="0.18"/><rect x="211.3" y="512.4" width="23.1" height="12" fill="#FFFFFF" opacity="0.15"/><rect x="211.3" y="557.4" width="23.1" height="12" fill="#FFFFFF" opacity="0.28"/><rect x="211.3" y="602.4" width="23.1" height="12" fill="#FFFFFF" opacity="0.13"/><rect x="211.3" y="647.4" width="23.1" height="12" fill="#EC1C2D" opacity="0.30"/><rect x="211.3" y="692.3" width="23.1" height="12" fill="#FFFFFF" opacity="0.22"/><rect x="211.3" y="737.3" width="23.1" height="12" fill="#FFFFFF" opacity="0.19"/><rect x="211.3" y="782.3" width="23.1" height="12" fill="#FFFFFF" opacity="0.09"/><rect x="211.3" y="872.2" width="23.1" height="12" fill="#FFFFFF" opacity="0.13"/><rect x="211.3" y="917.2" width="23.1" height="12" fill="#FFFFFF" opacity="0.09"/><rect x="211.3" y="962.2" width="23.1" height="12" fill="#FFFFFF" opacity="0.30"/><rect x="211.3" y="1007.1" width="23.1" height="12" fill="#FFFFFF" opacity="0.06"/><rect x="211.3" y="1052.1" width="23.1" height="12" fill="#FFFFFF" opacity="0.22"/><rect x="211.3" y="1187.0" width="23.1" height="12" fill="#FFFFFF" opacity="0.17"/><rect x="239.8" y="242.6" width="23.1" height="12" fill="#FFFFFF" opacity="0.28"/><rect x="239.8" y="287.6" width="23.1" height="12" fill="#FFFFFF" opacity="0.27"/><rect x="239.8" y="332.6" width="23.1" height="12" fill="#FFFFFF" opacity="0.25"/><rect x="239.8" y="557.4" width="23.1" height="12" fill="#FFFFFF" opacity="0.09"/><rect x="239.8" y="602.4" width="23.1" height="12" fill="#FFFFFF" opacity="0.10"/><rect x="239.8" y="692.3" width="23.1" height="12" fill="#FFFFFF" opacity="0.10"/><rect x="239.8" y="737.3" width="23.1" height="12" fill="#FFFFFF" opacity="0.12"/><rect x="239.8" y="782.3" width="23.1" height="12" fill="#FFFFFF" opacity="0.08"/><rect x="239.8" y="962.2" width="23.1" height="12" fill="#EC1C2D" opacity="0.09"/><rect x="239.8" y="1007.1" width="23.1" height="12" fill="#FFFFFF" opacity="0.12"/><rect x="239.8" y="1052.1" width="23.1" height="12" fill="#FFFFFF" opacity="0.07"/><rect x="239.8" y="1097.1" width="23.1" height="12" fill="#FFFFFF" opacity="0.07"/><rect x="302.3" y="427.1" width="111.7" height="822.9" fill="#000" opacity="0.42"/><rect x="312.3" y="449.1" width="25.2" height="12" fill="#FFFFFF" opacity="0.08"/><rect x="312.3" y="541.2" width="25.2" height="12" fill="#FFFFFF" opacity="0.12"/><rect x="312.3" y="679.4" width="25.2" height="12" fill="#FFFFFF" opacity="0.06"/><rect x="312.3" y="771.5" width="25.2" height="12" fill="#EC1C2D" opacity="0.30"/><rect x="312.3" y="863.6" width="25.2" height="12" fill="#EC1C2D" opacity="0.33"/><rect x="312.3" y="909.6" width="25.2" height="12" fill="#FFFFFF" opacity="0.08"/><rect x="312.3" y="1001.7" width="25.2" height="12" fill="#FFFFFF" opacity="0.24"/><rect x="312.3" y="1093.8" width="25.2" height="12" fill="#FFFFFF" opacity="0.11"/><rect x="312.3" y="1139.9" width="25.2" height="12" fill="#EC1C2D" opacity="0.32"/><rect x="342.9" y="495.2" width="25.2" height="12" fill="#FFFFFF" opacity="0.24"/><rect x="342.9" y="587.3" width="25.2" height="12" fill="#FFFFFF" opacity="0.31"/><rect x="342.9" y="633.3" width="25.2" height="12" fill="#FFFFFF" opacity="0.26"/><rect x="342.9" y="725.4" width="25.2" height="12" fill="#FFFFFF" opacity="0.22"/><rect x="342.9" y="771.5" width="25.2" height="12" fill="#FFFFFF" opacity="0.18"/><rect x="342.9" y="863.6" width="25.2" height="12" fill="#FFFFFF" opacity="0.20"/><rect x="342.9" y="955.7" width="25.2" height="12" fill="#FFFFFF" opacity="0.29"/><rect x="342.9" y="1001.7" width="25.2" height="12" fill="#FFFFFF" opacity="0.14"/><rect x="342.9" y="1047.8" width="25.2" height="12" fill="#FFFFFF" opacity="0.19"/><rect x="342.9" y="1093.8" width="25.2" height="12" fill="#FFFFFF" opacity="0.28"/><rect x="342.9" y="1185.9" width="25.2" height="12" fill="#EC1C2D" opacity="0.29"/><rect x="373.5" y="495.2" width="25.2" height="12" fill="#FFFFFF" opacity="0.32"/><rect x="373.5" y="541.2" width="25.2" height="12" fill="#FFFFFF" opacity="0.07"/><rect x="373.5" y="633.3" width="25.2" height="12" fill="#FFFFFF" opacity="0.13"/><rect x="373.5" y="679.4" width="25.2" height="12" fill="#FFFFFF" opacity="0.33"/><rect x="373.5" y="725.4" width="25.2" height="12" fill="#FFFFFF" opacity="0.07"/><rect x="373.5" y="771.5" width="25.2" height="12" fill="#FFFFFF" opacity="0.25"/><rect x="373.5" y="817.5" width="25.2" height="12" fill="#FFFFFF" opacity="0.07"/><rect x="373.5" y="863.6" width="25.2" height="12" fill="#FFFFFF" opacity="0.11"/><rect x="373.5" y="1001.7" width="25.2" height="12" fill="#FFFFFF" opacity="0.07"/><rect x="373.5" y="1093.8" width="25.2" height="12" fill="#FFFFFF" opacity="0.14"/><rect x="373.5" y="1139.9" width="25.2" height="12" fill="#FFFFFF" opacity="0.09"/><rect x="373.5" y="1185.9" width="25.2" height="12" fill="#FFFFFF" opacity="0.14"/><rect x="431.0" y="510.6" width="134.2" height="739.4" fill="#000" opacity="0.25"/><rect x="441.0" y="576.3" width="32.7" height="12" fill="#FFFFFF" opacity="0.22"/><rect x="441.0" y="620.0" width="32.7" height="12" fill="#FFFFFF" opacity="0.26"/><rect x="441.0" y="663.7" width="32.7" height="12" fill="#FFFFFF" opacity="0.14"/><rect x="441.0" y="794.9" width="32.7" height="12" fill="#FFFFFF" opacity="0.28"/><rect x="441.0" y="838.6" width="32.7" height="12" fill="#FFFFFF" opacity="0.30"/><rect x="441.0" y="882.3" width="32.7" height="12" fill="#FFFFFF" opacity="0.27"/><rect x="441.0" y="926.0" width="32.7" height="12" fill="#FFFFFF" opacity="0.11"/><rect x="441.0" y="1013.4" width="32.7" height="12" fill="#FFFFFF" opacity="0.15"/><rect x="441.0" y="1057.1" width="32.7" height="12" fill="#FFFFFF" opacity="0.19"/><rect x="441.0" y="1144.6" width="32.7" height="12" fill="#FFFFFF" opacity="0.21"/><rect x="479.1" y="532.6" width="32.7" height="12" fill="#FFFFFF" opacity="0.21"/><rect x="479.1" y="576.3" width="32.7" height="12" fill="#FFFFFF" opacity="0.31"/><rect x="479.1" y="620.0" width="32.7" height="12" fill="#FFFFFF" opacity="0.28"/><rect x="479.1" y="707.4" width="32.7" height="12" fill="#FFFFFF" opacity="0.19"/><rect x="479.1" y="751.1" width="32.7" height="12" fill="#FFFFFF" opacity="0.09"/><rect x="479.1" y="794.9" width="32.7" height="12" fill="#FFFFFF" opacity="0.08"/><rect x="479.1" y="926.0" width="32.7" height="12" fill="#FFFFFF" opacity="0.31"/><rect x="479.1" y="969.7" width="32.7" height="12" fill="#FFFFFF" opacity="0.14"/><rect x="479.1" y="1013.4" width="32.7" height="12" fill="#FFFFFF" opacity="0.32"/><rect x="479.1" y="1057.1" width="32.7" height="12" fill="#FFFFFF" opacity="0.31"/><rect x="479.1" y="1100.9" width="32.7" height="12" fill="#FFFFFF" opacity="0.33"/><rect x="479.1" y="1144.6" width="32.7" height="12" fill="#FFFFFF" opacity="0.16"/><rect x="517.2" y="576.3" width="32.7" height="12" fill="#FFFFFF" opacity="0.25"/><rect x="517.2" y="663.7" width="32.7" height="12" fill="#FFFFFF" opacity="0.24"/><rect x="517.2" y="707.4" width="32.7" height="12" fill="#FFFFFF" opacity="0.19"/><rect x="517.2" y="751.1" width="32.7" height="12" fill="#FFFFFF" opacity="0.19"/><rect x="517.2" y="882.3" width="32.7" height="12" fill="#FFFFFF" opacity="0.22"/><rect x="517.2" y="969.7" width="32.7" height="12" fill="#FFFFFF" opacity="0.07"/><rect x="517.2" y="1013.4" width="32.7" height="12" fill="#FFFFFF" opacity="0.17"/><rect x="517.2" y="1057.1" width="32.7" height="12" fill="#FFFFFF" opacity="0.12"/><rect x="517.2" y="1100.9" width="32.7" height="12" fill="#EC1C2D" opacity="0.31"/><rect x="517.2" y="1144.6" width="32.7" height="12" fill="#FFFFFF" opacity="0.06"/><rect x="588.8" y="584.4" width="159.9" height="665.6" fill="#000" opacity="0.44"/><rect x="598.8" y="651.0" width="28.0" height="12" fill="#EC1C2D" opacity="0.09"/><rect x="598.8" y="785.1" width="28.0" height="12" fill="#FFFFFF" opacity="0.29"/><rect x="598.8" y="874.5" width="28.0" height="12" fill="#FFFFFF" opacity="0.29"/><rect x="598.8" y="1142.6" width="28.0" height="12" fill="#FFFFFF" opacity="0.17"/><rect x="598.8" y="1187.3" width="28.0" height="12" fill="#FFFFFF" opacity="0.11"/><rect x="633.8" y="606.4" width="28.0" height="12" fill="#FFFFFF" opacity="0.22"/><rect x="633.8" y="651.0" width="28.0" height="12" fill="#FFFFFF" opacity="0.30"/><rect x="633.8" y="695.7" width="28.0" height="12" fill="#FFFFFF" opacity="0.29"/><rect x="633.8" y="874.5" width="28.0" height="12" fill="#FFFFFF" opacity="0.12"/><rect x="633.8" y="919.2" width="28.0" height="12" fill="#FFFFFF" opacity="0.17"/><rect x="633.8" y="963.9" width="28.0" height="12" fill="#FFFFFF" opacity="0.25"/><rect x="633.8" y="1053.2" width="28.0" height="12" fill="#FFFFFF" opacity="0.28"/><rect x="633.8" y="1097.9" width="28.0" height="12" fill="#FFFFFF" opacity="0.06"/><rect x="633.8" y="1142.6" width="28.0" height="12" fill="#FFFFFF" opacity="0.32"/><rect x="633.8" y="1187.3" width="28.0" height="12" fill="#FFFFFF" opacity="0.27"/><rect x="668.8" y="606.4" width="28.0" height="12" fill="#FFFFFF" opacity="0.19"/><rect x="668.8" y="740.4" width="28.0" height="12" fill="#FFFFFF" opacity="0.16"/><rect x="668.8" y="874.5" width="28.0" height="12" fill="#EC1C2D" opacity="0.19"/><rect x="668.8" y="919.2" width="28.0" height="12" fill="#FFFFFF" opacity="0.32"/><rect x="668.8" y="1008.6" width="28.0" height="12" fill="#EC1C2D" opacity="0.31"/><rect x="668.8" y="1053.2" width="28.0" height="12" fill="#FFFFFF" opacity="0.09"/><rect x="668.8" y="1097.9" width="28.0" height="12" fill="#FFFFFF" opacity="0.29"/><rect x="668.8" y="1142.6" width="28.0" height="12" fill="#FFFFFF" opacity="0.07"/><rect x="668.8" y="1187.3" width="28.0" height="12" fill="#FFFFFF" opacity="0.10"/><rect x="703.7" y="785.1" width="28.0" height="12" fill="#FFFFFF" opacity="0.30"/><rect x="703.7" y="829.8" width="28.0" height="12" fill="#FFFFFF" opacity="0.33"/><rect x="703.7" y="874.5" width="28.0" height="12" fill="#FFFFFF" opacity="0.33"/><rect x="703.7" y="963.9" width="28.0" height="12" fill="#FFFFFF" opacity="0.17"/><rect x="703.7" y="1008.6" width="28.0" height="12" fill="#FFFFFF" opacity="0.11"/><rect x="703.7" y="1142.6" width="28.0" height="12" fill="#FFFFFF" opacity="0.12"/><rect x="703.7" y="1187.3" width="28.0" height="12" fill="#FFFFFF" opacity="0.25"/><rect x="759.0" y="459.9" width="95.6" height="790.1" fill="#000" opacity="0.23"/><rect x="769.0" y="526.0" width="35.8" height="12" fill="#FFFFFF" opacity="0.18"/><rect x="769.0" y="746.6" width="35.8" height="12" fill="#FFFFFF" opacity="0.30"/><rect x="769.0" y="790.7" width="35.8" height="12" fill="#FFFFFF" opacity="0.30"/><rect x="769.0" y="879.0" width="35.8" height="12" fill="#FFFFFF" opacity="0.07"/><rect x="769.0" y="923.1" width="35.8" height="12" fill="#FFFFFF" opacity="0.23"/><rect x="769.0" y="967.2" width="35.8" height="12" fill="#FFFFFF" opacity="0.08"/><rect x="769.0" y="1055.5" width="35.8" height="12" fill="#EC1C2D" opacity="0.14"/><rect x="769.0" y="1099.6" width="35.8" height="12" fill="#FFFFFF" opacity="0.08"/><rect x="769.0" y="1143.7" width="35.8" height="12" fill="#EC1C2D" opacity="0.29"/><rect x="806.8" y="526.0" width="35.8" height="12" fill="#FFFFFF" opacity="0.16"/><rect x="806.8" y="570.1" width="35.8" height="12" fill="#FFFFFF" opacity="0.26"/><rect x="806.8" y="614.2" width="35.8" height="12" fill="#FFFFFF" opacity="0.08"/><rect x="806.8" y="658.4" width="35.8" height="12" fill="#FFFFFF" opacity="0.14"/><rect x="806.8" y="702.5" width="35.8" height="12" fill="#FFFFFF" opacity="0.33"/><rect x="806.8" y="834.9" width="35.8" height="12" fill="#FFFFFF" opacity="0.26"/><rect x="806.8" y="879.0" width="35.8" height="12" fill="#FFFFFF" opacity="0.17"/><rect x="806.8" y="923.1" width="35.8" height="12" fill="#FFFFFF" opacity="0.25"/><rect x="806.8" y="1011.4" width="35.8" height="12" fill="#FFFFFF" opacity="0.11"/><rect x="806.8" y="1143.7" width="35.8" height="12" fill="#FFFFFF" opacity="0.32"/><rect x="806.8" y="1187.9" width="35.8" height="12" fill="#FFFFFF" opacity="0.24"/><rect x="877.4" y="648.9" width="90.5" height="601.1" fill="#000" opacity="0.31"/><rect x="887.4" y="670.9" width="33.2" height="12" fill="#FFFFFF" opacity="0.08"/><rect x="887.4" y="800.4" width="33.2" height="12" fill="#FFFFFF" opacity="0.16"/><rect x="887.4" y="886.7" width="33.2" height="12" fill="#EC1C2D" opacity="0.11"/><rect x="887.4" y="929.9" width="33.2" height="12" fill="#FFFFFF" opacity="0.06"/><rect x="887.4" y="1016.2" width="33.2" height="12" fill="#FFFFFF" opacity="0.22"/><rect x="887.4" y="1059.3" width="33.2" height="12" fill="#FFFFFF" opacity="0.13"/><rect x="887.4" y="1102.5" width="33.2" height="12" fill="#FFFFFF" opacity="0.11"/><rect x="887.4" y="1145.7" width="33.2" height="12" fill="#FFFFFF" opacity="0.16"/><rect x="887.4" y="1188.8" width="33.2" height="12" fill="#FFFFFF" opacity="0.07"/><rect x="922.7" y="714.0" width="33.2" height="12" fill="#FFFFFF" opacity="0.19"/><rect x="922.7" y="757.2" width="33.2" height="12" fill="#FFFFFF" opacity="0.29"/><rect x="922.7" y="886.7" width="33.2" height="12" fill="#FFFFFF" opacity="0.09"/><rect x="922.7" y="973.0" width="33.2" height="12" fill="#FFFFFF" opacity="0.13"/><rect x="922.7" y="1059.3" width="33.2" height="12" fill="#FFFFFF" opacity="0.18"/><rect x="922.7" y="1145.7" width="33.2" height="12" fill="#FFFFFF" opacity="0.31"/><rect x="977.7" y="337.2" width="119.0" height="912.8" fill="#000" opacity="0.33"/><rect x="987.7" y="405.1" width="27.7" height="12" fill="#FFFFFF" opacity="0.25"/><rect x="987.7" y="451.0" width="27.7" height="12" fill="#FFFFFF" opacity="0.22"/><rect x="987.7" y="542.9" width="27.7" height="12" fill="#FFFFFF" opacity="0.08"/><rect x="987.7" y="588.9" width="27.7" height="12" fill="#FFFFFF" opacity="0.29"/><rect x="987.7" y="634.8" width="27.7" height="12" fill="#FFFFFF" opacity="0.29"/><rect x="987.7" y="680.7" width="27.7" height="12" fill="#FFFFFF" opacity="0.07"/><rect x="987.7" y="818.6" width="27.7" height="12" fill="#FFFFFF" opacity="0.26"/><rect x="987.7" y="864.5" width="27.7" height="12" fill="#EC1C2D" opacity="0.18"/><rect x="987.7" y="910.4" width="27.7" height="12" fill="#FFFFFF" opacity="0.15"/><rect x="987.7" y="956.4" width="27.7" height="12" fill="#FFFFFF" opacity="0.13"/><rect x="987.7" y="1002.3" width="27.7" height="12" fill="#FFFFFF" opacity="0.06"/><rect x="987.7" y="1048.2" width="27.7" height="12" fill="#FFFFFF" opacity="0.06"/><rect x="1020.7" y="451.0" width="27.7" height="12" fill="#FFFFFF" opacity="0.11"/><rect x="1020.7" y="497.0" width="27.7" height="12" fill="#FFFFFF" opacity="0.20"/><rect x="1020.7" y="542.9" width="27.7" height="12" fill="#FFFFFF" opacity="0.12"/><rect x="1020.7" y="634.8" width="27.7" height="12" fill="#FFFFFF" opacity="0.15"/><rect x="1020.7" y="726.7" width="27.7" height="12" fill="#FFFFFF" opacity="0.19"/><rect x="1020.7" y="956.4" width="27.7" height="12" fill="#FFFFFF" opacity="0.18"/><rect x="1020.7" y="1140.1" width="27.7" height="12" fill="#FFFFFF" opacity="0.10"/><rect x="1020.7" y="1186.1" width="27.7" height="12" fill="#FFFFFF" opacity="0.15"/><rect x="1053.7" y="359.2" width="27.7" height="12" fill="#FFFFFF" opacity="0.11"/><rect x="1053.7" y="405.1" width="27.7" height="12" fill="#FFFFFF" opacity="0.13"/><rect x="1053.7" y="451.0" width="27.7" height="12" fill="#FFFFFF" opacity="0.25"/><rect x="1053.7" y="497.0" width="27.7" height="12" fill="#FFFFFF" opacity="0.09"/><rect x="1053.7" y="542.9" width="27.7" height="12" fill="#FFFFFF" opacity="0.25"/><rect x="1053.7" y="634.8" width="27.7" height="12" fill="#FFFFFF" opacity="0.15"/><rect x="1053.7" y="680.7" width="27.7" height="12" fill="#FFFFFF" opacity="0.22"/><rect x="1053.7" y="726.7" width="27.7" height="12" fill="#FFFFFF" opacity="0.19"/><rect x="1053.7" y="772.6" width="27.7" height="12" fill="#FFFFFF" opacity="0.34"/><rect x="1053.7" y="910.4" width="27.7" height="12" fill="#EC1C2D" opacity="0.24"/><rect x="1053.7" y="956.4" width="27.7" height="12" fill="#FFFFFF" opacity="0.20"/><rect x="1053.7" y="1002.3" width="27.7" height="12" fill="#FFFFFF" opacity="0.26"/><rect x="1053.7" y="1048.2" width="27.7" height="12" fill="#FFFFFF" opacity="0.24"/><rect x="1053.7" y="1094.2" width="27.7" height="12" fill="#FFFFFF" opacity="0.32"/><rect x="1053.7" y="1140.1" width="27.7" height="12" fill="#FFFFFF" opacity="0.11"/>
  <rect width="1000" height="1250" fill="#000000" opacity="0.1"/>
</svg>
