<svg xmlns="http://www.w3.org/2000/svg" viewBox="0 0 1600 1200" width="1600" height="1200" role="img">
  <defs>
    <linearGradient id="satlantis" x1="0" y1="0" x2="0" y2="1">
      <stop offset="0%" stop-color="#1B4685"/>
      <stop offset="58%" stop-color="#0B1830"/>
      <stop offset="100%" stop-color="#000000"/>
    </linearGradient>
    <radialGradient id="gratlantis">
      <stop offset="0%" stop-color="#EC1C2D" stop-opacity="0.8"/>
      <stop offset="100%" stop-color="#EC1C2D" stop-opacity="0"/>
    </radialGradient>
    <radialGradient id="gbatlantis">
      <stop offset="0%" stop-color="#9AA2DB" stop-opacity="0.7"/>
      <stop offset="100%" stop-color="#9AA2DB" stop-opacity="0"/>
    </radialGradient>
  </defs>
  <rect width="1600" height="1200" fill="url(#satlantis)"/>
  <circle cx="72%" cy="58%" r="28%" fill="url(#gratlantis)" opacity="0.5"/>
  <rect x="0" y="805.1" width="1600" height="2" fill="#EC1C2D" opacity="0.4"/>
  <rect x="-80.0" y="557.2" width="246.3" height="642.8" fill="#000" opacity="0.20"/><rect x="-70.0" y="579.2" width="23.2" height="12" fill="#FFFFFF" opacity="0.31"/><rect x="-70.0" y="672.0" width="23.2" height="12" fill="#FFFFFF" opacity="0.13"/><rect x="-70.0" y="764.7" width="23.2" height="12" fill="#EC1C2D" opacity="0.24"/><rect x="-70.0" y="857.4" width="23.2" height="12" fill="#FFFFFF" opacity="0.09"/><rect x="-70.0" y="903.8" width="23.2" height="12" fill="#EC1C2D" opacity="0.09"/><rect x="-70.0" y="950.2" width="23.2" height="12" fill="#FFFFFF" opacity="0.11"/><rect x="-70.0" y="996.5" width="23.2" height="12" fill="#FFFFFF" opacity="0.11"/><rect x="-70.0" y="1042.9" width="23.2" height="12" fill="#FFFFFF" opacity="0.19"/><rect x="-70.0" y="1089.3" width="23.2" height="12" fill="#FFFFFF" opacity="0.17"/><rect x="-70.0" y="1135.6" width="23.2" height="12" fill="#FFFFFF" opacity="0.18"/><rect x="-37.7" y="579.2" width="23.2" height="12" fill="#EC1C2D" opacity="0.08"/><rect x="-37.7" y="625.6" width="23.2" height="12" fill="#FFFFFF" opacity="0.10"/><rect x="-37.7" y="672.0" width="23.2" height="12" fill="#FFFFFF" opacity="0.20"/><rect x="-37.7" y="764.7" width="23.2" height="12" fill="#FFFFFF" opacity="0.24"/><rect x="-37.7" y="1042.9" width="23.2" height="12" fill="#FFFFFF" opacity="0.21"/><rect x="-37.7" y="1135.6" width="23.2" height="12" fill="#FFFFFF" opacity="0.22"/><rect x="-5.3" y="579.2" width="23.2" height="12" fill="#FFFFFF" opacity="0.13"/><rect x="-5.3" y="672.0" width="23.2" height="12" fill="#FFFFFF" opacity="0.15"/><rect x="-5.3" y="764.7" width="23.2" height="12" fill="#EC1C2D" opacity="0.09"/><rect x="-5.3" y="857.4" width="23.2" height="12" fill="#FFFFFF" opacity="0.13"/><rect x="-5.3" y="903.8" width="23.2" height="12" fill="#FFFFFF" opacity="0.17"/><rect x="-5.3" y="950.2" width="23.2" height="12" fill="#EC1C2D" opacity="0.15"/><rect x="-5.3" y="1042.9" width="23.2" height="12" fill="#EC1C2D" opacity="0.26"/><rect x="-5.3" y="1135.6" width="23.2" height="12" fill="#FFFFFF" opacity="0.24"/><rect x="27.0" y="625.6" width="23.2" height="12" fill="#FFFFFF" opacity="0.13"/><rect x="27.0" y="672.0" width="23.2" height="12" fill="#FFFFFF" opacity="0.10"/><rect x="27.0" y="718.3" width="23.2" height="12" fill="#FFFFFF" opacity="0.11"/><rect x="27.0" y="764.7" width="23.2" height="12" fill="#FFFFFF" opacity="0.13"/><rect x="27.0" y="811.1" width="23.2" height="12" fill="#FFFFFF" opacity="0.25"/><rect x="27.0" y="857.4" width="23.2" height="12" fill="#EC1C2D" opacity="0.07"/><rect x="27.0" y="903.8" width="23.2" height="12" fill="#FFFFFF" opacity="0.23"/><rect x="27.0" y="996.5" width="23.2" height="12" fill="#EC1C2D" opacity="0.31"/><rect x="27.0" y="1135.6" width="23.2" height="12" fill="#FFFFFF" opacity="0.27"/><rect x="59.3" y="579.2" width="23.2" height="12" fill="#FFFFFF" opacity="0.30"/><rect x="59.3" y="625.6" width="23.2" height="12" fill="#FFFFFF" opacity="0.23"/><rect x="59.3" y="672.0" width="23.2" height="12" fill="#FFFFFF" opacity="0.17"/><rect x="59.3" y="718.3" width="23.2" height="12" fill="#EC1C2D" opacity="0.30"/><rect x="59.3" y="857.4" width="23.2" height="12" fill="#FFFFFF" opacity="0.26"/><rect x="59.3" y="903.8" width="23.2" height="12" fill="#FFFFFF" opacity="0.33"/><rect x="59.3" y="950.2" width="23.2" height="12" fill="#FFFFFF" opacity="0.19"/><rect x="59.3" y="1089.3" width="23.2" height="12" fill="#FFFFFF" opacity="0.22"/><rect x="91.6" y="579.2" width="23.2" height="12" fill="#FFFFFF" opacity="0.31"/><rect x="91.6" y="625.6" width="23.2" height="12" fill="#FFFFFF" opacity="0.23"/><rect x="91.6" y="672.0" width="23.2" height="12" fill="#FFFFFF" opacity="0.25"/><rect x="91.6" y="718.3" width="23.2" height="12" fill="#FFFFFF" opacity="0.30"/><rect x="91.6" y="811.1" width="23.2" height="12" fill="#FFFFFF" opacity="0.12"/><rect x="91.6" y="950.2" width="23.2" height="12" fill="#FFFFFF" opacity="0.27"/><rect x="91.6" y="996.5" width="23.2" height="12" fill="#EC1C2D" opacity="0.33"/><rect x="91.6" y="1089.3" width="23.2" height="12" fill="#FFFFFF" opacity="0.26"/><rect x="91.6" y="1135.6" width="23.2" height="12" fill="#FFFFFF" opacity="0.32"/><rect x="124.0" y="672.0" width="23.2" height="12" fill="#FFFFFF" opacity="0.23"/><rect x="124.0" y="718.3" width="23.2" height="12" fill="#FFFFFF" opacity="0.18"/><rect x="124.0" y="764.7" width="23.2" height="12" fill="#FFFFFF" opacity="0.17"/><rect x="124.0" y="811.1" width="23.2" height="12" fill="#FFFFFF" opacity="0.31"/><rect x="124.0" y="857.4" width="23.2" height="12" fill="#FFFFFF" opacity="0.09"/><rect x="124.0" y="903.8" width="23.2" height="12" fill="#FFFFFF" opacity="0.28"/><rect x="124.0" y="996.5" width="23.2" height="12" fill="#FFFFFF" opacity="0.08"/><rect x="124.0" y="1089.3" width="23.2" height="12" fill="#FFFFFF" opacity="0.23"/><rect x="208.1" y="396.2" width="236.8" height="803.8" fill="#000" opacity="0.30"/><rect x="218.1" y="418.2" width="27.5" height="12" fill="#FFFFFF" opacity="0.06"/><rect x="218.1" y="463.1" width="27.5" height="12" fill="#FFFFFF" opacity="0.33"/><rect x="218.1" y="508.0" width="27.5" height="12" fill="#FFFFFF" opacity="0.21"/><rect x="218.1" y="553.0" width="27.5" height="12" fill="#FFFFFF" opacity="0.12"/><rect x="218.1" y="597.9" width="27.5" height="12" fill="#FFFFFF" opacity="0.23"/><rect x="218.1" y="642.8" width="27.5" height="12" fill="#FFFFFF" opacity="0.07"/><rect x="218.1" y="687.8" width="27.5" height="12" fill="#FFFFFF" opacity="0.06"/><rect x="218.1" y="777.6" width="27.5" height="12" fill="#FFFFFF" opacity="0.11"/><rect x="218.1" y="822.6" width="27.5" height="12" fill="#FFFFFF" opacity="0.31"/><rect x="218.1" y="867.5" width="27.5" height="12" fill="#FFFFFF" opacity="0.34"/><rect x="218.1" y="1002.3" width="27.5" height="12" fill="#FFFFFF" opacity="0.14"/><rect x="218.1" y="1047.2" width="27.5" height="12" fill="#EC1C2D" opacity="0.11"/><rect x="218.1" y="1092.1" width="27.5" height="12" fill="#FFFFFF" opacity="0.19"/><rect x="218.1" y="1137.1" width="27.5" height="12" fill="#FFFFFF" opacity="0.28"/><rect x="254.2" y="463.1" width="27.5" height="12" fill="#FFFFFF" opacity="0.19"/><rect x="254.2" y="508.0" width="27.5" height="12" fill="#EC1C2D" opacity="0.28"/><rect x="254.2" y="553.0" width="27.5" height="12" fill="#FFFFFF" opacity="0.22"/><rect x="254.2" y="597.9" width="27.5" height="12" fill="#FFFFFF" opacity="0.16"/><rect x="254.2" y="687.8" width="27.5" height="12" fill="#FFFFFF" opacity="0.08"/><rect x="254.2" y="732.7" width="27.5" height="12" fill="#FFFFFF" opacity="0.09"/><rect x="254.2" y="777.6" width="27.5" height="12" fill="#EC1C2D" opacity="0.28"/><rect x="254.2" y="957.3" width="27.5" height="12" fill="#FFFFFF" opacity="0.32"/><rect x="254.2" y="1047.2" width="27.5" height="12" fill="#FFFFFF" opacity="0.11"/><rect x="254.2" y="1137.1" width="27.5" height="12" fill="#FFFFFF" opacity="0.21"/><rect x="290.4" y="418.2" width="27.5" height="12" fill="#FFFFFF" opacity="0.30"/><rect x="290.4" y="463.1" width="27.5" height="12" fill="#EC1C2D" opacity="0.32"/><rect x="290.4" y="553.0" width="27.5" height="12" fill="#FFFFFF" opacity="0.18"/><rect x="290.4" y="597.9" width="27.5" height="12" fill="#FFFFFF" opacity="0.09"/><rect x="290.4" y="642.8" width="27.5" height="12" fill="#EC1C2D" opacity="0.24"/><rect x="290.4" y="687.8" width="27.5" height="12" fill="#FFFFFF" opacity="0.27"/><rect x="290.4" y="732.7" width="27.5" height="12" fill="#EC1C2D" opacity="0.25"/><rect x="290.4" y="777.6" width="27.5" height="12" fill="#FFFFFF" opacity="0.13"/><rect x="290.4" y="867.5" width="27.5" height="12" fill="#EC1C2D" opacity="0.09"/><rect x="290.4" y="957.3" width="27.5" height="12" fill="#FFFFFF" opacity="0.28"/><rect x="290.4" y="1137.1" width="27.5" height="12" fill="#FFFFFF" opacity="0.32"/><rect x="326.5" y="418.2" width="27.5" height="12" fill="#FFFFFF" opacity="0.29"/><rect x="326.5" y="508.0" width="27.5" height="12" fill="#FFFFFF" opacity="0.07"/><rect x="326.5" y="553.0" width="27.5" height="12" fill="#EC1C2D" opacity="0.33"/><rect x="326.5" y="642.8" width="27.5" height="12" fill="#FFFFFF" opacity="0.14"/><rect x="326.5" y="687.8" width="27.5" height="12" fill="#FFFFFF" opacity="0.26"/><rect x="326.5" y="732.7" width="27.5" height="12" fill="#FFFFFF" opacity="0.28"/><rect x="326.5" y="777.6" width="27.5" height="12" fill="#FFFFFF" opacity="0.32"/><rect x="326.5" y="867.5" width="27.5" height="12" fill="#FFFFFF" opacity="0.21"/><rect x="326.5" y="912.4" width="27.5" height="12" fill="#FFFFFF" opacity="0.06"/><rect x="326.5" y="1137.1" width="27.5" height="12" fill="#FFFFFF" opacity="0.33"/><rect x="362.6" y="463.1" width="27.5" height="12" fill="#FFFFFF" opacity="0.18"/><rect x="362.6" y="508.0" width="27.5" height="12" fill="#EC1C2D" opacity="0.17"/><rect x="362.6" y="597.9" width="27.5" height="12" fill="#FFFFFF" opacity="0.15"/><rect x="362.6" y="642.8" width="27.5" height="12" fill="#FFFFFF" opacity="0.31"/><rect x="362.6" y="687.8" width="27.5" height="12" fill="#FFFFFF" opacity="0.28"/><rect x="362.6" y="732.7" width="27.5" height="12" fill="#FFFFFF" opacity="0.22"/><rect x="362.6" y="822.6" width="27.5" height="12" fill="#FFFFFF" opacity="0.17"/><rect x="362.6" y="912.4" width="27.5" height="12" fill="#FFFFFF" opacity="0.27"/><rect x="362.6" y="957.3" width="27.5" height="12" fill="#FFFFFF" opacity="0.07"/><rect x="362.6" y="1002.3" width="27.5" height="12" fill="#FFFFFF" opacity="0.34"/><rect x="398.8" y="418.2" width="27.5" height="12" fill="#FFFFFF" opacity="0.33"/><rect x="398.8" y="463.1" width="27.5" height="12" fill="#FFFFFF" opacity="0.07"/><rect x="398.8" y="508.0" width="27.5" height="12" fill="#EC1C2D" opacity="0.12"/><rect x="398.8" y="597.9" width="27.5" height="12" fill="#FFFFFF" opacity="0.24"/><rect x="398.8" y="642.8" width="27.5" height="12" fill="#EC1C2D" opacity="0.07"/><rect x="398.8" y="687.8" width="27.5" height="12" fill="#FFFFFF" opacity="0.07"/><rect x="398.8" y="732.7" width="27.5" height="12" fill="#FFFFFF" opacity="0.15"/><rect x="398.8" y="777.6" width="27.5" height="12" fill="#FFFFFF" opacity="0.31"/><rect x="398.8" y="867.5" width="27.5" height="12" fill="#EC1C2D" opacity="0.18"/><rect x="398.8" y="957.3" width="27.5" height="12" fill="#EC1C2D" opacity="0.15"/><rect x="398.8" y="1002.3" width="27.5" height="12" fill="#FFFFFF" opacity="0.31"/><rect x="398.8" y="1047.2" width="27.5" height="12" fill="#FFFFFF" opacity="0.22"/><rect x="398.8" y="1092.1" width="27.5" height="12" fill="#FFFFFF" opacity="0.13"/><rect x="461.7" y="507.3" width="218.6" height="692.7" fill="#000" opacity="0.26"/><rect x="471.7" y="529.3" width="24.4" height="12" fill="#FFFFFF" opacity="0.15"/><rect x="471.7" y="659.8" width="24.4" height="12" fill="#EC1C2D" opacity="0.12"/><rect x="471.7" y="746.9" width="24.4" height="12" fill="#FFFFFF" opacity="0.30"/><rect x="471.7" y="833.9" width="24.4" height="12" fill="#FFFFFF" opacity="0.30"/><rect x="471.7" y="920.9" width="24.4" height="12" fill="#FFFFFF" opacity="0.22"/><rect x="471.7" y="964.4" width="24.4" height="12" fill="#FFFFFF" opacity="0.07"/><rect x="471.7" y="1007.9" width="24.4" height="12" fill="#FFFFFF" opacity="0.15"/><rect x="471.7" y="1051.5" width="24.4" height="12" fill="#FFFFFF" opacity="0.32"/><rect x="471.7" y="1095.0" width="24.4" height="12" fill="#FFFFFF" opacity="0.12"/><rect x="471.7" y="1138.5" width="24.4" height="12" fill="#FFFFFF" opacity="0.12"/><rect x="504.8" y="529.3" width="24.4" height="12" fill="#EC1C2D" opacity="0.19"/><rect x="504.8" y="616.3" width="24.4" height="12" fill="#FFFFFF" opacity="0.08"/><rect x="504.8" y="659.8" width="24.4" height="12" fill="#FFFFFF" opacity="0.23"/><rect x="504.8" y="746.9" width="24.4" height="12" fill="#EC1C2D" opacity="0.12"/><rect x="504.8" y="877.4" width="24.4" height="12" fill="#FFFFFF" opacity="0.17"/><rect x="504.8" y="920.9" width="24.4" height="12" fill="#FFFFFF" opacity="0.21"/><rect x="504.8" y="964.4" width="24.4" height="12" fill="#FFFFFF" opacity="0.08"/><rect x="504.8" y="1051.5" width="24.4" height="12" fill="#FFFFFF" opacity="0.21"/><rect x="504.8" y="1095.0" width="24.4" height="12" fill="#EC1C2D" opacity="0.23"/><rect x="504.8" y="1138.5" width="24.4" height="12" fill="#FFFFFF" opacity="0.32"/><rect x="537.9" y="529.3" width="24.4" height="12" fill="#FFFFFF" opacity="0.32"/><rect x="537.9" y="572.8" width="24.4" height="12" fill="#FFFFFF" opacity="0.22"/><rect x="537.9" y="746.9" width="24.4" height="12" fill="#FFFFFF" opacity="0.23"/><rect x="537.9" y="790.4" width="24.4" height="12" fill="#FFFFFF" opacity="0.28"/><rect x="537.9" y="833.9" width="24.4" height="12" fill="#FFFFFF" opacity="0.08"/><rect x="537.9" y="877.4" width="24.4" height="12" fill="#FFFFFF" opacity="0.15"/><rect x="537.9" y="920.9" width="24.4" height="12" fill="#FFFFFF" opacity="0.12"/><rect x="537.9" y="1007.9" width="24.4" height="12" fill="#FFFFFF" opacity="0.07"/><rect x="537.9" y="1095.0" width="24.4" height="12" fill="#FFFFFF" opacity="0.09"/><rect x="571.0" y="529.3" width="24.4" height="12" fill="#FFFFFF" opacity="0.10"/><rect x="571.0" y="572.8" width="24.4" height="12" fill="#FFFFFF" opacity="0.07"/><rect x="571.0" y="746.9" width="24.4" height="12" fill="#FFFFFF" opacity="0.28"/><rect x="571.0" y="964.4" width="24.4" height="12" fill="#FFFFFF" opacity="0.26"/><rect x="571.0" y="1007.9" width="24.4" height="12" fill="#FFFFFF" opacity="0.18"/><rect x="571.0" y="1051.5" width="24.4" height="12" fill="#FFFFFF" opacity="0.15"/><rect x="571.0" y="1138.5" width="24.4" height="12" fill="#EC1C2D" opacity="0.31"/><rect x="604.1" y="529.3" width="24.4" height="12" fill="#FFFFFF" opacity="0.23"/><rect x="604.1" y="572.8" width="24.4" height="12" fill="#FFFFFF" opacity="0.29"/><rect x="604.1" y="659.8" width="24.4" height="12" fill="#FFFFFF" opacity="0.25"/><rect x="604.1" y="746.9" width="24.4" height="12" fill="#FFFFFF" opacity="0.09"/><rect x="604.1" y="877.4" width="24.4" height="12" fill="#FFFFFF" opacity="0.06"/><rect x="604.1" y="920.9" width="24.4" height="12" fill="#FFFFFF" opacity="0.22"/><rect x="604.1" y="1095.0" width="24.4" height="12" fill="#FFFFFF" opacity="0.26"/><rect x="604.1" y="1138.5" width="24.4" height="12" fill="#EC1C2D" opacity="0.16"/><rect x="637.1" y="572.8" width="24.4" height="12" fill="#FFFFFF" opacity="0.18"/><rect x="637.1" y="659.8" width="24.4" height="12" fill="#FFFFFF" opacity="0.09"/><rect x="637.1" y="703.3" width="24.4" height="12" fill="#FFFFFF" opacity="0.17"/><rect x="637.1" y="746.9" width="24.4" height="12" fill="#FFFFFF" opacity="0.34"/><rect x="637.1" y="833.9" width="24.4" height="12" fill="#FFFFFF" opacity="0.09"/><rect x="637.1" y="877.4" width="24.4" height="12" fill="#FFFFFF" opacity="0.27"/><rect x="637.1" y="920.9" width="24.4" height="12" fill="#FFFFFF" opacity="0.33"/><rect x="637.1" y="964.4" width="24.4" height="12" fill="#EC1C2D" opacity="0.26"/><rect x="637.1" y="1007.9" width="24.4" height="12" fill="#FFFFFF" opacity="0.11"/><rect x="637.1" y="1051.5" width="24.4" height="12" fill="#FFFFFF" opacity="0.09"/><rect x="637.1" y="1138.5" width="24.4" height="12" fill="#FFFFFF" opacity="0.08"/><rect x="717.8" y="443.5" width="193.9" height="756.5" fill="#000" opacity="0.32"/><rect x="727.8" y="465.5" width="26.8" height="12" fill="#FFFFFF" opacity="0.22"/><rect x="727.8" y="555.1" width="26.8" height="12" fill="#FFFFFF" opacity="0.24"/><rect x="727.8" y="644.6" width="26.8" height="12" fill="#EC1C2D" opacity="0.18"/><rect x="727.8" y="689.4" width="26.8" height="12" fill="#FFFFFF" opacity="0.15"/><rect x="727.8" y="734.2" width="26.8" height="12" fill="#FFFFFF" opacity="0.22"/><rect x="727.8" y="958.1" width="26.8" height="12" fill="#FFFFFF" opacity="0.11"/><rect x="727.8" y="1002.9" width="26.8" height="12" fill="#FFFFFF" opacity="0.18"/><rect x="727.8" y="1137.2" width="26.8" height="12" fill="#FFFFFF" opacity="0.24"/><rect x="762.5" y="510.3" width="26.8" height="12" fill="#FFFFFF" opacity="0.21"/><rect x="762.5" y="555.1" width="26.8" height="12" fill="#FFFFFF" opacity="0.22"/><rect x="762.5" y="689.4" width="26.8" height="12" fill="#FFFFFF" opacity="0.07"/><rect x="762.5" y="734.2" width="26.8" height="12" fill="#FFFFFF" opacity="0.14"/><rect x="762.5" y="868.5" width="26.8" height="12" fill="#FFFFFF" opacity="0.10"/><rect x="762.5" y="913.3" width="26.8" height="12" fill="#FFFFFF" opacity="0.26"/><rect x="762.5" y="958.1" width="26.8" height="12" fill="#FFFFFF" opacity="0.33"/><rect x="762.5" y="1002.9" width="26.8" height="12" fill="#FFFFFF" opacity="0.07"/><rect x="762.5" y="1092.4" width="26.8" height="12" fill="#FFFFFF" opacity="0.10"/><rect x="797.3" y="465.5" width="26.8" height="12" fill="#FFFFFF" opacity="0.22"/><rect x="797.3" y="510.3" width="26.8" height="12" fill="#FFFFFF" opacity="0.28"/><rect x="797.3" y="555.1" width="26.8" height="12" fill="#EC1C2D" opacity="0.11"/><rect x="797.3" y="689.4" width="26.8" height="12" fill="#FFFFFF" opacity="0.20"/><rect x="797.3" y="779.0" width="26.8" height="12" fill="#FFFFFF" opacity="0.13"/><rect x="797.3" y="868.5" width="26.8" height="12" fill="#FFFFFF" opacity="0.08"/><rect x="797.3" y="913.3" width="26.8" height="12" fill="#FFFFFF" opacity="0.27"/><rect x="797.3" y="1002.9" width="26.8" height="12" fill="#FFFFFF" opacity="0.20"/><rect x="832.1" y="465.5" width="26.8" height="12" fill="#FFFFFF" opacity="0.23"/><rect x="832.1" y="510.3" width="26.8" height="12" fill="#FFFFFF" opacity="0.22"/><rect x="832.1" y="555.1" width="26.8" height="12" fill="#FFFFFF" opacity="0.10"/><rect x="832.1" y="599.9" width="26.8" height="12" fill="#FFFFFF" opacity="0.24"/><rect x="832.1" y="644.6" width="26.8" height="12" fill="#EC1C2D" opacity="0.22"/><rect x="832.1" y="689.4" width="26.8" height="12" fill="#FFFFFF" opacity="0.30"/><rect x="832.1" y="779.0" width="26.8" height="12" fill="#FFFFFF" opacity="0.12"/><rect x="832.1" y="823.8" width="26.8" height="12" fill="#FFFFFF" opacity="0.32"/><rect x="832.1" y="868.5" width="26.8" height="12" fill="#FFFFFF" opacity="0.09"/><rect x="832.1" y="958.1" width="26.8" height="12" fill="#FFFFFF" opacity="0.31"/><rect x="832.1" y="1137.2" width="26.8" height="12" fill="#FFFFFF" opacity="0.17"/><rect x="866.9" y="510.3" width="26.8" height="12" fill="#FFFFFF" opacity="0.26"/><rect x="866.9" y="555.1" width="26.8" height="12" fill="#FFFFFF" opacity="0.07"/><rect x="866.9" y="644.6" width="26.8" height="12" fill="#FFFFFF" opacity="0.23"/><rect x="866.9" y="689.4" width="26.8" height="12" fill="#FFFFFF" opacity="0.32"/><rect x="866.9" y="734.2" width="26.8" height="12" fill="#FFFFFF" opacity="0.12"/><rect x="866.9" y="823.8" width="26.8" height="12" fill="#EC1C2D" opacity="0.06"/><rect x="866.9" y="868.5" width="26.8" height="12" fill="#FFFFFF" opacity="0.22"/><rect x="866.9" y="958.1" width="26.8" height="12" fill="#EC1C2D" opacity="0.21"/><rect x="866.9" y="1047.7" width="26.8" height="12" fill="#FFFFFF" opacity="0.27"/><rect x="866.9" y="1092.4" width="26.8" height="12" fill="#FFFFFF" opacity="0.13"/><rect x="866.9" y="1137.2" width="26.8" height="12" fill="#FFFFFF" opacity="0.25"/><rect x="931.5" y="298.8" width="247.1" height="901.2" fill="#000" opacity="0.38"/><rect x="941.5" y="320.8" width="23.3" height="12" fill="#FFFFFF" opacity="0.24"/><rect x="941.5" y="366.1" width="23.3" height="12" fill="#FFFFFF" opacity="0.07"/><rect x="941.5" y="411.4" width="23.3" height="12" fill="#FFFFFF" opacity="0.27"/><rect x="941.5" y="456.7" width="23.3" height="12" fill="#FFFFFF" opacity="0.29"/><rect x="941.5" y="547.4" width="23.3" height="12" fill="#FFFFFF" opacity="0.10"/><rect x="941.5" y="638.1" width="23.3" height="12" fill="#EC1C2D" opacity="0.15"/><rect x="941.5" y="683.4" width="23.3" height="12" fill="#FFFFFF" opacity="0.21"/><rect x="941.5" y="774.0" width="23.3" height="12" fill="#EC1C2D" opacity="0.28"/><rect x="941.5" y="819.4" width="23.3" height="12" fill="#FFFFFF" opacity="0.25"/><rect x="941.5" y="864.7" width="23.3" height="12" fill="#FFFFFF" opacity="0.23"/><rect x="941.5" y="910.0" width="23.3" height="12" fill="#FFFFFF" opacity="0.19"/><rect x="941.5" y="1000.7" width="23.3" height="12" fill="#FFFFFF" opacity="0.29"/><rect x="941.5" y="1046.0" width="23.3" height="12" fill="#FFFFFF" opacity="0.31"/><rect x="941.5" y="1091.3" width="23.3" height="12" fill="#FFFFFF" opacity="0.22"/><rect x="941.5" y="1136.7" width="23.3" height="12" fill="#FFFFFF" opacity="0.23"/><rect x="974.0" y="366.1" width="23.3" height="12" fill="#FFFFFF" opacity="0.17"/><rect x="974.0" y="547.4" width="23.3" height="12" fill="#FFFFFF" opacity="0.21"/><rect x="974.0" y="592.7" width="23.3" height="12" fill="#EC1C2D" opacity="0.19"/><rect x="974.0" y="683.4" width="23.3" height="12" fill="#EC1C2D" opacity="0.12"/><rect x="974.0" y="728.7" width="23.3" height="12" fill="#FFFFFF" opacity="0.07"/><rect x="974.0" y="774.0" width="23.3" height="12" fill="#FFFFFF" opacity="0.23"/><rect x="974.0" y="864.7" width="23.3" height="12" fill="#FFFFFF" opacity="0.33"/><rect x="974.0" y="955.4" width="23.3" height="12" fill="#FFFFFF" opacity="0.23"/><rect x="974.0" y="1046.0" width="23.3" height="12" fill="#FFFFFF" opacity="0.30"/><rect x="974.0" y="1091.3" width="23.3" height="12" fill="#FFFFFF" opacity="0.06"/><rect x="1006.4" y="320.8" width="23.3" height="12" fill="#FFFFFF" opacity="0.14"/><rect x="1006.4" y="456.7" width="23.3" height="12" fill="#FFFFFF" opacity="0.27"/><rect x="1006.4" y="592.7" width="23.3" height="12" fill="#FFFFFF" opacity="0.29"/><rect x="1006.4" y="683.4" width="23.3" height="12" fill="#FFFFFF" opacity="0.16"/><rect x="1006.4" y="728.7" width="23.3" height="12" fill="#FFFFFF" opacity="0.16"/><rect x="1006.4" y="774.0" width="23.3" height="12" fill="#FFFFFF" opacity="0.10"/><rect x="1006.4" y="864.7" width="23.3" height="12" fill="#FFFFFF" opacity="0.22"/><rect x="1006.4" y="910.0" width="23.3" height="12" fill="#FFFFFF" opacity="0.13"/><rect x="1006.4" y="955.4" width="23.3" height="12" fill="#EC1C2D" opacity="0.29"/><rect x="1006.4" y="1046.0" width="23.3" height="12" fill="#FFFFFF" opacity="0.15"/><rect x="1038.9" y="366.1" width="23.3" height="12" fill="#FFFFFF" opacity="0.08"/><rect x="1038.9" y="411.4" width="23.3" height="12" fill="#FFFFFF" opacity="0.13"/><rect x="1038.9" y="456.7" width="23.3" height="12" fill="#FFFFFF" opacity="0.30"/><rect x="1038.9" y="774.0" width="23.3" height="12" fill="#FFFFFF" opacity="0.24"/><rect x="1038.9" y="819.4" width="23.3" height="12" fill="#FFFFFF" opacity="0.25"/><rect x="1038.9" y="910.0" width="23.3" height="12" fill="#FFFFFF" opacity="0.11"/><rect x="1038.9" y="955.4" width="23.3" height="12" fill="#EC1C2D" opacity="0.29"/><rect x="1038.9" y="1091.3" width="23.3" height="12" fill="#FFFFFF" opacity="0.16"/><rect x="1038.9" y="1136.7" width="23.3" height="12" fill="#FFFFFF" opacity="0.14"/><rect x="1071.3" y="366.1" width="23.3" height="12" fill="#FFFFFF" opacity="0.26"/><rect x="1071.3" y="456.7" width="23.3" height="12" fill="#FFFFFF" opacity="0.32"/><rect x="1071.3" y="547.4" width="23.3" height="12" fill="#FFFFFF" opacity="0.06"/><rect x="1071.3" y="638.1" width="23.3" height="12" fill="#FFFFFF" opacity="0.11"/><rect x="1071.3" y="683.4" width="23.3" height="12" fill="#FFFFFF" opacity="0.21"/><rect x="1071.3" y="774.0" width="23.3" height="12" fill="#FFFFFF" opacity="0.15"/><rect x="1071.3" y="819.4" width="23.3" height="12" fill="#FFFFFF" opacity="0.16"/><rect x="1071.3" y="864.7" width="23.3" height="12" fill="#FFFFFF" opacity="0.16"/><rect x="1071.3" y="910.0" width="23.3" height="12" fill="#FFFFFF" opacity="0.10"/><rect x="1071.3" y="955.4" width="23.3" height="12" fill="#FFFFFF" opacity="0.22"/><rect x="1103.8" y="320.8" width="23.3" height="12" fill="#FFFFFF" opacity="0.27"/><rect x="1103.8" y="366.1" width="23.3" height="12" fill="#FFFFFF" opacity="0.18"/><rect x="1103.8" y="411.4" width="23.3" height="12" fill="#FFFFFF" opacity="0.16"/><rect x="1103.8" y="502.1" width="23.3" height="12" fill="#FFFFFF" opacity="0.33"/><rect x="1103.8" y="547.4" width="23.3" height="12" fill="#EC1C2D" opacity="0.34"/><rect x="1103.8" y="592.7" width="23.3" height="12" fill="#FFFFFF" opacity="0.08"/><rect x="1103.8" y="638.1" width="23.3" height="12" fill="#FFFFFF" opacity="0.29"/><rect x="1103.8" y="683.4" width="23.3" height="12" fill="#FFFFFF" opacity="0.29"/><rect x="1103.8" y="728.7" width="23.3" height="12" fill="#FFFFFF" opacity="0.26"/><rect x="1103.8" y="774.0" width="23.3" height="12" fill="#FFFFFF" opacity="0.10"/><rect x="1103.8" y="864.7" width="23.3" height="12" fill="#EC1C2D" opacity="0.18"/><rect x="1103.8" y="1046.0" width="23.3" height="12" fill="#EC1C2D" opacity="0.32"/><rect x="1103.8" y="1136.7" width="23.3" height="12" fill="#FFFFFF" opacity="0.13"/><rect x="1136.2" y="320.8" width="23.3" height="12" fill="#FFFFFF" opacity="0.29"/><rect x="1136.2" y="366.1" width="23.3" height="12" fill="#EC1C2D" opacity="0.21"/><rect x="1136.2" y="456.7" width="23.3" height="12" fill="#FFFFFF" opacity="0.09"/><rect x="1136.2" y="592.7" width="23.3" height="12" fill="#FFFFFF" opacity="0.13"/><rect x="1136.2" y="638.1" width="23.3" height="12" fill="#FFFFFF" opacity="0.26"/><rect x="1136.2" y="683.4" width="23.3" height="12" fill="#FFFFFF" opacity="0.09"/><rect x="1136.2" y="774.0" width="23.3" height="12" fill="#FFFFFF" opacity="0.24"/><rect x="1136.2" y="819.4" width="23.3" height="12" fill="#FFFFFF" opacity="0.31"/><rect x="1136.2" y="864.7" width="23.3" height="12" fill="#FFFFFF" opacity="0.18"/><rect x="1136.2" y="910.0" width="23.3" height="12" fill="#FFFFFF" opacity="0.23"/><rect x="1136.2" y="955.4" width="23.3" height="12" fill="#FFFFFF" opacity="0.09"/><rect x="1136.2" y="1046.0" width="23.3" height="12" fill="#FFFFFF" opacity="0.15"/><rect x="1136.2" y="1136.7" width="23.3" height="12" fill="#FFFFFF" opacity="0.10"/><rect x="1220.6" y="619.1" width="118.7" height="580.9" fill="#000" opacity="0.36"/><rect x="1230.6" y="641.1" width="27.6" height="12" fill="#FFFFFF" opacity="0.27"/><rect x="1230.6" y="731.2" width="27.6" height="12" fill="#FFFFFF" opacity="0.13"/><rect x="1230.6" y="776.3" width="27.6" height="12" fill="#FFFFFF" opacity="0.14"/><rect x="1230.6" y="866.5" width="27.6" height="12" fill="#FFFFFF" opacity="0.11"/><rect x="1230.6" y="911.5" width="27.6" height="12" fill="#EC1C2D" opacity="0.24"/><rect x="1230.6" y="956.6" width="27.6" height="12" fill="#FFFFFF" opacity="0.17"/><rect x="1230.6" y="1091.8" width="27.6" height="12" fill="#EC1C2D" opacity="0.33"/><rect x="1230.6" y="1136.9" width="27.6" height="12" fill="#FFFFFF" opacity="0.34"/><rect x="1263.5" y="641.1" width="27.6" height="12" fill="#FFFFFF" opacity="0.26"/><rect x="1263.5" y="686.2" width="27.6" height="12" fill="#EC1C2D" opacity="0.25"/><rect x="1263.5" y="731.2" width="27.6" height="12" fill="#FFFFFF" opacity="0.28"/><rect x="1263.5" y="821.4" width="27.6" height="12" fill="#FFFFFF" opacity="0.08"/><rect x="1263.5" y="866.5" width="27.6" height="12" fill="#FFFFFF" opacity="0.28"/><rect x="1263.5" y="911.5" width="27.6" height="12" fill="#FFFFFF" opacity="0.22"/><rect x="1263.5" y="956.6" width="27.6" height="12" fill="#FFFFFF" opacity="0.23"/><rect x="1263.5" y="1001.7" width="27.6" height="12" fill="#FFFFFF" opacity="0.10"/><rect x="1263.5" y="1046.8" width="27.6" height="12" fill="#FFFFFF" opacity="0.14"/><rect x="1263.5" y="1091.8" width="27.6" height="12" fill="#FFFFFF" opacity="0.19"/><rect x="1263.5" y="1136.9" width="27.6" height="12" fill="#FFFFFF" opacity="0.18"/><rect x="1296.4" y="641.1" width="27.6" height="12" fill="#FFFFFF" opacity="0.24"/><rect x="1296.4" y="686.2" width="27.6" height="12" fill="#FFFFFF" opacity="0.23"/><rect x="1296.4" y="731.2" width="27.6" height="12" fill="#FFFFFF" opacity="0.13"/><rect x="1296.4" y="776.3" width="27.6" height="12" fill="#FFFFFF" opacity="0.31"/><rect x="1296.4" y="821.4" width="27.6" height="12" fill="#FFFFFF" opacity="0.32"/><rect x="1296.4" y="911.5" width="27.6" height="12" fill="#FFFFFF" opacity="0.06"/><rect x="1296.4" y="956.6" width="27.6" height="12" fill="#FFFFFF" opacity="0.25"/><rect x="1296.4" y="1046.8" width="27.6" height="12" fill="#FFFFFF" opacity="0.12"/><rect x="1372.4" y="569.5" width="104.0" height="630.5" fill="#000" opacity="0.41"/><rect x="1382.4" y="591.5" width="22.7" height="12" fill="#FFFFFF" opacity="0.21"/><rect x="1382.4" y="636.9" width="22.7" height="12" fill="#FFFFFF" opacity="0.08"/><rect x="1382.4" y="773.2" width="22.7" height="12" fill="#EC1C2D" opacity="0.07"/><rect x="1382.4" y="818.6" width="22.7" height="12" fill="#FFFFFF" opacity="0.09"/><rect x="1382.4" y="864.0" width="22.7" height="12" fill="#EC1C2D" opacity="0.08"/><rect x="1382.4" y="909.4" width="22.7" height="12" fill="#FFFFFF" opacity="0.12"/><rect x="1382.4" y="954.9" width="22.7" height="12" fill="#FFFFFF" opacity="0.12"/><rect x="1382.4" y="1045.7" width="22.7" height="12" fill="#FFFFFF" opacity="0.11"/><rect x="1382.4" y="1136.6" width="22.7" height="12" fill="#FFFFFF" opacity="0.32"/><rect x="1410.4" y="1000.3" width="22.7" height="12" fill="#FFFFFF" opacity="0.31"/><rect x="1410.4" y="1045.7" width="22.7" height="12" fill="#FFFFFF" opacity="0.26"/><rect x="1410.4" y="1091.1" width="22.7" height="12" fill="#FFFFFF" opacity="0.28"/><rect x="1410.4" y="1136.6" width="22.7" height="12" fill="#FFFFFF" opacity="0.11"/><rect x="1438.4" y="591.5" width="22.7" height="12" fill="#EC1C2D" opacity="0.20"/><rect x="1438.4" y="636.9" width="22.7" height="12" fill="#FFFFFF" opacity="0.23"/><rect x="1438.4" y="682.3" width="22.7" height="12" fill="#EC1C2D" opacity="0.17"/><rect x="1438.4" y="773.2" width="22.7" height="12" fill="#FFFFFF" opacity="0.27"/><rect x="1438.4" y="818.6" width="22.7" height="12" fill="#FFFFFF" opacity="0.07"/><rect x="1438.4" y="864.0" width="22.7" height="12" fill="#FFFFFF" opacity="0.23"/><rect x="1438.4" y="1000.3" width="22.7" height="12" fill="#FFFFFF" opacity="0.20"/><rect x="1438.4" y="1045.7" width="22.7" height="12" fill="#FFFFFF" opacity="0.32"/><rect x="1438.4" y="1091.1" width="22.7" height="12" fill="#FFFFFF" opacity="0.14"/><rect x="1505.8" y="199.0" width="156.2" height="1001.0" fill="#000" opacity="0.45"/><rect x="1515.8" y="221.0" width="27.0" height="12" fill="#FFFFFF" opacity="0.33"/><rect x="1515.8" y="266.7" width="27.0" height="12" fill="#FFFFFF" opacity="0.15"/><rect x="1515.8" y="312.5" width="27.0" height="12" fill="#EC1C2D" opacity="0.20"/><rect x="1515.8" y="404.0" width="27.0" height="12" fill="#FFFFFF" opacity="0.15"/><rect x="1515.8" y="449.8" width="27.0" height="12" fill="#FFFFFF" opacity="0.12"/><rect x="1515.8" y="495.6" width="27.0" height="12" fill="#FFFFFF" opacity="0.26"/><rect x="1515.8" y="632.8" width="27.0" height="12" fill="#FFFFFF" opacity="0.18"/><rect x="1515.8" y="770.1" width="27.0" height="12" fill="#FFFFFF" opacity="0.30"/><rect x="1515.8" y="815.9" width="27.0" height="12" fill="#FFFFFF" opacity="0.23"/><rect x="1515.8" y="907.4" width="27.0" height="12" fill="#FFFFFF" opacity="0.34"/><rect x="1515.8" y="1090.5" width="27.0" height="12" fill="#FFFFFF" opacity="0.21"/><rect x="1549.8" y="221.0" width="27.0" height="12" fill="#FFFFFF" opacity="0.11"/><rect x="1549.8" y="266.7" width="27.0" height="12" fill="#FFFFFF" opacity="0.26"/><rect x="1549.8" y="358.3" width="27.0" height="12" fill="#FFFFFF" opacity="0.31"/><rect x="1549.8" y="404.0" width="27.0" height="12" fill="#FFFFFF" opacity="0.26"/><rect x="1549.8" y="495.6" width="27.0" height="12" fill="#FFFFFF" opacity="0.21"/><rect x="1549.8" y="541.3" width="27.0" height="12" fill="#FFFFFF" opacity="0.31"/><rect x="1549.8" y="632.8" width="27.0" height="12" fill="#EC1C2D" opacity="0.33"/><rect x="1549.8" y="678.6" width="27.0" height="12" fill="#FFFFFF" opacity="0.08"/><rect x="1549.8" y="724.4" width="27.0" height="12" fill="#FFFFFF" opacity="0.14"/><rect x="1549.8" y="770.1" width="27.0" height="12" fill="#FFFFFF" opacity="0.11"/><rect x="1549.8" y="907.4" width="27.0" height="12" fill="#FFFFFF" opacity="0.26"/><rect x="1549.8" y="1044.7" width="27.0" height="12" fill="#FFFFFF" opacity="0.11"/><rect x="1549.8" y="1090.5" width="27.0" height="12" fill="#FFFFFF" opacity="0.08"/><rect x="1583.9" y="221.0" width="27.0" height="12" fill="#EC1C2D" opacity="0.32"/><rect x="1583.9" y="266.7" width="27.0" height="12" fill="#FFFFFF" opacity="0.21"/><rect x="1583.9" y="312.5" width="27.0" height="12" fill="#FFFFFF" opacity="0.19"/><rect x="1583.9" y="449.8" width="27.0" height="12" fill="#EC1C2D" opacity="0.19"/><rect x="1583.9" y="495.6" width="27.0" height="12" fill="#EC1C2D" opacity="0.14"/><rect x="1583.9" y="632.8" width="27.0" height="12" fill="#EC1C2D" opacity="0.07"/><rect x="1583.9" y="724.4" width="27.0" height="12" fill="#FFFFFF" opacity="0.15"/><rect x="1583.9" y="770.1" width="27.0" height="12" fill="#FFFFFF" opacity="0.33"/><rect x="1583.9" y="861.7" width="27.0" height="12" fill="#FFFFFF" opacity="0.25"/><rect x="1583.9" y="953.2" width="27.0" height="12" fill="#FFFFFF" opacity="0.27"/><rect x="1583.9" y="998.9" width="27.0" height="12" fill="#FFFFFF" opacity="0.06"/><rect x="1583.9" y="1090.5" width="27.0" height="12" fill="#FFFFFF" opacity="0.12"/><rect x="1617.9" y="221.0" width="27.0" height="12" fill="#FFFFFF" opacity="0.27"/><rect x="1617.9" y="312.5" width="27.0" height="12" fill="#FFFFFF" opacity="0.06"/><rect x="1617.9" y="358.3" width="27.0" height="12" fill="#FFFFFF" opacity="0.27"/><rect x="1617.9" y="404.0" width="27.0" height="12" fill="#FFFFFF" opacity="0.31"/><rect x="1617.9" y="449.8" width="27.0" height="12" fill="#FFFFFF" opacity="0.08"/><rect x="1617.9" y="541.3" width="27.0" height="12" fill="#EC1C2D" opacity="0.12"/><rect x="1617.9" y="724.4" width="27.0" height="12" fill="#FFFFFF" opacity="0.14"/><rect x="1617.9" y="770.1" width="27.0" height="12" fill="#EC1C2D" opacity="0.29"/><rect x="1617.9" y="861.7" width="27.0" height="12" fill="#FFFFFF" opacity="0.06"/><rect x="1617.9" y="907.4" width="27.0" height="12" fill="#FFFFFF" opacity="0.20"/><rect x="1617.9" y="1044.7" width="27.0" height="12" fill="#EC1C2D" opacity="0.25"/><rect x="1617.9" y="1090.5" width="27.0" height="12" fill="#FFFFFF" opacity="0.32"/>
  <rect width="1600" height="1200" fill="#000000" opacity="0.1"/>
</svg>
