<svg xmlns="http://www.w3.org/2000/svg" viewBox="0 0 1600 1200" width="1600" height="1200" role="img">
  <defs>
    <linearGradient id="sbusinesstower" x1="0" y1="0" x2="0" y2="1">
      <stop offset="0%" stop-color="#12305F"/>
      <stop offset="58%" stop-color="#0B1830"/>
      <stop offset="100%" stop-color="#000000"/>
    </linearGradient>
    <radialGradient id="grbusinesstower">
      <stop offset="0%" stop-color="#EC1C2D" stop-opacity="0.8"/>
      <stop offset="100%" stop-color="#EC1C2D" stop-opacity="0"/>
    </radialGradient>
    <radialGradient id="gbbusinesstower">
      <stop offset="0%" stop-color="#9AA2DB" stop-opacity="0.7"/>
      <stop offset="100%" stop-color="#9AA2DB" stop-opacity="0"/>
    </radialGradient>
  </defs>
  <rect width="1600" height="1200" fill="url(#sbusinesstower)"/>
  <circle cx="26%" cy="46%" r="30%" fill="url(#gbbusinesstower)" opacity="0.45"/>
  <rect x="0" y="835.5" width="1600" height="2" fill="#EC1C2D" opacity="0.4"/>
  <rect x="-80.0" y="573.4" width="215.5" height="626.6" fill="#000" opacity="0.42"/><rect x="-70.0" y="640.6" width="23.9" height="12" fill="#FFFFFF" opacity="0.11"/><rect x="-70.0" y="685.7" width="23.9" height="12" fill="#FFFFFF" opacity="0.34"/><rect x="-70.0" y="730.8" width="23.9" height="12" fill="#FFFFFF" opacity="0.29"/><rect x="-70.0" y="866.2" width="23.9" height="12" fill="#FFFFFF" opacity="0.14"/><rect x="-70.0" y="911.3" width="23.9" height="12" fill="#FFFFFF" opacity="0.12"/><rect x="-70.0" y="1046.6" width="23.9" height="12" fill="#FFFFFF" opacity="0.07"/><rect x="-70.0" y="1091.8" width="23.9" height="12" fill="#FFFFFF" opacity="0.21"/><rect x="-70.0" y="1136.9" width="23.9" height="12" fill="#FFFFFF" opacity="0.15"/><rect x="-37.4" y="595.4" width="23.9" height="12" fill="#FFFFFF" opacity="0.28"/><rect x="-37.4" y="640.6" width="23.9" height="12" fill="#FFFFFF" opacity="0.29"/><rect x="-37.4" y="685.7" width="23.9" height="12" fill="#FFFFFF" opacity="0.23"/><rect x="-37.4" y="775.9" width="23.9" height="12" fill="#FFFFFF" opacity="0.19"/><rect x="-37.4" y="821.0" width="23.9" height="12" fill="#FFFFFF" opacity="0.11"/><rect x="-37.4" y="956.4" width="23.9" height="12" fill="#FFFFFF" opacity="0.25"/><rect x="-37.4" y="1001.5" width="23.9" height="12" fill="#EC1C2D" opacity="0.33"/><rect x="-37.4" y="1091.8" width="23.9" height="12" fill="#FFFFFF" opacity="0.30"/><rect x="-37.4" y="1136.9" width="23.9" height="12" fill="#FFFFFF" opacity="0.33"/><rect x="-4.8" y="640.6" width="23.9" height="12" fill="#EC1C2D" opacity="0.29"/><rect x="-4.8" y="730.8" width="23.9" height="12" fill="#FFFFFF" opacity="0.27"/><rect x="-4.8" y="775.9" width="23.9" height="12" fill="#FFFFFF" opacity="0.20"/><rect x="-4.8" y="866.2" width="23.9" height="12" fill="#FFFFFF" opacity="0.11"/><rect x="-4.8" y="956.4" width="23.9" height="12" fill="#FFFFFF" opacity="0.17"/><rect x="-4.8" y="1001.5" width="23.9" height="12" fill="#FFFFFF" opacity="0.23"/><rect x="-4.8" y="1046.6" width="23.9" height="12" fill="#EC1C2D" opacity="0.19"/><rect x="-4.8" y="1091.8" width="23.9" height="12" fill="#FFFFFF" opacity="0.19"/><rect x="-4.8" y="1136.9" width="23.9" height="12" fill="#FFFFFF" opacity="0.31"/><rect x="27.8" y="595.4" width="23.9" height="12" fill="#EC1C2D" opacity="0.25"/><rect x="27.8" y="685.7" width="23.9" height="12" fill="#FFFFFF" opacity="0.33"/><rect x="27.8" y="730.8" width="23.9" height="12" fill="#FFFFFF" opacity="0.07"/><rect x="27.8" y="866.2" width="23.9" height="12" fill="#FFFFFF" opacity="0.14"/><rect x="27.8" y="956.4" width="23.9" height="12" fill="#FFFFFF" opacity="0.21"/><rect x="27.8" y="1001.5" width="23.9" height="12" fill="#FFFFFF" opacity="0.20"/><rect x="60.3" y="640.6" width="23.9" height="12" fill="#FFFFFF" opacity="0.18"/><rect x="60.3" y="685.7" width="23.9" height="12" fill="#FFFFFF" opacity="0.13"/><rect x="60.3" y="730.8" width="23.9" height="12" fill="#FFFFFF" opacity="0.18"/><rect x="60.3" y="775.9" width="23.9" height="12" fill="#FFFFFF" opacity="0.32"/><rect x="60.3" y="821.0" width="23.9" height="12" fill="#FFFFFF" opacity="0.33"/><rect x="60.3" y="956.4" width="23.9" height="12" fill="#FFFFFF" opacity="0.16"/><rect x="60.3" y="1001.5" width="23.9" height="12" fill="#FFFFFF" opacity="0.18"/><rect x="60.3" y="1046.6" width="23.9" height="12" fill="#FFFFFF" opacity="0.07"/><rect x="92.9" y="595.4" width="23.9" height="12" fill="#FFFFFF" opacity="0.23"/><rect x="92.9" y="640.6" width="23.9" height="12" fill="#FFFFFF" opacity="0.20"/><rect x="92.9" y="730.8" width="23.9" height="12" fill="#FFFFFF" opacity="0.12"/><rect x="92.9" y="775.9" width="23.9" height="12" fill="#FFFFFF" opacity="0.13"/><rect x="92.9" y="821.0" width="23.9" height="12" fill="#FFFFFF" opacity="0.15"/><rect x="92.9" y="956.4" width="23.9" height="12" fill="#FFFFFF" opacity="0.11"/><rect x="92.9" y="1001.5" width="23.9" height="12" fill="#FFFFFF" opacity="0.14"/><rect x="92.9" y="1046.6" width="23.9" height="12" fill="#FFFFFF" opacity="0.29"/><rect x="92.9" y="1091.8" width="23.9" height="12" fill="#FFFFFF" opacity="0.09"/><rect x="92.9" y="1136.9" width="23.9" height="12" fill="#FFFFFF" opacity="0.31"/><rect x="177.9" y="245.3" width="132.9" height="954.7" fill="#000" opacity="0.31"/><rect x="187.9" y="267.3" width="32.3" height="12" fill="#FFFFFF" opacity="0.32"/><rect x="187.9" y="313.0" width="32.3" height="12" fill="#FFFFFF" opacity="0.14"/><rect x="187.9" y="450.2" width="32.3" height="12" fill="#FFFFFF" opacity="0.13"/><rect x="187.9" y="541.7" width="32.3" height="12" fill="#FFFFFF" opacity="0.07"/><rect x="187.9" y="587.4" width="32.3" height="12" fill="#FFFFFF" opacity="0.22"/><rect x="187.9" y="633.2" width="32.3" height="12" fill="#FFFFFF" opacity="0.09"/><rect x="187.9" y="907.6" width="32.3" height="12" fill="#FFFFFF" opacity="0.13"/><rect x="187.9" y="999.1" width="32.3" height="12" fill="#FFFFFF" opacity="0.29"/><rect x="187.9" y="1090.5" width="32.3" height="12" fill="#FFFFFF" opacity="0.15"/><rect x="225.5" y="267.3" width="32.3" height="12" fill="#FFFFFF" opacity="0.29"/><rect x="225.5" y="404.5" width="32.3" height="12" fill="#FFFFFF" opacity="0.11"/><rect x="225.5" y="678.9" width="32.3" height="12" fill="#FFFFFF" opacity="0.28"/><rect x="225.5" y="724.6" width="32.3" height="12" fill="#FFFFFF" opacity="0.18"/><rect x="225.5" y="770.4" width="32.3" height="12" fill="#EC1C2D" opacity="0.28"/><rect x="225.5" y="816.1" width="32.3" height="12" fill="#FFFFFF" opacity="0.08"/><rect x="225.5" y="861.9" width="32.3" height="12" fill="#FFFFFF" opacity="0.28"/><rect x="225.5" y="907.6" width="32.3" height="12" fill="#FFFFFF" opacity="0.28"/><rect x="225.5" y="953.3" width="32.3" height="12" fill="#FFFFFF" opacity="0.25"/><rect x="225.5" y="1044.8" width="32.3" height="12" fill="#FFFFFF" opacity="0.15"/><rect x="225.5" y="1090.5" width="32.3" height="12" fill="#FFFFFF" opacity="0.29"/><rect x="225.5" y="1136.3" width="32.3" height="12" fill="#FFFFFF" opacity="0.16"/><rect x="263.2" y="267.3" width="32.3" height="12" fill="#FFFFFF" opacity="0.30"/><rect x="263.2" y="313.0" width="32.3" height="12" fill="#FFFFFF" opacity="0.18"/><rect x="263.2" y="358.8" width="32.3" height="12" fill="#FFFFFF" opacity="0.22"/><rect x="263.2" y="404.5" width="32.3" height="12" fill="#FFFFFF" opacity="0.09"/><rect x="263.2" y="450.2" width="32.3" height="12" fill="#FFFFFF" opacity="0.14"/><rect x="263.2" y="541.7" width="32.3" height="12" fill="#EC1C2D" opacity="0.22"/><rect x="263.2" y="587.4" width="32.3" height="12" fill="#EC1C2D" opacity="0.33"/><rect x="263.2" y="633.2" width="32.3" height="12" fill="#EC1C2D" opacity="0.15"/><rect x="263.2" y="678.9" width="32.3" height="12" fill="#FFFFFF" opacity="0.12"/><rect x="263.2" y="724.6" width="32.3" height="12" fill="#EC1C2D" opacity="0.16"/><rect x="263.2" y="770.4" width="32.3" height="12" fill="#FFFFFF" opacity="0.12"/><rect x="263.2" y="953.3" width="32.3" height="12" fill="#FFFFFF" opacity="0.22"/><rect x="263.2" y="999.1" width="32.3" height="12" fill="#FFFFFF" opacity="0.08"/><rect x="263.2" y="1044.8" width="32.3" height="12" fill="#FFFFFF" opacity="0.19"/><rect x="263.2" y="1090.5" width="32.3" height="12" fill="#FFFFFF" opacity="0.22"/><rect x="263.2" y="1136.3" width="32.3" height="12" fill="#FFFFFF" opacity="0.26"/><rect x="325.4" y="398.1" width="246.2" height="801.9" fill="#000" opacity="0.44"/><rect x="335.4" y="420.1" width="23.2" height="12" fill="#FFFFFF" opacity="0.11"/><rect x="335.4" y="464.9" width="23.2" height="12" fill="#FFFFFF" opacity="0.22"/><rect x="335.4" y="509.7" width="23.2" height="12" fill="#FFFFFF" opacity="0.28"/><rect x="335.4" y="554.5" width="23.2" height="12" fill="#FFFFFF" opacity="0.32"/><rect x="335.4" y="599.4" width="23.2" height="12" fill="#FFFFFF" opacity="0.10"/><rect x="335.4" y="689.0" width="23.2" height="12" fill="#FFFFFF" opacity="0.29"/><rect x="335.4" y="778.6" width="23.2" height="12" fill="#FFFFFF" opacity="0.27"/><rect x="335.4" y="823.5" width="23.2" height="12" fill="#EC1C2D" opacity="0.23"/><rect x="335.4" y="868.3" width="23.2" height="12" fill="#FFFFFF" opacity="0.30"/><rect x="335.4" y="957.9" width="23.2" height="12" fill="#FFFFFF" opacity="0.10"/><rect x="335.4" y="1002.7" width="23.2" height="12" fill="#FFFFFF" opacity="0.28"/><rect x="335.4" y="1047.5" width="23.2" height="12" fill="#FFFFFF" opacity="0.08"/><rect x="335.4" y="1137.2" width="23.2" height="12" fill="#FFFFFF" opacity="0.09"/><rect x="367.7" y="420.1" width="23.2" height="12" fill="#FFFFFF" opacity="0.21"/><rect x="367.7" y="464.9" width="23.2" height="12" fill="#FFFFFF" opacity="0.17"/><rect x="367.7" y="509.7" width="23.2" height="12" fill="#EC1C2D" opacity="0.20"/><rect x="367.7" y="733.8" width="23.2" height="12" fill="#FFFFFF" opacity="0.16"/><rect x="367.7" y="957.9" width="23.2" height="12" fill="#FFFFFF" opacity="0.33"/><rect x="367.7" y="1047.5" width="23.2" height="12" fill="#FFFFFF" opacity="0.07"/><rect x="367.7" y="1092.4" width="23.2" height="12" fill="#EC1C2D" opacity="0.09"/><rect x="367.7" y="1137.2" width="23.2" height="12" fill="#FFFFFF" opacity="0.22"/><rect x="400.0" y="464.9" width="23.2" height="12" fill="#FFFFFF" opacity="0.16"/><rect x="400.0" y="554.5" width="23.2" height="12" fill="#FFFFFF" opacity="0.10"/><rect x="400.0" y="644.2" width="23.2" height="12" fill="#FFFFFF" opacity="0.09"/><rect x="400.0" y="689.0" width="23.2" height="12" fill="#FFFFFF" opacity="0.16"/><rect x="400.0" y="733.8" width="23.2" height="12" fill="#FFFFFF" opacity="0.11"/><rect x="400.0" y="778.6" width="23.2" height="12" fill="#FFFFFF" opacity="0.09"/><rect x="400.0" y="868.3" width="23.2" height="12" fill="#FFFFFF" opacity="0.13"/><rect x="400.0" y="913.1" width="23.2" height="12" fill="#FFFFFF" opacity="0.09"/><rect x="400.0" y="957.9" width="23.2" height="12" fill="#FFFFFF" opacity="0.29"/><rect x="400.0" y="1047.5" width="23.2" height="12" fill="#FFFFFF" opacity="0.26"/><rect x="400.0" y="1092.4" width="23.2" height="12" fill="#FFFFFF" opacity="0.14"/><rect x="400.0" y="1137.2" width="23.2" height="12" fill="#FFFFFF" opacity="0.14"/><rect x="432.3" y="420.1" width="23.2" height="12" fill="#FFFFFF" opacity="0.26"/><rect x="432.3" y="464.9" width="23.2" height="12" fill="#FFFFFF" opacity="0.22"/><rect x="432.3" y="509.7" width="23.2" height="12" fill="#FFFFFF" opacity="0.20"/><rect x="432.3" y="644.2" width="23.2" height="12" fill="#FFFFFF" opacity="0.29"/><rect x="432.3" y="689.0" width="23.2" height="12" fill="#FFFFFF" opacity="0.14"/><rect x="432.3" y="778.6" width="23.2" height="12" fill="#FFFFFF" opacity="0.11"/><rect x="432.3" y="823.5" width="23.2" height="12" fill="#FFFFFF" opacity="0.08"/><rect x="432.3" y="913.1" width="23.2" height="12" fill="#FFFFFF" opacity="0.30"/><rect x="432.3" y="957.9" width="23.2" height="12" fill="#FFFFFF" opacity="0.26"/><rect x="432.3" y="1047.5" width="23.2" height="12" fill="#FFFFFF" opacity="0.19"/><rect x="432.3" y="1092.4" width="23.2" height="12" fill="#FFFFFF" opacity="0.31"/><rect x="432.3" y="1137.2" width="23.2" height="12" fill="#FFFFFF" opacity="0.29"/><rect x="464.7" y="509.7" width="23.2" height="12" fill="#FFFFFF" opacity="0.19"/><rect x="464.7" y="554.5" width="23.2" height="12" fill="#FFFFFF" opacity="0.25"/><rect x="464.7" y="599.4" width="23.2" height="12" fill="#FFFFFF" opacity="0.32"/><rect x="464.7" y="689.0" width="23.2" height="12" fill="#FFFFFF" opacity="0.33"/><rect x="464.7" y="778.6" width="23.2" height="12" fill="#FFFFFF" opacity="0.13"/><rect x="464.7" y="913.1" width="23.2" height="12" fill="#FFFFFF" opacity="0.16"/><rect x="464.7" y="957.9" width="23.2" height="12" fill="#FFFFFF" opacity="0.26"/><rect x="464.7" y="1047.5" width="23.2" height="12" fill="#FFFFFF" opacity="0.32"/><rect x="464.7" y="1137.2" width="23.2" height="12" fill="#FFFFFF" opacity="0.10"/><rect x="497.0" y="420.1" width="23.2" height="12" fill="#FFFFFF" opacity="0.30"/><rect x="497.0" y="464.9" width="23.2" height="12" fill="#FFFFFF" opacity="0.10"/><rect x="497.0" y="509.7" width="23.2" height="12" fill="#FFFFFF" opacity="0.24"/><rect x="497.0" y="644.2" width="23.2" height="12" fill="#FFFFFF" opacity="0.06"/><rect x="497.0" y="689.0" width="23.2" height="12" fill="#FFFFFF" opacity="0.16"/><rect x="497.0" y="778.6" width="23.2" height="12" fill="#FFFFFF" opacity="0.28"/><rect x="497.0" y="823.5" width="23.2" height="12" fill="#FFFFFF" opacity="0.18"/><rect x="497.0" y="868.3" width="23.2" height="12" fill="#FFFFFF" opacity="0.22"/><rect x="497.0" y="957.9" width="23.2" height="12" fill="#FFFFFF" opacity="0.29"/><rect x="497.0" y="1047.5" width="23.2" height="12" fill="#FFFFFF" opacity="0.19"/><rect x="497.0" y="1092.4" width="23.2" height="12" fill="#FFFFFF" opacity="0.11"/><rect x="497.0" y="1137.2" width="23.2" height="12" fill="#FFFFFF" opacity="0.19"/><rect x="529.3" y="420.1" width="23.2" height="12" fill="#FFFFFF" opacity="0.19"/><rect x="529.3" y="464.9" width="23.2" height="12" fill="#FFFFFF" opacity="0.12"/><rect x="529.3" y="599.4" width="23.2" height="12" fill="#FFFFFF" opacity="0.33"/><rect x="529.3" y="644.2" width="23.2" height="12" fill="#FFFFFF" opacity="0.07"/><rect x="529.3" y="689.0" width="23.2" height="12" fill="#FFFFFF" opacity="0.12"/><rect x="529.3" y="733.8" width="23.2" height="12" fill="#FFFFFF" opacity="0.29"/><rect x="529.3" y="778.6" width="23.2" height="12" fill="#FFFFFF" opacity="0.19"/><rect x="529.3" y="868.3" width="23.2" height="12" fill="#EC1C2D" opacity="0.10"/><rect x="529.3" y="913.1" width="23.2" height="12" fill="#FFFFFF" opacity="0.30"/><rect x="529.3" y="957.9" width="23.2" height="12" fill="#FFFFFF" opacity="0.12"/><rect x="529.3" y="1047.5" width="23.2" height="12" fill="#FFFFFF" opacity="0.25"/><rect x="529.3" y="1092.4" width="23.2" height="12" fill="#FFFFFF" opacity="0.06"/><rect x="590.0" y="470.2" width="241.0" height="729.8" fill="#000" opacity="0.45"/><rect x="600.0" y="492.2" width="22.4" height="12" fill="#FFFFFF" opacity="0.21"/><rect x="600.0" y="538.2" width="22.4" height="12" fill="#FFFFFF" opacity="0.31"/><rect x="600.0" y="630.1" width="22.4" height="12" fill="#FFFFFF" opacity="0.22"/><rect x="600.0" y="676.1" width="22.4" height="12" fill="#FFFFFF" opacity="0.11"/><rect x="600.0" y="722.1" width="22.4" height="12" fill="#FFFFFF" opacity="0.20"/><rect x="600.0" y="906.1" width="22.4" height="12" fill="#FFFFFF" opacity="0.13"/><rect x="600.0" y="952.1" width="22.4" height="12" fill="#FFFFFF" opacity="0.08"/><rect x="600.0" y="998.0" width="22.4" height="12" fill="#FFFFFF" opacity="0.33"/><rect x="600.0" y="1090.0" width="22.4" height="12" fill="#FFFFFF" opacity="0.12"/><rect x="600.0" y="1136.0" width="22.4" height="12" fill="#FFFFFF" opacity="0.22"/><rect x="631.5" y="538.2" width="22.4" height="12" fill="#FFFFFF" opacity="0.18"/><rect x="631.5" y="584.2" width="22.4" height="12" fill="#FFFFFF" opacity="0.31"/><rect x="631.5" y="630.1" width="22.4" height="12" fill="#FFFFFF" opacity="0.31"/><rect x="631.5" y="676.1" width="22.4" height="12" fill="#FFFFFF" opacity="0.18"/><rect x="631.5" y="722.1" width="22.4" height="12" fill="#FFFFFF" opacity="0.23"/><rect x="631.5" y="768.1" width="22.4" height="12" fill="#FFFFFF" opacity="0.18"/><rect x="631.5" y="814.1" width="22.4" height="12" fill="#FFFFFF" opacity="0.11"/><rect x="631.5" y="860.1" width="22.4" height="12" fill="#FFFFFF" opacity="0.30"/><rect x="631.5" y="906.1" width="22.4" height="12" fill="#FFFFFF" opacity="0.25"/><rect x="631.5" y="952.1" width="22.4" height="12" fill="#FFFFFF" opacity="0.20"/><rect x="631.5" y="998.0" width="22.4" height="12" fill="#FFFFFF" opacity="0.19"/><rect x="631.5" y="1090.0" width="22.4" height="12" fill="#FFFFFF" opacity="0.17"/><rect x="631.5" y="1136.0" width="22.4" height="12" fill="#FFFFFF" opacity="0.20"/><rect x="663.1" y="492.2" width="22.4" height="12" fill="#FFFFFF" opacity="0.15"/><rect x="663.1" y="538.2" width="22.4" height="12" fill="#FFFFFF" opacity="0.20"/><rect x="663.1" y="584.2" width="22.4" height="12" fill="#FFFFFF" opacity="0.33"/><rect x="663.1" y="676.1" width="22.4" height="12" fill="#FFFFFF" opacity="0.27"/><rect x="663.1" y="768.1" width="22.4" height="12" fill="#FFFFFF" opacity="0.16"/><rect x="663.1" y="814.1" width="22.4" height="12" fill="#FFFFFF" opacity="0.07"/><rect x="663.1" y="860.1" width="22.4" height="12" fill="#FFFFFF" opacity="0.27"/><rect x="663.1" y="906.1" width="22.4" height="12" fill="#FFFFFF" opacity="0.24"/><rect x="663.1" y="952.1" width="22.4" height="12" fill="#FFFFFF" opacity="0.09"/><rect x="663.1" y="998.0" width="22.4" height="12" fill="#FFFFFF" opacity="0.22"/><rect x="663.1" y="1090.0" width="22.4" height="12" fill="#EC1C2D" opacity="0.28"/><rect x="663.1" y="1136.0" width="22.4" height="12" fill="#FFFFFF" opacity="0.07"/><rect x="694.7" y="492.2" width="22.4" height="12" fill="#FFFFFF" opacity="0.12"/><rect x="694.7" y="538.2" width="22.4" height="12" fill="#FFFFFF" opacity="0.26"/><rect x="694.7" y="584.2" width="22.4" height="12" fill="#FFFFFF" opacity="0.28"/><rect x="694.7" y="676.1" width="22.4" height="12" fill="#EC1C2D" opacity="0.27"/><rect x="694.7" y="722.1" width="22.4" height="12" fill="#FFFFFF" opacity="0.10"/><rect x="694.7" y="860.1" width="22.4" height="12" fill="#FFFFFF" opacity="0.12"/><rect x="694.7" y="906.1" width="22.4" height="12" fill="#FFFFFF" opacity="0.33"/><rect x="694.7" y="998.0" width="22.4" height="12" fill="#FFFFFF" opacity="0.13"/><rect x="726.2" y="538.2" width="22.4" height="12" fill="#FFFFFF" opacity="0.22"/><rect x="726.2" y="584.2" width="22.4" height="12" fill="#FFFFFF" opacity="0.33"/><rect x="726.2" y="630.1" width="22.4" height="12" fill="#FFFFFF" opacity="0.31"/><rect x="726.2" y="676.1" width="22.4" height="12" fill="#FFFFFF" opacity="0.22"/><rect x="726.2" y="722.1" width="22.4" height="12" fill="#FFFFFF" opacity="0.26"/><rect x="726.2" y="814.1" width="22.4" height="12" fill="#FFFFFF" opacity="0.14"/><rect x="726.2" y="860.1" width="22.4" height="12" fill="#FFFFFF" opacity="0.17"/><rect x="726.2" y="998.0" width="22.4" height="12" fill="#FFFFFF" opacity="0.13"/><rect x="726.2" y="1044.0" width="22.4" height="12" fill="#FFFFFF" opacity="0.14"/><rect x="726.2" y="1090.0" width="22.4" height="12" fill="#FFFFFF" opacity="0.19"/><rect x="726.2" y="1136.0" width="22.4" height="12" fill="#FFFFFF" opacity="0.21"/><rect x="757.8" y="492.2" width="22.4" height="12" fill="#FFFFFF" opacity="0.32"/><rect x="757.8" y="538.2" width="22.4" height="12" fill="#FFFFFF" opacity="0.08"/><rect x="757.8" y="630.1" width="22.4" height="12" fill="#FFFFFF" opacity="0.33"/><rect x="757.8" y="676.1" width="22.4" height="12" fill="#FFFFFF" opacity="0.07"/><rect x="757.8" y="952.1" width="22.4" height="12" fill="#FFFFFF" opacity="0.28"/><rect x="789.4" y="492.2" width="22.4" height="12" fill="#FFFFFF" opacity="0.08"/><rect x="789.4" y="538.2" width="22.4" height="12" fill="#FFFFFF" opacity="0.25"/><rect x="789.4" y="584.2" width="22.4" height="12" fill="#FFFFFF" opacity="0.28"/><rect x="789.4" y="630.1" width="22.4" height="12" fill="#FFFFFF" opacity="0.14"/><rect x="789.4" y="722.1" width="22.4" height="12" fill="#FFFFFF" opacity="0.30"/><rect x="789.4" y="768.1" width="22.4" height="12" fill="#FFFFFF" opacity="0.18"/><rect x="789.4" y="814.1" width="22.4" height="12" fill="#EC1C2D" opacity="0.27"/><rect x="789.4" y="860.1" width="22.4" height="12" fill="#FFFFFF" opacity="0.14"/><rect x="789.4" y="906.1" width="22.4" height="12" fill="#FFFFFF" opacity="0.15"/><rect x="789.4" y="952.1" width="22.4" height="12" fill="#FFFFFF" opacity="0.16"/><rect x="789.4" y="998.0" width="22.4" height="12" fill="#EC1C2D" opacity="0.24"/><rect x="789.4" y="1044.0" width="22.4" height="12" fill="#FFFFFF" opacity="0.31"/><rect x="789.4" y="1090.0" width="22.4" height="12" fill="#FFFFFF" opacity="0.20"/><rect x="789.4" y="1136.0" width="22.4" height="12" fill="#FFFFFF" opacity="0.11"/><rect x="874.4" y="298.3" width="149.5" height="901.7" fill="#000" opacity="0.24"/><rect x="884.4" y="320.3" width="25.4" height="12" fill="#EC1C2D" opacity="0.09"/><rect x="884.4" y="411.0" width="25.4" height="12" fill="#FFFFFF" opacity="0.34"/><rect x="884.4" y="456.3" width="25.4" height="12" fill="#FFFFFF" opacity="0.17"/><rect x="884.4" y="501.7" width="25.4" height="12" fill="#FFFFFF" opacity="0.28"/><rect x="884.4" y="637.8" width="25.4" height="12" fill="#FFFFFF" opacity="0.08"/><rect x="884.4" y="728.5" width="25.4" height="12" fill="#FFFFFF" opacity="0.25"/><rect x="884.4" y="773.8" width="25.4" height="12" fill="#EC1C2D" opacity="0.24"/><rect x="884.4" y="819.2" width="25.4" height="12" fill="#FFFFFF" opacity="0.31"/><rect x="884.4" y="864.5" width="25.4" height="12" fill="#FFFFFF" opacity="0.12"/><rect x="884.4" y="955.2" width="25.4" height="12" fill="#FFFFFF" opacity="0.27"/><rect x="884.4" y="1045.9" width="25.4" height="12" fill="#FFFFFF" opacity="0.14"/><rect x="884.4" y="1136.6" width="25.4" height="12" fill="#FFFFFF" opacity="0.33"/><rect x="916.8" y="365.6" width="25.4" height="12" fill="#FFFFFF" opacity="0.33"/><rect x="916.8" y="456.3" width="25.4" height="12" fill="#EC1C2D" opacity="0.25"/><rect x="916.8" y="501.7" width="25.4" height="12" fill="#FFFFFF" opacity="0.27"/><rect x="916.8" y="637.8" width="25.4" height="12" fill="#FFFFFF" opacity="0.32"/><rect x="916.8" y="728.5" width="25.4" height="12" fill="#EC1C2D" opacity="0.26"/><rect x="916.8" y="773.8" width="25.4" height="12" fill="#FFFFFF" opacity="0.14"/><rect x="916.8" y="909.9" width="25.4" height="12" fill="#FFFFFF" opacity="0.29"/><rect x="916.8" y="1000.6" width="25.4" height="12" fill="#FFFFFF" opacity="0.14"/><rect x="916.8" y="1045.9" width="25.4" height="12" fill="#FFFFFF" opacity="0.13"/><rect x="916.8" y="1091.3" width="25.4" height="12" fill="#FFFFFF" opacity="0.28"/><rect x="916.8" y="1136.6" width="25.4" height="12" fill="#FFFFFF" opacity="0.27"/><rect x="949.2" y="320.3" width="25.4" height="12" fill="#FFFFFF" opacity="0.28"/><rect x="949.2" y="365.6" width="25.4" height="12" fill="#FFFFFF" opacity="0.18"/><rect x="949.2" y="411.0" width="25.4" height="12" fill="#FFFFFF" opacity="0.15"/><rect x="949.2" y="501.7" width="25.4" height="12" fill="#FFFFFF" opacity="0.30"/><rect x="949.2" y="592.4" width="25.4" height="12" fill="#FFFFFF" opacity="0.28"/><rect x="949.2" y="683.1" width="25.4" height="12" fill="#EC1C2D" opacity="0.27"/><rect x="949.2" y="728.5" width="25.4" height="12" fill="#FFFFFF" opacity="0.08"/><rect x="949.2" y="773.8" width="25.4" height="12" fill="#FFFFFF" opacity="0.22"/><rect x="949.2" y="819.2" width="25.4" height="12" fill="#FFFFFF" opacity="0.12"/><rect x="949.2" y="909.9" width="25.4" height="12" fill="#FFFFFF" opacity="0.32"/><rect x="949.2" y="955.2" width="25.4" height="12" fill="#FFFFFF" opacity="0.13"/><rect x="949.2" y="1000.6" width="25.4" height="12" fill="#FFFFFF" opacity="0.27"/><rect x="949.2" y="1045.9" width="25.4" height="12" fill="#FFFFFF" opacity="0.28"/><rect x="949.2" y="1091.3" width="25.4" height="12" fill="#FFFFFF" opacity="0.11"/><rect x="949.2" y="1136.6" width="25.4" height="12" fill="#FFFFFF" opacity="0.11"/><rect x="981.5" y="320.3" width="25.4" height="12" fill="#FFFFFF" opacity="0.19"/><rect x="981.5" y="411.0" width="25.4" height="12" fill="#FFFFFF" opacity="0.30"/><rect x="981.5" y="456.3" width="25.4" height="12" fill="#EC1C2D" opacity="0.30"/><rect x="981.5" y="501.7" width="25.4" height="12" fill="#FFFFFF" opacity="0.30"/><rect x="981.5" y="592.4" width="25.4" height="12" fill="#FFFFFF" opacity="0.23"/><rect x="981.5" y="728.5" width="25.4" height="12" fill="#FFFFFF" opacity="0.14"/><rect x="981.5" y="955.2" width="25.4" height="12" fill="#FFFFFF" opacity="0.10"/><rect x="981.5" y="1000.6" width="25.4" height="12" fill="#FFFFFF" opacity="0.17"/><rect x="981.5" y="1136.6" width="25.4" height="12" fill="#FFFFFF" opacity="0.30"/><rect x="1045.2" y="366.6" width="234.6" height="833.4" fill="#000" opacity="0.37"/><rect x="1055.2" y="388.6" width="27.1" height="12" fill="#FFFFFF" opacity="0.18"/><rect x="1055.2" y="476.8" width="27.1" height="12" fill="#FFFFFF" opacity="0.32"/><rect x="1055.2" y="609.0" width="27.1" height="12" fill="#FFFFFF" opacity="0.19"/><rect x="1055.2" y="697.2" width="27.1" height="12" fill="#EC1C2D" opacity="0.22"/><rect x="1055.2" y="741.2" width="27.1" height="12" fill="#FFFFFF" opacity="0.26"/><rect x="1055.2" y="785.3" width="27.1" height="12" fill="#FFFFFF" opacity="0.13"/><rect x="1055.2" y="829.4" width="27.1" height="12" fill="#FFFFFF" opacity="0.19"/><rect x="1055.2" y="873.5" width="27.1" height="12" fill="#FFFFFF" opacity="0.09"/><rect x="1055.2" y="917.5" width="27.1" height="12" fill="#FFFFFF" opacity="0.08"/><rect x="1055.2" y="961.6" width="27.1" height="12" fill="#FFFFFF" opacity="0.18"/><rect x="1055.2" y="1005.7" width="27.1" height="12" fill="#FFFFFF" opacity="0.16"/><rect x="1055.2" y="1137.9" width="27.1" height="12" fill="#FFFFFF" opacity="0.19"/><rect x="1091.0" y="520.9" width="27.1" height="12" fill="#FFFFFF" opacity="0.16"/><rect x="1091.0" y="564.9" width="27.1" height="12" fill="#FFFFFF" opacity="0.32"/><rect x="1091.0" y="609.0" width="27.1" height="12" fill="#FFFFFF" opacity="0.16"/><rect x="1091.0" y="741.2" width="27.1" height="12" fill="#EC1C2D" opacity="0.13"/><rect x="1091.0" y="785.3" width="27.1" height="12" fill="#EC1C2D" opacity="0.26"/><rect x="1091.0" y="829.4" width="27.1" height="12" fill="#FFFFFF" opacity="0.27"/><rect x="1091.0" y="917.5" width="27.1" height="12" fill="#FFFFFF" opacity="0.34"/><rect x="1091.0" y="1005.7" width="27.1" height="12" fill="#FFFFFF" opacity="0.14"/><rect x="1091.0" y="1049.8" width="27.1" height="12" fill="#FFFFFF" opacity="0.33"/><rect x="1091.0" y="1137.9" width="27.1" height="12" fill="#EC1C2D" opacity="0.23"/><rect x="1126.7" y="432.7" width="27.1" height="12" fill="#EC1C2D" opacity="0.06"/><rect x="1126.7" y="476.8" width="27.1" height="12" fill="#FFFFFF" opacity="0.17"/><rect x="1126.7" y="564.9" width="27.1" height="12" fill="#EC1C2D" opacity="0.20"/><rect x="1126.7" y="609.0" width="27.1" height="12" fill="#FFFFFF" opacity="0.21"/><rect x="1126.7" y="741.2" width="27.1" height="12" fill="#FFFFFF" opacity="0.28"/><rect x="1126.7" y="785.3" width="27.1" height="12" fill="#FFFFFF" opacity="0.15"/><rect x="1126.7" y="829.4" width="27.1" height="12" fill="#EC1C2D" opacity="0.22"/><rect x="1126.7" y="917.5" width="27.1" height="12" fill="#FFFFFF" opacity="0.33"/><rect x="1126.7" y="961.6" width="27.1" height="12" fill="#FFFFFF" opacity="0.22"/><rect x="1126.7" y="1005.7" width="27.1" height="12" fill="#EC1C2D" opacity="0.21"/><rect x="1126.7" y="1137.9" width="27.1" height="12" fill="#FFFFFF" opacity="0.29"/><rect x="1162.5" y="388.6" width="27.1" height="12" fill="#FFFFFF" opacity="0.24"/><rect x="1162.5" y="432.7" width="27.1" height="12" fill="#FFFFFF" opacity="0.20"/><rect x="1162.5" y="476.8" width="27.1" height="12" fill="#FFFFFF" opacity="0.22"/><rect x="1162.5" y="520.9" width="27.1" height="12" fill="#EC1C2D" opacity="0.31"/><rect x="1162.5" y="609.0" width="27.1" height="12" fill="#FFFFFF" opacity="0.19"/><rect x="1162.5" y="653.1" width="27.1" height="12" fill="#EC1C2D" opacity="0.30"/><rect x="1162.5" y="741.2" width="27.1" height="12" fill="#FFFFFF" opacity="0.29"/><rect x="1162.5" y="829.4" width="27.1" height="12" fill="#FFFFFF" opacity="0.12"/><rect x="1162.5" y="961.6" width="27.1" height="12" fill="#FFFFFF" opacity="0.19"/><rect x="1162.5" y="1093.8" width="27.1" height="12" fill="#FFFFFF" opacity="0.28"/><rect x="1162.5" y="1137.9" width="27.1" height="12" fill="#FFFFFF" opacity="0.13"/><rect x="1198.3" y="388.6" width="27.1" height="12" fill="#FFFFFF" opacity="0.24"/><rect x="1198.3" y="432.7" width="27.1" height="12" fill="#FFFFFF" opacity="0.23"/><rect x="1198.3" y="476.8" width="27.1" height="12" fill="#FFFFFF" opacity="0.29"/><rect x="1198.3" y="520.9" width="27.1" height="12" fill="#EC1C2D" opacity="0.20"/><rect x="1198.3" y="564.9" width="27.1" height="12" fill="#FFFFFF" opacity="0.21"/><rect x="1198.3" y="609.0" width="27.1" height="12" fill="#FFFFFF" opacity="0.16"/><rect x="1198.3" y="653.1" width="27.1" height="12" fill="#FFFFFF" opacity="0.23"/><rect x="1198.3" y="697.2" width="27.1" height="12" fill="#FFFFFF" opacity="0.29"/><rect x="1198.3" y="741.2" width="27.1" height="12" fill="#EC1C2D" opacity="0.18"/><rect x="1198.3" y="873.5" width="27.1" height="12" fill="#FFFFFF" opacity="0.23"/><rect x="1198.3" y="1005.7" width="27.1" height="12" fill="#FFFFFF" opacity="0.21"/><rect x="1198.3" y="1049.8" width="27.1" height="12" fill="#FFFFFF" opacity="0.12"/><rect x="1198.3" y="1093.8" width="27.1" height="12" fill="#FFFFFF" opacity="0.34"/><rect x="1198.3" y="1137.9" width="27.1" height="12" fill="#FFFFFF" opacity="0.29"/><rect x="1234.0" y="388.6" width="27.1" height="12" fill="#FFFFFF" opacity="0.32"/><rect x="1234.0" y="432.7" width="27.1" height="12" fill="#EC1C2D" opacity="0.28"/><rect x="1234.0" y="520.9" width="27.1" height="12" fill="#EC1C2D" opacity="0.22"/><rect x="1234.0" y="564.9" width="27.1" height="12" fill="#FFFFFF" opacity="0.31"/><rect x="1234.0" y="609.0" width="27.1" height="12" fill="#FFFFFF" opacity="0.29"/><rect x="1234.0" y="653.1" width="27.1" height="12" fill="#EC1C2D" opacity="0.10"/><rect x="1234.0" y="697.2" width="27.1" height="12" fill="#FFFFFF" opacity="0.23"/><rect x="1234.0" y="741.2" width="27.1" height="12" fill="#FFFFFF" opacity="0.22"/><rect x="1234.0" y="785.3" width="27.1" height="12" fill="#FFFFFF" opacity="0.19"/><rect x="1234.0" y="873.5" width="27.1" height="12" fill="#FFFFFF" opacity="0.07"/><rect x="1234.0" y="961.6" width="27.1" height="12" fill="#FFFFFF" opacity="0.22"/><rect x="1234.0" y="1005.7" width="27.1" height="12" fill="#FFFFFF" opacity="0.09"/><rect x="1234.0" y="1049.8" width="27.1" height="12" fill="#FFFFFF" opacity="0.31"/><rect x="1234.0" y="1093.8" width="27.1" height="12" fill="#FFFFFF" opacity="0.30"/><rect x="1308.9" y="258.4" width="198.4" height="941.6" fill="#000" opacity="0.37"/><rect x="1318.9" y="370.6" width="27.7" height="12" fill="#FFFFFF" opacity="0.34"/><rect x="1318.9" y="415.7" width="27.7" height="12" fill="#EC1C2D" opacity="0.24"/><rect x="1318.9" y="550.9" width="27.7" height="12" fill="#FFFFFF" opacity="0.29"/><rect x="1318.9" y="686.1" width="27.7" height="12" fill="#FFFFFF" opacity="0.21"/><rect x="1318.9" y="731.2" width="27.7" height="12" fill="#FFFFFF" opacity="0.14"/><rect x="1318.9" y="776.3" width="27.7" height="12" fill="#FFFFFF" opacity="0.23"/><rect x="1318.9" y="821.4" width="27.7" height="12" fill="#FFFFFF" opacity="0.22"/><rect x="1318.9" y="866.5" width="27.7" height="12" fill="#FFFFFF" opacity="0.20"/><rect x="1318.9" y="911.5" width="27.7" height="12" fill="#FFFFFF" opacity="0.09"/><rect x="1318.9" y="1001.7" width="27.7" height="12" fill="#FFFFFF" opacity="0.30"/><rect x="1318.9" y="1046.8" width="27.7" height="12" fill="#FFFFFF" opacity="0.10"/><rect x="1318.9" y="1091.8" width="27.7" height="12" fill="#FFFFFF" opacity="0.31"/><rect x="1318.9" y="1136.9" width="27.7" height="12" fill="#FFFFFF" opacity="0.21"/><rect x="1354.6" y="280.4" width="27.7" height="12" fill="#FFFFFF" opacity="0.27"/><rect x="1354.6" y="370.6" width="27.7" height="12" fill="#FFFFFF" opacity="0.29"/><rect x="1354.6" y="415.7" width="27.7" height="12" fill="#FFFFFF" opacity="0.09"/><rect x="1354.6" y="460.7" width="27.7" height="12" fill="#FFFFFF" opacity="0.19"/><rect x="1354.6" y="505.8" width="27.7" height="12" fill="#FFFFFF" opacity="0.07"/><rect x="1354.6" y="550.9" width="27.7" height="12" fill="#EC1C2D" opacity="0.31"/><rect x="1354.6" y="866.5" width="27.7" height="12" fill="#FFFFFF" opacity="0.34"/><rect x="1354.6" y="911.5" width="27.7" height="12" fill="#FFFFFF" opacity="0.25"/><rect x="1354.6" y="956.6" width="27.7" height="12" fill="#FFFFFF" opacity="0.13"/><rect x="1354.6" y="1001.7" width="27.7" height="12" fill="#FFFFFF" opacity="0.12"/><rect x="1354.6" y="1091.8" width="27.7" height="12" fill="#FFFFFF" opacity="0.08"/><rect x="1354.6" y="1136.9" width="27.7" height="12" fill="#FFFFFF" opacity="0.31"/><rect x="1390.2" y="280.4" width="27.7" height="12" fill="#FFFFFF" opacity="0.17"/><rect x="1390.2" y="370.6" width="27.7" height="12" fill="#EC1C2D" opacity="0.24"/><rect x="1390.2" y="415.7" width="27.7" height="12" fill="#FFFFFF" opacity="0.10"/><rect x="1390.2" y="505.8" width="27.7" height="12" fill="#FFFFFF" opacity="0.30"/><rect x="1390.2" y="550.9" width="27.7" height="12" fill="#FFFFFF" opacity="0.12"/><rect x="1390.2" y="596.0" width="27.7" height="12" fill="#FFFFFF" opacity="0.29"/><rect x="1390.2" y="641.1" width="27.7" height="12" fill="#FFFFFF" opacity="0.31"/><rect x="1390.2" y="686.1" width="27.7" height="12" fill="#FFFFFF" opacity="0.22"/><rect x="1390.2" y="731.2" width="27.7" height="12" fill="#FFFFFF" opacity="0.08"/><rect x="1390.2" y="911.5" width="27.7" height="12" fill="#FFFFFF" opacity="0.19"/><rect x="1390.2" y="956.6" width="27.7" height="12" fill="#FFFFFF" opacity="0.31"/><rect x="1390.2" y="1001.7" width="27.7" height="12" fill="#FFFFFF" opacity="0.19"/><rect x="1390.2" y="1046.8" width="27.7" height="12" fill="#FFFFFF" opacity="0.07"/><rect x="1425.9" y="280.4" width="27.7" height="12" fill="#EC1C2D" opacity="0.34"/><rect x="1425.9" y="325.5" width="27.7" height="12" fill="#FFFFFF" opacity="0.11"/><rect x="1425.9" y="370.6" width="27.7" height="12" fill="#FFFFFF" opacity="0.26"/><rect x="1425.9" y="550.9" width="27.7" height="12" fill="#FFFFFF" opacity="0.31"/><rect x="1425.9" y="686.1" width="27.7" height="12" fill="#FFFFFF" opacity="0.22"/><rect x="1425.9" y="776.3" width="27.7" height="12" fill="#FFFFFF" opacity="0.19"/><rect x="1425.9" y="911.5" width="27.7" height="12" fill="#FFFFFF" opacity="0.30"/><rect x="1425.9" y="1136.9" width="27.7" height="12" fill="#FFFFFF" opacity="0.16"/><rect x="1461.6" y="325.5" width="27.7" height="12" fill="#FFFFFF" opacity="0.17"/><rect x="1461.6" y="370.6" width="27.7" height="12" fill="#FFFFFF" opacity="0.15"/><rect x="1461.6" y="460.7" width="27.7" height="12" fill="#FFFFFF" opacity="0.33"/><rect x="1461.6" y="596.0" width="27.7" height="12" fill="#FFFFFF" opacity="0.22"/><rect x="1461.6" y="731.2" width="27.7" height="12" fill="#FFFFFF" opacity="0.10"/><rect x="1461.6" y="776.3" width="27.7" height="12" fill="#FFFFFF" opacity="0.19"/><rect x="1461.6" y="866.5" width="27.7" height="12" fill="#FFFFFF" opacity="0.27"/><rect x="1461.6" y="956.6" width="27.7" height="12" fill="#EC1C2D" opacity="0.18"/><rect x="1461.6" y="1001.7" width="27.7" height="12" fill="#FFFFFF" opacity="0.16"/><rect x="1461.6" y="1046.8" width="27.7" height="12" fill="#FFFFFF" opacity="0.12"/><rect x="1461.6" y="1136.9" width="27.7" height="12" fill="#FFFFFF" opacity="0.11"/><rect x="1541.4" y="320.4" width="111.2" height="879.6" fill="#000" opacity="0.26"/><rect x="1551.4" y="342.4" width="25.1" height="12" fill="#FFFFFF" opacity="0.14"/><rect x="1551.4" y="475.0" width="25.1" height="12" fill="#FFFFFF" opacity="0.28"/><rect x="1551.4" y="519.2" width="25.1" height="12" fill="#FFFFFF" opacity="0.18"/><rect x="1551.4" y="563.4" width="25.1" height="12" fill="#FFFFFF" opacity="0.11"/><rect x="1551.4" y="651.7" width="25.1" height="12" fill="#FFFFFF" opacity="0.14"/><rect x="1551.4" y="695.9" width="25.1" height="12" fill="#FFFFFF" opacity="0.34"/><rect x="1551.4" y="740.1" width="25.1" height="12" fill="#FFFFFF" opacity="0.32"/><rect x="1551.4" y="916.9" width="25.1" height="12" fill="#FFFFFF" opacity="0.24"/><rect x="1551.4" y="1049.4" width="25.1" height="12" fill="#FFFFFF" opacity="0.24"/><rect x="1551.4" y="1137.8" width="25.1" height="12" fill="#FFFFFF" opacity="0.20"/><rect x="1581.8" y="342.4" width="25.1" height="12" fill="#FFFFFF" opacity="0.07"/><rect x="1581.8" y="386.6" width="25.1" height="12" fill="#FFFFFF" opacity="0.07"/><rect x="1581.8" y="475.0" width="25.1" height="12" fill="#FFFFFF" opacity="0.09"/><rect x="1581.8" y="519.2" width="25.1" height="12" fill="#FFFFFF" opacity="0.27"/><rect x="1581.8" y="607.6" width="25.1" height="12" fill="#FFFFFF" opacity="0.11"/><rect x="1581.8" y="695.9" width="25.1" height="12" fill="#FFFFFF" opacity="0.27"/><rect x="1581.8" y="828.5" width="25.1" height="12" fill="#FFFFFF" opacity="0.19"/><rect x="1581.8" y="872.7" width="25.1" height="12" fill="#FFFFFF" opacity="0.32"/><rect x="1581.8" y="916.9" width="25.1" height="12" fill="#FFFFFF" opacity="0.28"/><rect x="1581.8" y="961.1" width="25.1" height="12" fill="#FFFFFF" opacity="0.09"/><rect x="1581.8" y="1005.2" width="25.1" height="12" fill="#EC1C2D" opacity="0.17"/><rect x="1581.8" y="1049.4" width="25.1" height="12" fill="#FFFFFF" opacity="0.11"/><rect x="1581.8" y="1137.8" width="25.1" height="12" fill="#FFFFFF" opacity="0.12"/><rect x="1612.2" y="342.4" width="25.1" height="12" fill="#FFFFFF" opacity="0.25"/><rect x="1612.2" y="386.6" width="25.1" height="12" fill="#FFFFFF" opacity="0.34"/><rect x="1612.2" y="430.8" width="25.1" height="12" fill="#FFFFFF" opacity="0.16"/><rect x="1612.2" y="651.7" width="25.1" height="12" fill="#FFFFFF" opacity="0.07"/><rect x="1612.2" y="872.7" width="25.1" height="12" fill="#FFFFFF" opacity="0.29"/><rect x="1612.2" y="961.1" width="25.1" height="12" fill="#FFFFFF" opacity="0.22"/><rect x="1612.2" y="1005.2" width="25.1" height="12" fill="#FFFFFF" opacity="0.11"/><rect x="1612.2" y="1093.6" width="25.1" height="12" fill="#FFFFFF" opacity="0.24"/><rect x="1612.2" y="1137.8" width="25.1" height="12" fill="#FFFFFF" opacity="0.26"/>
  <rect width="1600" height="1200" fill="#000000" opacity="0.1"/>
</svg>
