<svg xmlns="http://www.w3.org/2000/svg" viewBox="0 0 1600 1200" width="1600" height="1200" role="img">
  <defs>
    <linearGradient id="sicon100" x1="0" y1="0" x2="0" y2="1">
      <stop offset="0%" stop-color="#24589E"/>
      <stop offset="58%" stop-color="#0B1830"/>
      <stop offset="100%" stop-color="#000000"/>
    </linearGradient>
    <radialGradient id="gricon100">
      <stop offset="0%" stop-color="#EC1C2D" stop-opacity="0.8"/>
      <stop offset="100%" stop-color="#EC1C2D" stop-opacity="0"/>
    </radialGradient>
    <radialGradient id="gbicon100">
      <stop offset="0%" stop-color="#9AA2DB" stop-opacity="0.7"/>
      <stop offset="100%" stop-color="#9AA2DB" stop-opacity="0"/>
    </radialGradient>
  </defs>
  <rect width="1600" height="1200" fill="url(#sicon100)"/>
  <circle cx="72%" cy="58%" r="28%" fill="url(#gricon100)" opacity="0.5"/>
  <rect x="0" y="818.3" width="1600" height="2" fill="#EC1C2D" opacity="0.4"/>
  <rect x="-80.0" y="452.0" width="164.1" height="748.0" fill="#000" opacity="0.43"/><rect x="-70.0" y="651.0" width="29.0" height="12" fill="#FFFFFF" opacity="0.25"/><rect x="-70.0" y="695.3" width="29.0" height="12" fill="#FFFFFF" opacity="0.07"/><rect x="-70.0" y="739.5" width="29.0" height="12" fill="#FFFFFF" opacity="0.18"/><rect x="-70.0" y="783.8" width="29.0" height="12" fill="#FFFFFF" opacity="0.12"/><rect x="-70.0" y="828.0" width="29.0" height="12" fill="#FFFFFF" opacity="0.26"/><rect x="-70.0" y="916.5" width="29.0" height="12" fill="#FFFFFF" opacity="0.22"/><rect x="-70.0" y="960.8" width="29.0" height="12" fill="#FFFFFF" opacity="0.22"/><rect x="-70.0" y="1005.0" width="29.0" height="12" fill="#EC1C2D" opacity="0.24"/><rect x="-70.0" y="1049.3" width="29.0" height="12" fill="#FFFFFF" opacity="0.12"/><rect x="-34.0" y="562.5" width="29.0" height="12" fill="#FFFFFF" opacity="0.14"/><rect x="-34.0" y="695.3" width="29.0" height="12" fill="#EC1C2D" opacity="0.25"/><rect x="-34.0" y="739.5" width="29.0" height="12" fill="#FFFFFF" opacity="0.20"/><rect x="-34.0" y="872.3" width="29.0" height="12" fill="#FFFFFF" opacity="0.33"/><rect x="-34.0" y="960.8" width="29.0" height="12" fill="#FFFFFF" opacity="0.11"/><rect x="-34.0" y="1005.0" width="29.0" height="12" fill="#FFFFFF" opacity="0.11"/><rect x="2.0" y="474.0" width="29.0" height="12" fill="#FFFFFF" opacity="0.15"/><rect x="2.0" y="518.3" width="29.0" height="12" fill="#FFFFFF" opacity="0.32"/><rect x="2.0" y="562.5" width="29.0" height="12" fill="#FFFFFF" opacity="0.12"/><rect x="2.0" y="606.8" width="29.0" height="12" fill="#FFFFFF" opacity="0.22"/><rect x="2.0" y="651.0" width="29.0" height="12" fill="#FFFFFF" opacity="0.27"/><rect x="2.0" y="695.3" width="29.0" height="12" fill="#FFFFFF" opacity="0.14"/><rect x="2.0" y="739.5" width="29.0" height="12" fill="#EC1C2D" opacity="0.24"/><rect x="2.0" y="783.8" width="29.0" height="12" fill="#FFFFFF" opacity="0.14"/><rect x="2.0" y="828.0" width="29.0" height="12" fill="#FFFFFF" opacity="0.33"/><rect x="2.0" y="872.3" width="29.0" height="12" fill="#FFFFFF" opacity="0.17"/><rect x="2.0" y="916.5" width="29.0" height="12" fill="#FFFFFF" opacity="0.34"/><rect x="2.0" y="960.8" width="29.0" height="12" fill="#FFFFFF" opacity="0.09"/><rect x="2.0" y="1005.0" width="29.0" height="12" fill="#FFFFFF" opacity="0.18"/><rect x="2.0" y="1049.3" width="29.0" height="12" fill="#FFFFFF" opacity="0.11"/><rect x="2.0" y="1137.8" width="29.0" height="12" fill="#FFFFFF" opacity="0.15"/><rect x="38.1" y="518.3" width="29.0" height="12" fill="#FFFFFF" opacity="0.14"/><rect x="38.1" y="562.5" width="29.0" height="12" fill="#FFFFFF" opacity="0.29"/><rect x="38.1" y="695.3" width="29.0" height="12" fill="#FFFFFF" opacity="0.07"/><rect x="38.1" y="783.8" width="29.0" height="12" fill="#FFFFFF" opacity="0.18"/><rect x="38.1" y="828.0" width="29.0" height="12" fill="#FFFFFF" opacity="0.22"/><rect x="38.1" y="872.3" width="29.0" height="12" fill="#FFFFFF" opacity="0.29"/><rect x="38.1" y="916.5" width="29.0" height="12" fill="#FFFFFF" opacity="0.25"/><rect x="38.1" y="960.8" width="29.0" height="12" fill="#FFFFFF" opacity="0.16"/><rect x="38.1" y="1005.0" width="29.0" height="12" fill="#FFFFFF" opacity="0.20"/><rect x="38.1" y="1049.3" width="29.0" height="12" fill="#FFFFFF" opacity="0.27"/><rect x="38.1" y="1093.5" width="29.0" height="12" fill="#FFFFFF" opacity="0.21"/><rect x="107.1" y="290.0" width="179.8" height="910.0" fill="#000" opacity="0.37"/><rect x="117.1" y="357.7" width="24.0" height="12" fill="#FFFFFF" opacity="0.23"/><rect x="117.1" y="403.5" width="24.0" height="12" fill="#FFFFFF" opacity="0.20"/><rect x="117.1" y="449.3" width="24.0" height="12" fill="#FFFFFF" opacity="0.09"/><rect x="117.1" y="495.1" width="24.0" height="12" fill="#FFFFFF" opacity="0.32"/><rect x="117.1" y="540.9" width="24.0" height="12" fill="#FFFFFF" opacity="0.27"/><rect x="117.1" y="632.5" width="24.0" height="12" fill="#FFFFFF" opacity="0.21"/><rect x="117.1" y="678.3" width="24.0" height="12" fill="#FFFFFF" opacity="0.07"/><rect x="117.1" y="724.1" width="24.0" height="12" fill="#FFFFFF" opacity="0.09"/><rect x="117.1" y="815.7" width="24.0" height="12" fill="#EC1C2D" opacity="0.26"/><rect x="117.1" y="861.5" width="24.0" height="12" fill="#FFFFFF" opacity="0.34"/><rect x="117.1" y="907.2" width="24.0" height="12" fill="#FFFFFF" opacity="0.32"/><rect x="117.1" y="953.0" width="24.0" height="12" fill="#FFFFFF" opacity="0.17"/><rect x="117.1" y="998.8" width="24.0" height="12" fill="#FFFFFF" opacity="0.26"/><rect x="117.1" y="1090.4" width="24.0" height="12" fill="#EC1C2D" opacity="0.32"/><rect x="117.1" y="1136.2" width="24.0" height="12" fill="#FFFFFF" opacity="0.08"/><rect x="149.0" y="357.7" width="24.0" height="12" fill="#FFFFFF" opacity="0.25"/><rect x="149.0" y="403.5" width="24.0" height="12" fill="#FFFFFF" opacity="0.20"/><rect x="149.0" y="495.1" width="24.0" height="12" fill="#FFFFFF" opacity="0.10"/><rect x="149.0" y="540.9" width="24.0" height="12" fill="#FFFFFF" opacity="0.29"/><rect x="149.0" y="586.7" width="24.0" height="12" fill="#FFFFFF" opacity="0.07"/><rect x="149.0" y="632.5" width="24.0" height="12" fill="#FFFFFF" opacity="0.29"/><rect x="149.0" y="678.3" width="24.0" height="12" fill="#FFFFFF" opacity="0.31"/><rect x="149.0" y="724.1" width="24.0" height="12" fill="#FFFFFF" opacity="0.25"/><rect x="149.0" y="815.7" width="24.0" height="12" fill="#EC1C2D" opacity="0.19"/><rect x="149.0" y="953.0" width="24.0" height="12" fill="#FFFFFF" opacity="0.30"/><rect x="149.0" y="998.8" width="24.0" height="12" fill="#FFFFFF" opacity="0.13"/><rect x="149.0" y="1044.6" width="24.0" height="12" fill="#FFFFFF" opacity="0.18"/><rect x="149.0" y="1090.4" width="24.0" height="12" fill="#EC1C2D" opacity="0.11"/><rect x="181.0" y="312.0" width="24.0" height="12" fill="#FFFFFF" opacity="0.12"/><rect x="181.0" y="449.3" width="24.0" height="12" fill="#FFFFFF" opacity="0.31"/><rect x="181.0" y="495.1" width="24.0" height="12" fill="#FFFFFF" opacity="0.17"/><rect x="181.0" y="632.5" width="24.0" height="12" fill="#FFFFFF" opacity="0.09"/><rect x="181.0" y="678.3" width="24.0" height="12" fill="#FFFFFF" opacity="0.20"/><rect x="181.0" y="724.1" width="24.0" height="12" fill="#FFFFFF" opacity="0.29"/><rect x="181.0" y="769.9" width="24.0" height="12" fill="#FFFFFF" opacity="0.16"/><rect x="181.0" y="815.7" width="24.0" height="12" fill="#EC1C2D" opacity="0.10"/><rect x="181.0" y="907.2" width="24.0" height="12" fill="#FFFFFF" opacity="0.20"/><rect x="181.0" y="998.8" width="24.0" height="12" fill="#FFFFFF" opacity="0.14"/><rect x="181.0" y="1090.4" width="24.0" height="12" fill="#FFFFFF" opacity="0.23"/><rect x="212.9" y="312.0" width="24.0" height="12" fill="#EC1C2D" opacity="0.24"/><rect x="212.9" y="357.7" width="24.0" height="12" fill="#FFFFFF" opacity="0.17"/><rect x="212.9" y="403.5" width="24.0" height="12" fill="#EC1C2D" opacity="0.17"/><rect x="212.9" y="449.3" width="24.0" height="12" fill="#FFFFFF" opacity="0.33"/><rect x="212.9" y="540.9" width="24.0" height="12" fill="#EC1C2D" opacity="0.17"/><rect x="212.9" y="724.1" width="24.0" height="12" fill="#FFFFFF" opacity="0.30"/><rect x="212.9" y="769.9" width="24.0" height="12" fill="#FFFFFF" opacity="0.17"/><rect x="212.9" y="815.7" width="24.0" height="12" fill="#FFFFFF" opacity="0.14"/><rect x="212.9" y="953.0" width="24.0" height="12" fill="#FFFFFF" opacity="0.10"/><rect x="212.9" y="1044.6" width="24.0" height="12" fill="#FFFFFF" opacity="0.29"/><rect x="212.9" y="1090.4" width="24.0" height="12" fill="#FFFFFF" opacity="0.08"/><rect x="244.9" y="312.0" width="24.0" height="12" fill="#FFFFFF" opacity="0.12"/><rect x="244.9" y="449.3" width="24.0" height="12" fill="#EC1C2D" opacity="0.14"/><rect x="244.9" y="495.1" width="24.0" height="12" fill="#EC1C2D" opacity="0.06"/><rect x="244.9" y="586.7" width="24.0" height="12" fill="#FFFFFF" opacity="0.07"/><rect x="244.9" y="632.5" width="24.0" height="12" fill="#FFFFFF" opacity="0.10"/><rect x="244.9" y="678.3" width="24.0" height="12" fill="#EC1C2D" opacity="0.28"/><rect x="244.9" y="724.1" width="24.0" height="12" fill="#EC1C2D" opacity="0.15"/><rect x="244.9" y="769.9" width="24.0" height="12" fill="#FFFFFF" opacity="0.32"/><rect x="244.9" y="861.5" width="24.0" height="12" fill="#FFFFFF" opacity="0.07"/><rect x="244.9" y="998.8" width="24.0" height="12" fill="#FFFFFF" opacity="0.10"/><rect x="244.9" y="1044.6" width="24.0" height="12" fill="#FFFFFF" opacity="0.31"/><rect x="329.3" y="422.6" width="157.0" height="777.4" fill="#000" opacity="0.35"/><rect x="339.3" y="490.6" width="27.3" height="12" fill="#FFFFFF" opacity="0.28"/><rect x="339.3" y="582.8" width="27.3" height="12" fill="#FFFFFF" opacity="0.06"/><rect x="339.3" y="675.0" width="27.3" height="12" fill="#FFFFFF" opacity="0.14"/><rect x="339.3" y="721.1" width="27.3" height="12" fill="#FFFFFF" opacity="0.14"/><rect x="339.3" y="813.3" width="27.3" height="12" fill="#FFFFFF" opacity="0.22"/><rect x="339.3" y="951.5" width="27.3" height="12" fill="#FFFFFF" opacity="0.10"/><rect x="339.3" y="997.6" width="27.3" height="12" fill="#FFFFFF" opacity="0.33"/><rect x="339.3" y="1043.7" width="27.3" height="12" fill="#FFFFFF" opacity="0.23"/><rect x="373.6" y="444.6" width="27.3" height="12" fill="#FFFFFF" opacity="0.11"/><rect x="373.6" y="582.8" width="27.3" height="12" fill="#FFFFFF" opacity="0.19"/><rect x="373.6" y="675.0" width="27.3" height="12" fill="#FFFFFF" opacity="0.21"/><rect x="373.6" y="721.1" width="27.3" height="12" fill="#FFFFFF" opacity="0.17"/><rect x="373.6" y="767.2" width="27.3" height="12" fill="#EC1C2D" opacity="0.12"/><rect x="373.6" y="813.3" width="27.3" height="12" fill="#FFFFFF" opacity="0.20"/><rect x="373.6" y="859.4" width="27.3" height="12" fill="#FFFFFF" opacity="0.22"/><rect x="373.6" y="905.5" width="27.3" height="12" fill="#FFFFFF" opacity="0.32"/><rect x="373.6" y="951.5" width="27.3" height="12" fill="#FFFFFF" opacity="0.10"/><rect x="373.6" y="997.6" width="27.3" height="12" fill="#EC1C2D" opacity="0.25"/><rect x="373.6" y="1043.7" width="27.3" height="12" fill="#FFFFFF" opacity="0.10"/><rect x="373.6" y="1089.8" width="27.3" height="12" fill="#FFFFFF" opacity="0.26"/><rect x="373.6" y="1135.9" width="27.3" height="12" fill="#FFFFFF" opacity="0.16"/><rect x="407.8" y="490.6" width="27.3" height="12" fill="#FFFFFF" opacity="0.15"/><rect x="407.8" y="536.7" width="27.3" height="12" fill="#FFFFFF" opacity="0.34"/><rect x="407.8" y="628.9" width="27.3" height="12" fill="#FFFFFF" opacity="0.17"/><rect x="407.8" y="721.1" width="27.3" height="12" fill="#FFFFFF" opacity="0.14"/><rect x="407.8" y="767.2" width="27.3" height="12" fill="#FFFFFF" opacity="0.17"/><rect x="407.8" y="813.3" width="27.3" height="12" fill="#EC1C2D" opacity="0.26"/><rect x="407.8" y="905.5" width="27.3" height="12" fill="#FFFFFF" opacity="0.10"/><rect x="407.8" y="951.5" width="27.3" height="12" fill="#FFFFFF" opacity="0.11"/><rect x="407.8" y="997.6" width="27.3" height="12" fill="#EC1C2D" opacity="0.33"/><rect x="407.8" y="1135.9" width="27.3" height="12" fill="#FFFFFF" opacity="0.13"/><rect x="442.1" y="444.6" width="27.3" height="12" fill="#FFFFFF" opacity="0.09"/><rect x="442.1" y="490.6" width="27.3" height="12" fill="#FFFFFF" opacity="0.17"/><rect x="442.1" y="628.9" width="27.3" height="12" fill="#FFFFFF" opacity="0.32"/><rect x="442.1" y="721.1" width="27.3" height="12" fill="#FFFFFF" opacity="0.29"/><rect x="442.1" y="813.3" width="27.3" height="12" fill="#FFFFFF" opacity="0.15"/><rect x="442.1" y="1043.7" width="27.3" height="12" fill="#FFFFFF" opacity="0.16"/><rect x="442.1" y="1089.8" width="27.3" height="12" fill="#EC1C2D" opacity="0.32"/><rect x="442.1" y="1135.9" width="27.3" height="12" fill="#FFFFFF" opacity="0.19"/><rect x="511.2" y="649.6" width="161.1" height="550.4" fill="#000" opacity="0.38"/><rect x="521.2" y="857.2" width="28.3" height="12" fill="#FFFFFF" opacity="0.14"/><rect x="521.2" y="903.6" width="28.3" height="12" fill="#FFFFFF" opacity="0.24"/><rect x="521.2" y="996.4" width="28.3" height="12" fill="#FFFFFF" opacity="0.26"/><rect x="521.2" y="1042.8" width="28.3" height="12" fill="#FFFFFF" opacity="0.27"/><rect x="521.2" y="1135.6" width="28.3" height="12" fill="#FFFFFF" opacity="0.15"/><rect x="556.5" y="718.0" width="28.3" height="12" fill="#FFFFFF" opacity="0.34"/><rect x="556.5" y="764.4" width="28.3" height="12" fill="#FFFFFF" opacity="0.12"/><rect x="556.5" y="857.2" width="28.3" height="12" fill="#FFFFFF" opacity="0.08"/><rect x="556.5" y="1042.8" width="28.3" height="12" fill="#FFFFFF" opacity="0.33"/><rect x="556.5" y="1135.6" width="28.3" height="12" fill="#EC1C2D" opacity="0.16"/><rect x="591.7" y="671.6" width="28.3" height="12" fill="#FFFFFF" opacity="0.08"/><rect x="591.7" y="718.0" width="28.3" height="12" fill="#FFFFFF" opacity="0.32"/><rect x="591.7" y="857.2" width="28.3" height="12" fill="#EC1C2D" opacity="0.11"/><rect x="591.7" y="903.6" width="28.3" height="12" fill="#FFFFFF" opacity="0.10"/><rect x="591.7" y="996.4" width="28.3" height="12" fill="#FFFFFF" opacity="0.14"/><rect x="591.7" y="1089.2" width="28.3" height="12" fill="#FFFFFF" opacity="0.23"/><rect x="591.7" y="1135.6" width="28.3" height="12" fill="#FFFFFF" opacity="0.30"/><rect x="627.0" y="718.0" width="28.3" height="12" fill="#EC1C2D" opacity="0.34"/><rect x="627.0" y="764.4" width="28.3" height="12" fill="#FFFFFF" opacity="0.25"/><rect x="627.0" y="810.8" width="28.3" height="12" fill="#FFFFFF" opacity="0.29"/><rect x="627.0" y="903.6" width="28.3" height="12" fill="#FFFFFF" opacity="0.26"/><rect x="627.0" y="996.4" width="28.3" height="12" fill="#FFFFFF" opacity="0.30"/><rect x="627.0" y="1135.6" width="28.3" height="12" fill="#FFFFFF" opacity="0.34"/><rect x="689.1" y="464.4" width="102.5" height="735.6" fill="#000" opacity="0.52"/><rect x="699.1" y="486.4" width="22.2" height="12" fill="#FFFFFF" opacity="0.18"/><rect x="699.1" y="532.7" width="22.2" height="12" fill="#FFFFFF" opacity="0.31"/><rect x="699.1" y="579.1" width="22.2" height="12" fill="#FFFFFF" opacity="0.16"/><rect x="699.1" y="625.5" width="22.2" height="12" fill="#FFFFFF" opacity="0.30"/><rect x="699.1" y="671.9" width="22.2" height="12" fill="#FFFFFF" opacity="0.29"/><rect x="699.1" y="764.6" width="22.2" height="12" fill="#EC1C2D" opacity="0.10"/><rect x="699.1" y="857.4" width="22.2" height="12" fill="#FFFFFF" opacity="0.28"/><rect x="699.1" y="950.1" width="22.2" height="12" fill="#FFFFFF" opacity="0.19"/><rect x="699.1" y="1089.2" width="22.2" height="12" fill="#FFFFFF" opacity="0.11"/><rect x="699.1" y="1135.6" width="22.2" height="12" fill="#FFFFFF" opacity="0.25"/><rect x="726.6" y="579.1" width="22.2" height="12" fill="#FFFFFF" opacity="0.24"/><rect x="726.6" y="625.5" width="22.2" height="12" fill="#FFFFFF" opacity="0.14"/><rect x="726.6" y="671.9" width="22.2" height="12" fill="#FFFFFF" opacity="0.24"/><rect x="726.6" y="718.2" width="22.2" height="12" fill="#EC1C2D" opacity="0.32"/><rect x="726.6" y="764.6" width="22.2" height="12" fill="#FFFFFF" opacity="0.26"/><rect x="726.6" y="811.0" width="22.2" height="12" fill="#FFFFFF" opacity="0.21"/><rect x="726.6" y="857.4" width="22.2" height="12" fill="#FFFFFF" opacity="0.28"/><rect x="726.6" y="903.7" width="22.2" height="12" fill="#FFFFFF" opacity="0.10"/><rect x="726.6" y="950.1" width="22.2" height="12" fill="#EC1C2D" opacity="0.07"/><rect x="726.6" y="1042.9" width="22.2" height="12" fill="#FFFFFF" opacity="0.16"/><rect x="726.6" y="1089.2" width="22.2" height="12" fill="#FFFFFF" opacity="0.27"/><rect x="726.6" y="1135.6" width="22.2" height="12" fill="#FFFFFF" opacity="0.22"/><rect x="754.1" y="532.7" width="22.2" height="12" fill="#FFFFFF" opacity="0.31"/><rect x="754.1" y="579.1" width="22.2" height="12" fill="#FFFFFF" opacity="0.23"/><rect x="754.1" y="625.5" width="22.2" height="12" fill="#FFFFFF" opacity="0.28"/><rect x="754.1" y="671.9" width="22.2" height="12" fill="#FFFFFF" opacity="0.22"/><rect x="754.1" y="718.2" width="22.2" height="12" fill="#FFFFFF" opacity="0.31"/><rect x="754.1" y="764.6" width="22.2" height="12" fill="#FFFFFF" opacity="0.28"/><rect x="754.1" y="857.4" width="22.2" height="12" fill="#FFFFFF" opacity="0.26"/><rect x="754.1" y="903.7" width="22.2" height="12" fill="#EC1C2D" opacity="0.13"/><rect x="754.1" y="996.5" width="22.2" height="12" fill="#FFFFFF" opacity="0.16"/><rect x="754.1" y="1042.9" width="22.2" height="12" fill="#FFFFFF" opacity="0.32"/><rect x="754.1" y="1135.6" width="22.2" height="12" fill="#FFFFFF" opacity="0.33"/><rect x="831.3" y="406.9" width="145.4" height="793.1" fill="#000" opacity="0.25"/><rect x="841.3" y="473.2" width="24.4" height="12" fill="#FFFFFF" opacity="0.19"/><rect x="841.3" y="606.1" width="24.4" height="12" fill="#FFFFFF" opacity="0.31"/><rect x="841.3" y="827.6" width="24.4" height="12" fill="#FFFFFF" opacity="0.12"/><rect x="841.3" y="871.9" width="24.4" height="12" fill="#FFFFFF" opacity="0.13"/><rect x="841.3" y="916.2" width="24.4" height="12" fill="#FFFFFF" opacity="0.29"/><rect x="841.3" y="1093.4" width="24.4" height="12" fill="#FFFFFF" opacity="0.13"/><rect x="872.7" y="428.9" width="24.4" height="12" fill="#FFFFFF" opacity="0.30"/><rect x="872.7" y="517.5" width="24.4" height="12" fill="#FFFFFF" opacity="0.28"/><rect x="872.7" y="650.4" width="24.4" height="12" fill="#EC1C2D" opacity="0.32"/><rect x="872.7" y="694.7" width="24.4" height="12" fill="#FFFFFF" opacity="0.11"/><rect x="872.7" y="739.0" width="24.4" height="12" fill="#FFFFFF" opacity="0.24"/><rect x="872.7" y="783.3" width="24.4" height="12" fill="#FFFFFF" opacity="0.25"/><rect x="872.7" y="871.9" width="24.4" height="12" fill="#EC1C2D" opacity="0.22"/><rect x="872.7" y="916.2" width="24.4" height="12" fill="#FFFFFF" opacity="0.27"/><rect x="872.7" y="960.5" width="24.4" height="12" fill="#FFFFFF" opacity="0.20"/><rect x="872.7" y="1004.8" width="24.4" height="12" fill="#FFFFFF" opacity="0.12"/><rect x="872.7" y="1049.1" width="24.4" height="12" fill="#FFFFFF" opacity="0.18"/><rect x="872.7" y="1093.4" width="24.4" height="12" fill="#FFFFFF" opacity="0.08"/><rect x="872.7" y="1137.7" width="24.4" height="12" fill="#FFFFFF" opacity="0.14"/><rect x="904.0" y="473.2" width="24.4" height="12" fill="#EC1C2D" opacity="0.19"/><rect x="904.0" y="561.8" width="24.4" height="12" fill="#FFFFFF" opacity="0.16"/><rect x="904.0" y="650.4" width="24.4" height="12" fill="#FFFFFF" opacity="0.31"/><rect x="904.0" y="694.7" width="24.4" height="12" fill="#FFFFFF" opacity="0.15"/><rect x="904.0" y="739.0" width="24.4" height="12" fill="#FFFFFF" opacity="0.31"/><rect x="904.0" y="1004.8" width="24.4" height="12" fill="#FFFFFF" opacity="0.17"/><rect x="935.4" y="428.9" width="24.4" height="12" fill="#FFFFFF" opacity="0.29"/><rect x="935.4" y="473.2" width="24.4" height="12" fill="#FFFFFF" opacity="0.22"/><rect x="935.4" y="517.5" width="24.4" height="12" fill="#FFFFFF" opacity="0.22"/><rect x="935.4" y="561.8" width="24.4" height="12" fill="#FFFFFF" opacity="0.07"/><rect x="935.4" y="606.1" width="24.4" height="12" fill="#FFFFFF" opacity="0.11"/><rect x="935.4" y="650.4" width="24.4" height="12" fill="#FFFFFF" opacity="0.34"/><rect x="935.4" y="739.0" width="24.4" height="12" fill="#FFFFFF" opacity="0.26"/><rect x="935.4" y="783.3" width="24.4" height="12" fill="#FFFFFF" opacity="0.16"/><rect x="935.4" y="827.6" width="24.4" height="12" fill="#FFFFFF" opacity="0.29"/><rect x="935.4" y="871.9" width="24.4" height="12" fill="#FFFFFF" opacity="0.07"/><rect x="935.4" y="916.2" width="24.4" height="12" fill="#EC1C2D" opacity="0.29"/><rect x="935.4" y="1004.8" width="24.4" height="12" fill="#FFFFFF" opacity="0.26"/><rect x="935.4" y="1049.1" width="24.4" height="12" fill="#EC1C2D" opacity="0.27"/><rect x="935.4" y="1093.4" width="24.4" height="12" fill="#FFFFFF" opacity="0.32"/><rect x="1010.3" y="310.3" width="194.9" height="889.7" fill="#000" opacity="0.27"/><rect x="1020.3" y="332.3" width="27.0" height="12" fill="#FFFFFF" opacity="0.20"/><rect x="1020.3" y="377.1" width="27.0" height="12" fill="#FFFFFF" opacity="0.26"/><rect x="1020.3" y="421.8" width="27.0" height="12" fill="#FFFFFF" opacity="0.21"/><rect x="1020.3" y="511.2" width="27.0" height="12" fill="#FFFFFF" opacity="0.12"/><rect x="1020.3" y="600.7" width="27.0" height="12" fill="#FFFFFF" opacity="0.33"/><rect x="1020.3" y="734.8" width="27.0" height="12" fill="#EC1C2D" opacity="0.23"/><rect x="1020.3" y="779.5" width="27.0" height="12" fill="#FFFFFF" opacity="0.08"/><rect x="1020.3" y="869.0" width="27.0" height="12" fill="#FFFFFF" opacity="0.06"/><rect x="1020.3" y="913.7" width="27.0" height="12" fill="#FFFFFF" opacity="0.19"/><rect x="1020.3" y="958.4" width="27.0" height="12" fill="#FFFFFF" opacity="0.33"/><rect x="1020.3" y="1047.8" width="27.0" height="12" fill="#FFFFFF" opacity="0.19"/><rect x="1020.3" y="1092.6" width="27.0" height="12" fill="#FFFFFF" opacity="0.18"/><rect x="1020.3" y="1137.3" width="27.0" height="12" fill="#FFFFFF" opacity="0.18"/><rect x="1055.3" y="332.3" width="27.0" height="12" fill="#FFFFFF" opacity="0.12"/><rect x="1055.3" y="421.8" width="27.0" height="12" fill="#FFFFFF" opacity="0.26"/><rect x="1055.3" y="466.5" width="27.0" height="12" fill="#FFFFFF" opacity="0.07"/><rect x="1055.3" y="511.2" width="27.0" height="12" fill="#FFFFFF" opacity="0.12"/><rect x="1055.3" y="600.7" width="27.0" height="12" fill="#FFFFFF" opacity="0.15"/><rect x="1055.3" y="690.1" width="27.0" height="12" fill="#FFFFFF" opacity="0.11"/><rect x="1055.3" y="734.8" width="27.0" height="12" fill="#FFFFFF" opacity="0.16"/><rect x="1055.3" y="824.3" width="27.0" height="12" fill="#FFFFFF" opacity="0.19"/><rect x="1055.3" y="869.0" width="27.0" height="12" fill="#FFFFFF" opacity="0.21"/><rect x="1055.3" y="913.7" width="27.0" height="12" fill="#FFFFFF" opacity="0.15"/><rect x="1055.3" y="1003.1" width="27.0" height="12" fill="#FFFFFF" opacity="0.21"/><rect x="1090.2" y="332.3" width="27.0" height="12" fill="#FFFFFF" opacity="0.12"/><rect x="1090.2" y="421.8" width="27.0" height="12" fill="#FFFFFF" opacity="0.30"/><rect x="1090.2" y="466.5" width="27.0" height="12" fill="#EC1C2D" opacity="0.18"/><rect x="1090.2" y="555.9" width="27.0" height="12" fill="#FFFFFF" opacity="0.24"/><rect x="1090.2" y="690.1" width="27.0" height="12" fill="#FFFFFF" opacity="0.24"/><rect x="1090.2" y="734.8" width="27.0" height="12" fill="#FFFFFF" opacity="0.31"/><rect x="1090.2" y="779.5" width="27.0" height="12" fill="#FFFFFF" opacity="0.25"/><rect x="1090.2" y="824.3" width="27.0" height="12" fill="#FFFFFF" opacity="0.30"/><rect x="1090.2" y="869.0" width="27.0" height="12" fill="#FFFFFF" opacity="0.18"/><rect x="1090.2" y="913.7" width="27.0" height="12" fill="#FFFFFF" opacity="0.24"/><rect x="1090.2" y="958.4" width="27.0" height="12" fill="#FFFFFF" opacity="0.16"/><rect x="1090.2" y="1003.1" width="27.0" height="12" fill="#FFFFFF" opacity="0.12"/><rect x="1090.2" y="1047.8" width="27.0" height="12" fill="#FFFFFF" opacity="0.21"/><rect x="1125.2" y="421.8" width="27.0" height="12" fill="#FFFFFF" opacity="0.34"/><rect x="1125.2" y="555.9" width="27.0" height="12" fill="#FFFFFF" opacity="0.12"/><rect x="1125.2" y="600.7" width="27.0" height="12" fill="#FFFFFF" opacity="0.19"/><rect x="1125.2" y="734.8" width="27.0" height="12" fill="#EC1C2D" opacity="0.13"/><rect x="1125.2" y="824.3" width="27.0" height="12" fill="#FFFFFF" opacity="0.08"/><rect x="1125.2" y="869.0" width="27.0" height="12" fill="#FFFFFF" opacity="0.06"/><rect x="1125.2" y="958.4" width="27.0" height="12" fill="#FFFFFF" opacity="0.10"/><rect x="1125.2" y="1047.8" width="27.0" height="12" fill="#FFFFFF" opacity="0.21"/><rect x="1125.2" y="1092.6" width="27.0" height="12" fill="#FFFFFF" opacity="0.25"/><rect x="1125.2" y="1137.3" width="27.0" height="12" fill="#FFFFFF" opacity="0.15"/><rect x="1160.2" y="332.3" width="27.0" height="12" fill="#FFFFFF" opacity="0.26"/><rect x="1160.2" y="421.8" width="27.0" height="12" fill="#FFFFFF" opacity="0.24"/><rect x="1160.2" y="466.5" width="27.0" height="12" fill="#FFFFFF" opacity="0.17"/><rect x="1160.2" y="600.7" width="27.0" height="12" fill="#EC1C2D" opacity="0.14"/><rect x="1160.2" y="690.1" width="27.0" height="12" fill="#FFFFFF" opacity="0.18"/><rect x="1160.2" y="869.0" width="27.0" height="12" fill="#FFFFFF" opacity="0.12"/><rect x="1160.2" y="913.7" width="27.0" height="12" fill="#FFFFFF" opacity="0.09"/><rect x="1160.2" y="958.4" width="27.0" height="12" fill="#FFFFFF" opacity="0.30"/><rect x="1160.2" y="1092.6" width="27.0" height="12" fill="#FFFFFF" opacity="0.17"/><rect x="1247.5" y="535.4" width="198.6" height="664.6" fill="#000" opacity="0.36"/><rect x="1257.5" y="557.4" width="27.7" height="12" fill="#FFFFFF" opacity="0.10"/><rect x="1257.5" y="602.0" width="27.7" height="12" fill="#FFFFFF" opacity="0.15"/><rect x="1257.5" y="780.4" width="27.7" height="12" fill="#FFFFFF" opacity="0.24"/><rect x="1257.5" y="825.1" width="27.7" height="12" fill="#FFFFFF" opacity="0.22"/><rect x="1257.5" y="869.7" width="27.7" height="12" fill="#FFFFFF" opacity="0.09"/><rect x="1257.5" y="914.3" width="27.7" height="12" fill="#FFFFFF" opacity="0.23"/><rect x="1257.5" y="1003.5" width="27.7" height="12" fill="#FFFFFF" opacity="0.21"/><rect x="1257.5" y="1092.8" width="27.7" height="12" fill="#FFFFFF" opacity="0.17"/><rect x="1257.5" y="1137.4" width="27.7" height="12" fill="#FFFFFF" opacity="0.24"/><rect x="1293.2" y="602.0" width="27.7" height="12" fill="#EC1C2D" opacity="0.08"/><rect x="1293.2" y="646.6" width="27.7" height="12" fill="#FFFFFF" opacity="0.23"/><rect x="1293.2" y="691.2" width="27.7" height="12" fill="#EC1C2D" opacity="0.15"/><rect x="1293.2" y="735.8" width="27.7" height="12" fill="#FFFFFF" opacity="0.27"/><rect x="1293.2" y="780.4" width="27.7" height="12" fill="#FFFFFF" opacity="0.18"/><rect x="1293.2" y="869.7" width="27.7" height="12" fill="#FFFFFF" opacity="0.16"/><rect x="1293.2" y="914.3" width="27.7" height="12" fill="#FFFFFF" opacity="0.14"/><rect x="1293.2" y="958.9" width="27.7" height="12" fill="#FFFFFF" opacity="0.31"/><rect x="1329.0" y="691.2" width="27.7" height="12" fill="#FFFFFF" opacity="0.07"/><rect x="1329.0" y="735.8" width="27.7" height="12" fill="#FFFFFF" opacity="0.32"/><rect x="1329.0" y="780.4" width="27.7" height="12" fill="#EC1C2D" opacity="0.29"/><rect x="1329.0" y="869.7" width="27.7" height="12" fill="#FFFFFF" opacity="0.14"/><rect x="1329.0" y="914.3" width="27.7" height="12" fill="#EC1C2D" opacity="0.16"/><rect x="1329.0" y="958.9" width="27.7" height="12" fill="#FFFFFF" opacity="0.11"/><rect x="1329.0" y="1003.5" width="27.7" height="12" fill="#FFFFFF" opacity="0.09"/><rect x="1329.0" y="1048.1" width="27.7" height="12" fill="#FFFFFF" opacity="0.08"/><rect x="1329.0" y="1092.8" width="27.7" height="12" fill="#FFFFFF" opacity="0.06"/><rect x="1329.0" y="1137.4" width="27.7" height="12" fill="#FFFFFF" opacity="0.10"/><rect x="1364.7" y="602.0" width="27.7" height="12" fill="#FFFFFF" opacity="0.10"/><rect x="1364.7" y="646.6" width="27.7" height="12" fill="#FFFFFF" opacity="0.26"/><rect x="1364.7" y="691.2" width="27.7" height="12" fill="#FFFFFF" opacity="0.17"/><rect x="1364.7" y="780.4" width="27.7" height="12" fill="#FFFFFF" opacity="0.24"/><rect x="1364.7" y="869.7" width="27.7" height="12" fill="#FFFFFF" opacity="0.30"/><rect x="1364.7" y="914.3" width="27.7" height="12" fill="#FFFFFF" opacity="0.19"/><rect x="1364.7" y="958.9" width="27.7" height="12" fill="#EC1C2D" opacity="0.25"/><rect x="1364.7" y="1137.4" width="27.7" height="12" fill="#FFFFFF" opacity="0.07"/><rect x="1400.4" y="557.4" width="27.7" height="12" fill="#FFFFFF" opacity="0.26"/><rect x="1400.4" y="602.0" width="27.7" height="12" fill="#FFFFFF" opacity="0.13"/><rect x="1400.4" y="646.6" width="27.7" height="12" fill="#FFFFFF" opacity="0.18"/><rect x="1400.4" y="691.2" width="27.7" height="12" fill="#FFFFFF" opacity="0.28"/><rect x="1400.4" y="735.8" width="27.7" height="12" fill="#FFFFFF" opacity="0.26"/><rect x="1400.4" y="780.4" width="27.7" height="12" fill="#EC1C2D" opacity="0.30"/><rect x="1400.4" y="825.1" width="27.7" height="12" fill="#FFFFFF" opacity="0.28"/><rect x="1400.4" y="914.3" width="27.7" height="12" fill="#EC1C2D" opacity="0.16"/><rect x="1400.4" y="1003.5" width="27.7" height="12" fill="#FFFFFF" opacity="0.24"/><rect x="1400.4" y="1092.8" width="27.7" height="12" fill="#FFFFFF" opacity="0.11"/><rect x="1489.3" y="396.1" width="200.8" height="803.9" fill="#000" opacity="0.51"/><rect x="1499.3" y="418.1" width="28.2" height="12" fill="#FFFFFF" opacity="0.18"/><rect x="1499.3" y="463.0" width="28.2" height="12" fill="#FFFFFF" opacity="0.31"/><rect x="1499.3" y="507.9" width="28.2" height="12" fill="#FFFFFF" opacity="0.27"/><rect x="1499.3" y="552.9" width="28.2" height="12" fill="#FFFFFF" opacity="0.16"/><rect x="1499.3" y="597.8" width="28.2" height="12" fill="#EC1C2D" opacity="0.10"/><rect x="1499.3" y="642.7" width="28.2" height="12" fill="#FFFFFF" opacity="0.10"/><rect x="1499.3" y="732.6" width="28.2" height="12" fill="#FFFFFF" opacity="0.15"/><rect x="1499.3" y="777.6" width="28.2" height="12" fill="#FFFFFF" opacity="0.14"/><rect x="1499.3" y="912.4" width="28.2" height="12" fill="#FFFFFF" opacity="0.10"/><rect x="1499.3" y="1002.2" width="28.2" height="12" fill="#FFFFFF" opacity="0.11"/><rect x="1499.3" y="1092.1" width="28.2" height="12" fill="#FFFFFF" opacity="0.25"/><rect x="1499.3" y="1137.1" width="28.2" height="12" fill="#FFFFFF" opacity="0.23"/><rect x="1535.5" y="418.1" width="28.2" height="12" fill="#EC1C2D" opacity="0.18"/><rect x="1535.5" y="463.0" width="28.2" height="12" fill="#FFFFFF" opacity="0.25"/><rect x="1535.5" y="507.9" width="28.2" height="12" fill="#EC1C2D" opacity="0.20"/><rect x="1535.5" y="597.8" width="28.2" height="12" fill="#FFFFFF" opacity="0.23"/><rect x="1535.5" y="777.6" width="28.2" height="12" fill="#EC1C2D" opacity="0.27"/><rect x="1535.5" y="822.5" width="28.2" height="12" fill="#FFFFFF" opacity="0.25"/><rect x="1535.5" y="867.4" width="28.2" height="12" fill="#FFFFFF" opacity="0.07"/><rect x="1535.5" y="912.4" width="28.2" height="12" fill="#FFFFFF" opacity="0.28"/><rect x="1535.5" y="957.3" width="28.2" height="12" fill="#FFFFFF" opacity="0.26"/><rect x="1535.5" y="1002.2" width="28.2" height="12" fill="#FFFFFF" opacity="0.16"/><rect x="1535.5" y="1047.2" width="28.2" height="12" fill="#FFFFFF" opacity="0.28"/><rect x="1535.5" y="1092.1" width="28.2" height="12" fill="#EC1C2D" opacity="0.09"/><rect x="1535.5" y="1137.1" width="28.2" height="12" fill="#EC1C2D" opacity="0.29"/><rect x="1571.6" y="463.0" width="28.2" height="12" fill="#FFFFFF" opacity="0.32"/><rect x="1571.6" y="507.9" width="28.2" height="12" fill="#FFFFFF" opacity="0.12"/><rect x="1571.6" y="597.8" width="28.2" height="12" fill="#FFFFFF" opacity="0.22"/><rect x="1571.6" y="642.7" width="28.2" height="12" fill="#FFFFFF" opacity="0.09"/><rect x="1571.6" y="732.6" width="28.2" height="12" fill="#FFFFFF" opacity="0.24"/><rect x="1571.6" y="867.4" width="28.2" height="12" fill="#FFFFFF" opacity="0.08"/><rect x="1571.6" y="912.4" width="28.2" height="12" fill="#FFFFFF" opacity="0.23"/><rect x="1571.6" y="957.3" width="28.2" height="12" fill="#FFFFFF" opacity="0.18"/><rect x="1571.6" y="1002.2" width="28.2" height="12" fill="#FFFFFF" opacity="0.27"/><rect x="1571.6" y="1047.2" width="28.2" height="12" fill="#FFFFFF" opacity="0.14"/><rect x="1571.6" y="1092.1" width="28.2" height="12" fill="#FFFFFF" opacity="0.08"/><rect x="1607.8" y="463.0" width="28.2" height="12" fill="#FFFFFF" opacity="0.27"/><rect x="1607.8" y="507.9" width="28.2" height="12" fill="#FFFFFF" opacity="0.08"/><rect x="1607.8" y="552.9" width="28.2" height="12" fill="#EC1C2D" opacity="0.34"/><rect x="1607.8" y="597.8" width="28.2" height="12" fill="#EC1C2D" opacity="0.16"/><rect x="1607.8" y="642.7" width="28.2" height="12" fill="#FFFFFF" opacity="0.19"/><rect x="1607.8" y="687.7" width="28.2" height="12" fill="#FFFFFF" opacity="0.30"/><rect x="1607.8" y="732.6" width="28.2" height="12" fill="#FFFFFF" opacity="0.31"/><rect x="1607.8" y="777.6" width="28.2" height="12" fill="#FFFFFF" opacity="0.12"/><rect x="1607.8" y="957.3" width="28.2" height="12" fill="#FFFFFF" opacity="0.20"/><rect x="1607.8" y="1047.2" width="28.2" height="12" fill="#FFFFFF" opacity="0.22"/><rect x="1607.8" y="1137.1" width="28.2" height="12" fill="#FFFFFF" opacity="0.15"/><rect x="1643.9" y="418.1" width="28.2" height="12" fill="#FFFFFF" opacity="0.19"/><rect x="1643.9" y="463.0" width="28.2" height="12" fill="#FFFFFF" opacity="0.18"/><rect x="1643.9" y="507.9" width="28.2" height="12" fill="#FFFFFF" opacity="0.12"/><rect x="1643.9" y="552.9" width="28.2" height="12" fill="#FFFFFF" opacity="0.32"/><rect x="1643.9" y="597.8" width="28.2" height="12" fill="#EC1C2D" opacity="0.21"/><rect x="1643.9" y="642.7" width="28.2" height="12" fill="#FFFFFF" opacity="0.31"/><rect x="1643.9" y="687.7" width="28.2" height="12" fill="#FFFFFF" opacity="0.11"/><rect x="1643.9" y="732.6" width="28.2" height="12" fill="#FFFFFF" opacity="0.26"/><rect x="1643.9" y="777.6" width="28.2" height="12" fill="#FFFFFF" opacity="0.28"/><rect x="1643.9" y="822.5" width="28.2" height="12" fill="#FFFFFF" opacity="0.09"/><rect x="1643.9" y="912.4" width="28.2" height="12" fill="#FFFFFF" opacity="0.29"/><rect x="1643.9" y="957.3" width="28.2" height="12" fill="#FFFFFF" opacity="0.28"/><rect x="1643.9" y="1092.1" width="28.2" height="12" fill="#FFFFFF" opacity="0.19"/>
  <rect width="1600" height="1200" fill="#000000" opacity="0.1"/>
</svg>
