<svg xmlns="http://www.w3.org/2000/svg" viewBox="0 0 1600 1200" width="1600" height="1200" role="img">
  <defs>
    <linearGradient id="sserenity" x1="0" y1="0" x2="0" y2="1">
      <stop offset="0%" stop-color="#16386E"/>
      <stop offset="58%" stop-color="#0B1830"/>
      <stop offset="100%" stop-color="#000000"/>
    </linearGradient>
    <radialGradient id="grserenity">
      <stop offset="0%" stop-color="#EC1C2D" stop-opacity="0.8"/>
      <stop offset="100%" stop-color="#EC1C2D" stop-opacity="0"/>
    </radialGradient>
    <radialGradient id="gbserenity">
      <stop offset="0%" stop-color="#9AA2DB" stop-opacity="0.7"/>
      <stop offset="100%" stop-color="#9AA2DB" stop-opacity="0"/>
    </radialGradient>
  </defs>
  <rect width="1600" height="1200" fill="url(#sserenity)"/>
  <circle cx="26%" cy="46%" r="30%" fill="url(#gbserenity)" opacity="0.45"/>
  <rect x="0" y="818.8" width="1600" height="2" fill="#EC1C2D" opacity="0.4"/>
  <rect x="-80.0" y="219.6" width="96.0" height="980.4" fill="#000" opacity="0.25"/><rect x="-70.0" y="241.6" width="36.0" height="12" fill="#FFFFFF" opacity="0.33"/><rect x="-70.0" y="286.4" width="36.0" height="12" fill="#FFFFFF" opacity="0.10"/><rect x="-70.0" y="375.9" width="36.0" height="12" fill="#FFFFFF" opacity="0.16"/><rect x="-70.0" y="420.7" width="36.0" height="12" fill="#FFFFFF" opacity="0.12"/><rect x="-70.0" y="555.1" width="36.0" height="12" fill="#FFFFFF" opacity="0.06"/><rect x="-70.0" y="599.8" width="36.0" height="12" fill="#EC1C2D" opacity="0.27"/><rect x="-70.0" y="644.6" width="36.0" height="12" fill="#FFFFFF" opacity="0.13"/><rect x="-70.0" y="689.4" width="36.0" height="12" fill="#FFFFFF" opacity="0.19"/><rect x="-70.0" y="734.2" width="36.0" height="12" fill="#FFFFFF" opacity="0.10"/><rect x="-70.0" y="779.0" width="36.0" height="12" fill="#FFFFFF" opacity="0.25"/><rect x="-70.0" y="823.8" width="36.0" height="12" fill="#FFFFFF" opacity="0.31"/><rect x="-70.0" y="868.5" width="36.0" height="12" fill="#FFFFFF" opacity="0.26"/><rect x="-70.0" y="913.3" width="36.0" height="12" fill="#FFFFFF" opacity="0.10"/><rect x="-70.0" y="958.1" width="36.0" height="12" fill="#FFFFFF" opacity="0.08"/><rect x="-70.0" y="1047.7" width="36.0" height="12" fill="#FFFFFF" opacity="0.22"/><rect x="-70.0" y="1137.2" width="36.0" height="12" fill="#FFFFFF" opacity="0.34"/><rect x="-32.0" y="465.5" width="36.0" height="12" fill="#FFFFFF" opacity="0.29"/><rect x="-32.0" y="510.3" width="36.0" height="12" fill="#FFFFFF" opacity="0.32"/><rect x="-32.0" y="555.1" width="36.0" height="12" fill="#FFFFFF" opacity="0.32"/><rect x="-32.0" y="599.8" width="36.0" height="12" fill="#FFFFFF" opacity="0.23"/><rect x="-32.0" y="644.6" width="36.0" height="12" fill="#EC1C2D" opacity="0.12"/><rect x="-32.0" y="823.8" width="36.0" height="12" fill="#FFFFFF" opacity="0.08"/><rect x="-32.0" y="913.3" width="36.0" height="12" fill="#EC1C2D" opacity="0.10"/><rect x="-32.0" y="1137.2" width="36.0" height="12" fill="#EC1C2D" opacity="0.18"/><rect x="45.1" y="290.5" width="195.7" height="909.5" fill="#000" opacity="0.22"/><rect x="55.1" y="312.5" width="27.1" height="12" fill="#FFFFFF" opacity="0.11"/><rect x="55.1" y="358.3" width="27.1" height="12" fill="#FFFFFF" opacity="0.08"/><rect x="55.1" y="404.1" width="27.1" height="12" fill="#FFFFFF" opacity="0.22"/><rect x="55.1" y="449.8" width="27.1" height="12" fill="#FFFFFF" opacity="0.10"/><rect x="55.1" y="495.6" width="27.1" height="12" fill="#FFFFFF" opacity="0.27"/><rect x="55.1" y="541.4" width="27.1" height="12" fill="#FFFFFF" opacity="0.13"/><rect x="55.1" y="678.6" width="27.1" height="12" fill="#FFFFFF" opacity="0.30"/><rect x="55.1" y="770.2" width="27.1" height="12" fill="#FFFFFF" opacity="0.19"/><rect x="55.1" y="907.4" width="27.1" height="12" fill="#FFFFFF" opacity="0.09"/><rect x="55.1" y="999.0" width="27.1" height="12" fill="#FFFFFF" opacity="0.19"/><rect x="55.1" y="1090.5" width="27.1" height="12" fill="#EC1C2D" opacity="0.29"/><rect x="55.1" y="1136.2" width="27.1" height="12" fill="#FFFFFF" opacity="0.10"/><rect x="90.3" y="312.5" width="27.1" height="12" fill="#FFFFFF" opacity="0.12"/><rect x="90.3" y="449.8" width="27.1" height="12" fill="#FFFFFF" opacity="0.27"/><rect x="90.3" y="495.6" width="27.1" height="12" fill="#FFFFFF" opacity="0.30"/><rect x="90.3" y="541.4" width="27.1" height="12" fill="#FFFFFF" opacity="0.31"/><rect x="90.3" y="587.1" width="27.1" height="12" fill="#FFFFFF" opacity="0.28"/><rect x="90.3" y="632.9" width="27.1" height="12" fill="#EC1C2D" opacity="0.29"/><rect x="90.3" y="770.2" width="27.1" height="12" fill="#FFFFFF" opacity="0.21"/><rect x="90.3" y="815.9" width="27.1" height="12" fill="#EC1C2D" opacity="0.24"/><rect x="90.3" y="953.2" width="27.1" height="12" fill="#FFFFFF" opacity="0.20"/><rect x="90.3" y="999.0" width="27.1" height="12" fill="#FFFFFF" opacity="0.13"/><rect x="90.3" y="1044.7" width="27.1" height="12" fill="#EC1C2D" opacity="0.08"/><rect x="90.3" y="1090.5" width="27.1" height="12" fill="#FFFFFF" opacity="0.15"/><rect x="90.3" y="1136.2" width="27.1" height="12" fill="#FFFFFF" opacity="0.19"/><rect x="125.4" y="312.5" width="27.1" height="12" fill="#FFFFFF" opacity="0.16"/><rect x="125.4" y="449.8" width="27.1" height="12" fill="#FFFFFF" opacity="0.29"/><rect x="125.4" y="495.6" width="27.1" height="12" fill="#FFFFFF" opacity="0.13"/><rect x="125.4" y="587.1" width="27.1" height="12" fill="#FFFFFF" opacity="0.15"/><rect x="125.4" y="632.9" width="27.1" height="12" fill="#FFFFFF" opacity="0.07"/><rect x="125.4" y="678.6" width="27.1" height="12" fill="#EC1C2D" opacity="0.24"/><rect x="125.4" y="724.4" width="27.1" height="12" fill="#EC1C2D" opacity="0.13"/><rect x="125.4" y="815.9" width="27.1" height="12" fill="#FFFFFF" opacity="0.16"/><rect x="125.4" y="861.7" width="27.1" height="12" fill="#FFFFFF" opacity="0.18"/><rect x="125.4" y="907.4" width="27.1" height="12" fill="#EC1C2D" opacity="0.11"/><rect x="125.4" y="999.0" width="27.1" height="12" fill="#FFFFFF" opacity="0.33"/><rect x="125.4" y="1044.7" width="27.1" height="12" fill="#FFFFFF" opacity="0.07"/><rect x="125.4" y="1090.5" width="27.1" height="12" fill="#FFFFFF" opacity="0.33"/><rect x="160.6" y="312.5" width="27.1" height="12" fill="#FFFFFF" opacity="0.09"/><rect x="160.6" y="358.3" width="27.1" height="12" fill="#FFFFFF" opacity="0.14"/><rect x="160.6" y="404.1" width="27.1" height="12" fill="#EC1C2D" opacity="0.14"/><rect x="160.6" y="449.8" width="27.1" height="12" fill="#FFFFFF" opacity="0.14"/><rect x="160.6" y="587.1" width="27.1" height="12" fill="#FFFFFF" opacity="0.18"/><rect x="160.6" y="770.2" width="27.1" height="12" fill="#FFFFFF" opacity="0.16"/><rect x="160.6" y="861.7" width="27.1" height="12" fill="#FFFFFF" opacity="0.07"/><rect x="160.6" y="907.4" width="27.1" height="12" fill="#EC1C2D" opacity="0.32"/><rect x="160.6" y="1044.7" width="27.1" height="12" fill="#FFFFFF" opacity="0.13"/><rect x="160.6" y="1090.5" width="27.1" height="12" fill="#FFFFFF" opacity="0.25"/><rect x="195.7" y="312.5" width="27.1" height="12" fill="#FFFFFF" opacity="0.32"/><rect x="195.7" y="358.3" width="27.1" height="12" fill="#FFFFFF" opacity="0.21"/><rect x="195.7" y="404.1" width="27.1" height="12" fill="#FFFFFF" opacity="0.30"/><rect x="195.7" y="495.6" width="27.1" height="12" fill="#FFFFFF" opacity="0.13"/><rect x="195.7" y="587.1" width="27.1" height="12" fill="#FFFFFF" opacity="0.27"/><rect x="195.7" y="632.9" width="27.1" height="12" fill="#FFFFFF" opacity="0.07"/><rect x="195.7" y="815.9" width="27.1" height="12" fill="#EC1C2D" opacity="0.20"/><rect x="195.7" y="907.4" width="27.1" height="12" fill="#FFFFFF" opacity="0.26"/><rect x="195.7" y="953.2" width="27.1" height="12" fill="#EC1C2D" opacity="0.09"/><rect x="195.7" y="999.0" width="27.1" height="12" fill="#FFFFFF" opacity="0.17"/><rect x="195.7" y="1044.7" width="27.1" height="12" fill="#FFFFFF" opacity="0.09"/><rect x="195.7" y="1090.5" width="27.1" height="12" fill="#FFFFFF" opacity="0.33"/><rect x="256.8" y="535.5" width="150.3" height="664.5" fill="#000" opacity="0.49"/><rect x="266.8" y="646.7" width="25.6" height="12" fill="#EC1C2D" opacity="0.21"/><rect x="266.8" y="691.3" width="25.6" height="12" fill="#FFFFFF" opacity="0.33"/><rect x="266.8" y="735.9" width="25.6" height="12" fill="#EC1C2D" opacity="0.15"/><rect x="266.8" y="1092.8" width="25.6" height="12" fill="#FFFFFF" opacity="0.20"/><rect x="299.4" y="557.5" width="25.6" height="12" fill="#FFFFFF" opacity="0.06"/><rect x="299.4" y="602.1" width="25.6" height="12" fill="#FFFFFF" opacity="0.10"/><rect x="299.4" y="646.7" width="25.6" height="12" fill="#FFFFFF" opacity="0.10"/><rect x="299.4" y="735.9" width="25.6" height="12" fill="#FFFFFF" opacity="0.15"/><rect x="299.4" y="780.5" width="25.6" height="12" fill="#FFFFFF" opacity="0.15"/><rect x="299.4" y="825.1" width="25.6" height="12" fill="#FFFFFF" opacity="0.17"/><rect x="299.4" y="914.4" width="25.6" height="12" fill="#EC1C2D" opacity="0.30"/><rect x="299.4" y="959.0" width="25.6" height="12" fill="#EC1C2D" opacity="0.11"/><rect x="299.4" y="1003.6" width="25.6" height="12" fill="#FFFFFF" opacity="0.31"/><rect x="299.4" y="1137.4" width="25.6" height="12" fill="#FFFFFF" opacity="0.09"/><rect x="331.9" y="557.5" width="25.6" height="12" fill="#FFFFFF" opacity="0.25"/><rect x="331.9" y="825.1" width="25.6" height="12" fill="#FFFFFF" opacity="0.31"/><rect x="331.9" y="869.8" width="25.6" height="12" fill="#FFFFFF" opacity="0.13"/><rect x="331.9" y="914.4" width="25.6" height="12" fill="#FFFFFF" opacity="0.31"/><rect x="331.9" y="959.0" width="25.6" height="12" fill="#FFFFFF" opacity="0.09"/><rect x="331.9" y="1003.6" width="25.6" height="12" fill="#FFFFFF" opacity="0.22"/><rect x="331.9" y="1048.2" width="25.6" height="12" fill="#FFFFFF" opacity="0.19"/><rect x="364.5" y="557.5" width="25.6" height="12" fill="#FFFFFF" opacity="0.25"/><rect x="364.5" y="602.1" width="25.6" height="12" fill="#FFFFFF" opacity="0.21"/><rect x="364.5" y="646.7" width="25.6" height="12" fill="#FFFFFF" opacity="0.15"/><rect x="364.5" y="780.5" width="25.6" height="12" fill="#FFFFFF" opacity="0.16"/><rect x="364.5" y="869.8" width="25.6" height="12" fill="#FFFFFF" opacity="0.31"/><rect x="364.5" y="914.4" width="25.6" height="12" fill="#FFFFFF" opacity="0.14"/><rect x="364.5" y="959.0" width="25.6" height="12" fill="#FFFFFF" opacity="0.18"/><rect x="364.5" y="1003.6" width="25.6" height="12" fill="#FFFFFF" opacity="0.34"/><rect x="364.5" y="1048.2" width="25.6" height="12" fill="#FFFFFF" opacity="0.15"/><rect x="364.5" y="1092.8" width="25.6" height="12" fill="#FFFFFF" opacity="0.11"/><rect x="433.7" y="457.7" width="206.7" height="742.3" fill="#000" opacity="0.27"/><rect x="443.7" y="479.7" width="22.4" height="12" fill="#FFFFFF" opacity="0.31"/><rect x="443.7" y="655.2" width="22.4" height="12" fill="#FFFFFF" opacity="0.18"/><rect x="443.7" y="830.8" width="22.4" height="12" fill="#FFFFFF" opacity="0.32"/><rect x="443.7" y="874.7" width="22.4" height="12" fill="#FFFFFF" opacity="0.19"/><rect x="443.7" y="918.6" width="22.4" height="12" fill="#FFFFFF" opacity="0.19"/><rect x="443.7" y="1006.4" width="22.4" height="12" fill="#FFFFFF" opacity="0.25"/><rect x="443.7" y="1094.2" width="22.4" height="12" fill="#EC1C2D" opacity="0.10"/><rect x="443.7" y="1138.1" width="22.4" height="12" fill="#FFFFFF" opacity="0.14"/><rect x="474.8" y="567.4" width="22.4" height="12" fill="#FFFFFF" opacity="0.30"/><rect x="474.8" y="655.2" width="22.4" height="12" fill="#FFFFFF" opacity="0.17"/><rect x="474.8" y="699.1" width="22.4" height="12" fill="#FFFFFF" opacity="0.23"/><rect x="474.8" y="830.8" width="22.4" height="12" fill="#FFFFFF" opacity="0.08"/><rect x="474.8" y="918.6" width="22.4" height="12" fill="#EC1C2D" opacity="0.09"/><rect x="474.8" y="962.5" width="22.4" height="12" fill="#FFFFFF" opacity="0.18"/><rect x="474.8" y="1006.4" width="22.4" height="12" fill="#FFFFFF" opacity="0.33"/><rect x="474.8" y="1050.3" width="22.4" height="12" fill="#FFFFFF" opacity="0.33"/><rect x="474.8" y="1138.1" width="22.4" height="12" fill="#FFFFFF" opacity="0.20"/><rect x="505.9" y="479.7" width="22.4" height="12" fill="#FFFFFF" opacity="0.14"/><rect x="505.9" y="523.6" width="22.4" height="12" fill="#FFFFFF" opacity="0.09"/><rect x="505.9" y="611.3" width="22.4" height="12" fill="#FFFFFF" opacity="0.29"/><rect x="505.9" y="830.8" width="22.4" height="12" fill="#FFFFFF" opacity="0.13"/><rect x="505.9" y="874.7" width="22.4" height="12" fill="#EC1C2D" opacity="0.22"/><rect x="505.9" y="1006.4" width="22.4" height="12" fill="#FFFFFF" opacity="0.26"/><rect x="505.9" y="1094.2" width="22.4" height="12" fill="#FFFFFF" opacity="0.20"/><rect x="537.1" y="479.7" width="22.4" height="12" fill="#FFFFFF" opacity="0.11"/><rect x="537.1" y="523.6" width="22.4" height="12" fill="#FFFFFF" opacity="0.26"/><rect x="537.1" y="611.3" width="22.4" height="12" fill="#FFFFFF" opacity="0.21"/><rect x="537.1" y="655.2" width="22.4" height="12" fill="#EC1C2D" opacity="0.12"/><rect x="537.1" y="743.0" width="22.4" height="12" fill="#FFFFFF" opacity="0.29"/><rect x="537.1" y="786.9" width="22.4" height="12" fill="#FFFFFF" opacity="0.06"/><rect x="537.1" y="874.7" width="22.4" height="12" fill="#FFFFFF" opacity="0.25"/><rect x="537.1" y="918.6" width="22.4" height="12" fill="#EC1C2D" opacity="0.33"/><rect x="537.1" y="962.5" width="22.4" height="12" fill="#FFFFFF" opacity="0.16"/><rect x="537.1" y="1050.3" width="22.4" height="12" fill="#FFFFFF" opacity="0.13"/><rect x="537.1" y="1094.2" width="22.4" height="12" fill="#FFFFFF" opacity="0.26"/><rect x="537.1" y="1138.1" width="22.4" height="12" fill="#FFFFFF" opacity="0.33"/><rect x="568.2" y="523.6" width="22.4" height="12" fill="#FFFFFF" opacity="0.16"/><rect x="568.2" y="567.4" width="22.4" height="12" fill="#FFFFFF" opacity="0.19"/><rect x="568.2" y="611.3" width="22.4" height="12" fill="#FFFFFF" opacity="0.19"/><rect x="568.2" y="655.2" width="22.4" height="12" fill="#FFFFFF" opacity="0.32"/><rect x="568.2" y="699.1" width="22.4" height="12" fill="#FFFFFF" opacity="0.23"/><rect x="568.2" y="743.0" width="22.4" height="12" fill="#FFFFFF" opacity="0.07"/><rect x="568.2" y="786.9" width="22.4" height="12" fill="#EC1C2D" opacity="0.34"/><rect x="568.2" y="830.8" width="22.4" height="12" fill="#FFFFFF" opacity="0.33"/><rect x="568.2" y="874.7" width="22.4" height="12" fill="#FFFFFF" opacity="0.32"/><rect x="568.2" y="1006.4" width="22.4" height="12" fill="#FFFFFF" opacity="0.31"/><rect x="568.2" y="1094.2" width="22.4" height="12" fill="#FFFFFF" opacity="0.34"/><rect x="599.3" y="479.7" width="22.4" height="12" fill="#FFFFFF" opacity="0.29"/><rect x="599.3" y="523.6" width="22.4" height="12" fill="#FFFFFF" opacity="0.06"/><rect x="599.3" y="567.4" width="22.4" height="12" fill="#FFFFFF" opacity="0.16"/><rect x="599.3" y="611.3" width="22.4" height="12" fill="#FFFFFF" opacity="0.24"/><rect x="599.3" y="655.2" width="22.4" height="12" fill="#FFFFFF" opacity="0.20"/><rect x="599.3" y="699.1" width="22.4" height="12" fill="#FFFFFF" opacity="0.23"/><rect x="599.3" y="743.0" width="22.4" height="12" fill="#EC1C2D" opacity="0.14"/><rect x="599.3" y="1006.4" width="22.4" height="12" fill="#FFFFFF" opacity="0.13"/><rect x="599.3" y="1138.1" width="22.4" height="12" fill="#FFFFFF" opacity="0.32"/><rect x="669.7" y="489.3" width="121.6" height="710.7" fill="#000" opacity="0.31"/><rect x="679.7" y="511.3" width="28.5" height="12" fill="#FFFFFF" opacity="0.13"/><rect x="679.7" y="645.5" width="28.5" height="12" fill="#FFFFFF" opacity="0.20"/><rect x="679.7" y="690.2" width="28.5" height="12" fill="#FFFFFF" opacity="0.11"/><rect x="679.7" y="734.9" width="28.5" height="12" fill="#FFFFFF" opacity="0.18"/><rect x="679.7" y="779.6" width="28.5" height="12" fill="#FFFFFF" opacity="0.27"/><rect x="679.7" y="824.3" width="28.5" height="12" fill="#FFFFFF" opacity="0.15"/><rect x="679.7" y="869.0" width="28.5" height="12" fill="#FFFFFF" opacity="0.20"/><rect x="679.7" y="913.7" width="28.5" height="12" fill="#FFFFFF" opacity="0.18"/><rect x="679.7" y="958.4" width="28.5" height="12" fill="#FFFFFF" opacity="0.19"/><rect x="679.7" y="1047.9" width="28.5" height="12" fill="#FFFFFF" opacity="0.29"/><rect x="679.7" y="1092.6" width="28.5" height="12" fill="#FFFFFF" opacity="0.25"/><rect x="713.5" y="645.5" width="28.5" height="12" fill="#FFFFFF" opacity="0.24"/><rect x="713.5" y="734.9" width="28.5" height="12" fill="#FFFFFF" opacity="0.08"/><rect x="713.5" y="824.3" width="28.5" height="12" fill="#FFFFFF" opacity="0.08"/><rect x="713.5" y="869.0" width="28.5" height="12" fill="#FFFFFF" opacity="0.16"/><rect x="713.5" y="913.7" width="28.5" height="12" fill="#FFFFFF" opacity="0.13"/><rect x="713.5" y="1003.2" width="28.5" height="12" fill="#FFFFFF" opacity="0.15"/><rect x="713.5" y="1047.9" width="28.5" height="12" fill="#FFFFFF" opacity="0.33"/><rect x="713.5" y="1092.6" width="28.5" height="12" fill="#FFFFFF" opacity="0.06"/><rect x="713.5" y="1137.3" width="28.5" height="12" fill="#FFFFFF" opacity="0.09"/><rect x="747.4" y="511.3" width="28.5" height="12" fill="#FFFFFF" opacity="0.29"/><rect x="747.4" y="645.5" width="28.5" height="12" fill="#FFFFFF" opacity="0.26"/><rect x="747.4" y="690.2" width="28.5" height="12" fill="#FFFFFF" opacity="0.25"/><rect x="747.4" y="824.3" width="28.5" height="12" fill="#FFFFFF" opacity="0.20"/><rect x="747.4" y="869.0" width="28.5" height="12" fill="#FFFFFF" opacity="0.21"/><rect x="747.4" y="913.7" width="28.5" height="12" fill="#FFFFFF" opacity="0.28"/><rect x="747.4" y="958.4" width="28.5" height="12" fill="#FFFFFF" opacity="0.26"/><rect x="747.4" y="1003.2" width="28.5" height="12" fill="#FFFFFF" opacity="0.23"/><rect x="747.4" y="1047.9" width="28.5" height="12" fill="#FFFFFF" opacity="0.31"/><rect x="747.4" y="1137.3" width="28.5" height="12" fill="#EC1C2D" opacity="0.32"/><rect x="830.4" y="351.4" width="96.2" height="848.6" fill="#000" opacity="0.25"/><rect x="840.4" y="418.3" width="36.1" height="12" fill="#FFFFFF" opacity="0.22"/><rect x="840.4" y="463.3" width="36.1" height="12" fill="#FFFFFF" opacity="0.26"/><rect x="840.4" y="687.9" width="36.1" height="12" fill="#EC1C2D" opacity="0.22"/><rect x="840.4" y="732.8" width="36.1" height="12" fill="#FFFFFF" opacity="0.21"/><rect x="840.4" y="777.7" width="36.1" height="12" fill="#FFFFFF" opacity="0.23"/><rect x="840.4" y="867.6" width="36.1" height="12" fill="#FFFFFF" opacity="0.09"/><rect x="840.4" y="912.5" width="36.1" height="12" fill="#FFFFFF" opacity="0.14"/><rect x="840.4" y="1002.3" width="36.1" height="12" fill="#FFFFFF" opacity="0.11"/><rect x="840.4" y="1047.2" width="36.1" height="12" fill="#FFFFFF" opacity="0.24"/><rect x="840.4" y="1137.1" width="36.1" height="12" fill="#EC1C2D" opacity="0.21"/><rect x="878.5" y="373.4" width="36.1" height="12" fill="#FFFFFF" opacity="0.33"/><rect x="878.5" y="418.3" width="36.1" height="12" fill="#FFFFFF" opacity="0.27"/><rect x="878.5" y="598.0" width="36.1" height="12" fill="#FFFFFF" opacity="0.29"/><rect x="878.5" y="642.9" width="36.1" height="12" fill="#FFFFFF" opacity="0.34"/><rect x="878.5" y="777.7" width="36.1" height="12" fill="#FFFFFF" opacity="0.19"/><rect x="878.5" y="912.5" width="36.1" height="12" fill="#FFFFFF" opacity="0.07"/><rect x="878.5" y="957.4" width="36.1" height="12" fill="#EC1C2D" opacity="0.32"/><rect x="878.5" y="1047.2" width="36.1" height="12" fill="#FFFFFF" opacity="0.11"/><rect x="963.6" y="613.7" width="222.8" height="586.3" fill="#000" opacity="0.46"/><rect x="973.6" y="726.8" width="25.1" height="12" fill="#FFFFFF" opacity="0.27"/><rect x="973.6" y="817.8" width="25.1" height="12" fill="#FFFFFF" opacity="0.15"/><rect x="973.6" y="863.3" width="25.1" height="12" fill="#EC1C2D" opacity="0.33"/><rect x="973.6" y="908.9" width="25.1" height="12" fill="#FFFFFF" opacity="0.27"/><rect x="973.6" y="954.4" width="25.1" height="12" fill="#FFFFFF" opacity="0.21"/><rect x="973.6" y="1091.0" width="25.1" height="12" fill="#FFFFFF" opacity="0.18"/><rect x="1007.4" y="681.2" width="25.1" height="12" fill="#EC1C2D" opacity="0.33"/><rect x="1007.4" y="726.8" width="25.1" height="12" fill="#EC1C2D" opacity="0.23"/><rect x="1007.4" y="772.3" width="25.1" height="12" fill="#EC1C2D" opacity="0.25"/><rect x="1007.4" y="817.8" width="25.1" height="12" fill="#FFFFFF" opacity="0.25"/><rect x="1007.4" y="954.4" width="25.1" height="12" fill="#FFFFFF" opacity="0.30"/><rect x="1007.4" y="1045.4" width="25.1" height="12" fill="#FFFFFF" opacity="0.16"/><rect x="1007.4" y="1091.0" width="25.1" height="12" fill="#FFFFFF" opacity="0.10"/><rect x="1041.2" y="817.8" width="25.1" height="12" fill="#FFFFFF" opacity="0.31"/><rect x="1041.2" y="863.3" width="25.1" height="12" fill="#FFFFFF" opacity="0.27"/><rect x="1041.2" y="999.9" width="25.1" height="12" fill="#FFFFFF" opacity="0.33"/><rect x="1041.2" y="1045.4" width="25.1" height="12" fill="#FFFFFF" opacity="0.17"/><rect x="1041.2" y="1091.0" width="25.1" height="12" fill="#FFFFFF" opacity="0.14"/><rect x="1075.0" y="635.7" width="25.1" height="12" fill="#FFFFFF" opacity="0.34"/><rect x="1075.0" y="681.2" width="25.1" height="12" fill="#FFFFFF" opacity="0.20"/><rect x="1075.0" y="726.8" width="25.1" height="12" fill="#FFFFFF" opacity="0.20"/><rect x="1075.0" y="863.3" width="25.1" height="12" fill="#FFFFFF" opacity="0.27"/><rect x="1075.0" y="908.9" width="25.1" height="12" fill="#FFFFFF" opacity="0.22"/><rect x="1075.0" y="954.4" width="25.1" height="12" fill="#FFFFFF" opacity="0.16"/><rect x="1075.0" y="999.9" width="25.1" height="12" fill="#FFFFFF" opacity="0.32"/><rect x="1075.0" y="1045.4" width="25.1" height="12" fill="#FFFFFF" opacity="0.33"/><rect x="1075.0" y="1136.5" width="25.1" height="12" fill="#FFFFFF" opacity="0.26"/><rect x="1108.8" y="635.7" width="25.1" height="12" fill="#FFFFFF" opacity="0.11"/><rect x="1108.8" y="726.8" width="25.1" height="12" fill="#FFFFFF" opacity="0.17"/><rect x="1108.8" y="772.3" width="25.1" height="12" fill="#FFFFFF" opacity="0.31"/><rect x="1108.8" y="817.8" width="25.1" height="12" fill="#FFFFFF" opacity="0.31"/><rect x="1108.8" y="908.9" width="25.1" height="12" fill="#FFFFFF" opacity="0.34"/><rect x="1108.8" y="999.9" width="25.1" height="12" fill="#FFFFFF" opacity="0.26"/><rect x="1142.6" y="635.7" width="25.1" height="12" fill="#FFFFFF" opacity="0.08"/><rect x="1142.6" y="681.2" width="25.1" height="12" fill="#FFFFFF" opacity="0.28"/><rect x="1142.6" y="772.3" width="25.1" height="12" fill="#FFFFFF" opacity="0.16"/><rect x="1142.6" y="817.8" width="25.1" height="12" fill="#FFFFFF" opacity="0.22"/><rect x="1142.6" y="863.3" width="25.1" height="12" fill="#FFFFFF" opacity="0.09"/><rect x="1142.6" y="908.9" width="25.1" height="12" fill="#FFFFFF" opacity="0.17"/><rect x="1142.6" y="954.4" width="25.1" height="12" fill="#EC1C2D" opacity="0.09"/><rect x="1142.6" y="999.9" width="25.1" height="12" fill="#FFFFFF" opacity="0.14"/><rect x="1142.6" y="1045.4" width="25.1" height="12" fill="#FFFFFF" opacity="0.23"/><rect x="1142.6" y="1091.0" width="25.1" height="12" fill="#EC1C2D" opacity="0.09"/><rect x="1230.5" y="539.1" width="113.5" height="660.9" fill="#000" opacity="0.22"/><rect x="1240.5" y="694.1" width="25.8" height="12" fill="#FFFFFF" opacity="0.07"/><rect x="1240.5" y="782.8" width="25.8" height="12" fill="#FFFFFF" opacity="0.27"/><rect x="1240.5" y="871.5" width="25.8" height="12" fill="#FFFFFF" opacity="0.21"/><rect x="1240.5" y="1004.6" width="25.8" height="12" fill="#FFFFFF" opacity="0.09"/><rect x="1240.5" y="1093.3" width="25.8" height="12" fill="#FFFFFF" opacity="0.23"/><rect x="1240.5" y="1137.6" width="25.8" height="12" fill="#FFFFFF" opacity="0.23"/><rect x="1271.7" y="561.1" width="25.8" height="12" fill="#FFFFFF" opacity="0.33"/><rect x="1271.7" y="605.4" width="25.8" height="12" fill="#FFFFFF" opacity="0.09"/><rect x="1271.7" y="694.1" width="25.8" height="12" fill="#FFFFFF" opacity="0.15"/><rect x="1271.7" y="738.5" width="25.8" height="12" fill="#FFFFFF" opacity="0.14"/><rect x="1271.7" y="782.8" width="25.8" height="12" fill="#EC1C2D" opacity="0.21"/><rect x="1271.7" y="827.2" width="25.8" height="12" fill="#FFFFFF" opacity="0.24"/><rect x="1271.7" y="1048.9" width="25.8" height="12" fill="#FFFFFF" opacity="0.10"/><rect x="1271.7" y="1093.3" width="25.8" height="12" fill="#FFFFFF" opacity="0.16"/><rect x="1271.7" y="1137.6" width="25.8" height="12" fill="#FFFFFF" opacity="0.25"/><rect x="1302.8" y="605.4" width="25.8" height="12" fill="#FFFFFF" opacity="0.29"/><rect x="1302.8" y="649.8" width="25.8" height="12" fill="#FFFFFF" opacity="0.14"/><rect x="1302.8" y="738.5" width="25.8" height="12" fill="#EC1C2D" opacity="0.13"/><rect x="1302.8" y="827.2" width="25.8" height="12" fill="#FFFFFF" opacity="0.15"/><rect x="1302.8" y="871.5" width="25.8" height="12" fill="#FFFFFF" opacity="0.34"/><rect x="1302.8" y="915.9" width="25.8" height="12" fill="#FFFFFF" opacity="0.09"/><rect x="1302.8" y="960.2" width="25.8" height="12" fill="#FFFFFF" opacity="0.30"/><rect x="1302.8" y="1004.6" width="25.8" height="12" fill="#FFFFFF" opacity="0.23"/><rect x="1302.8" y="1048.9" width="25.8" height="12" fill="#FFFFFF" opacity="0.29"/><rect x="1302.8" y="1093.3" width="25.8" height="12" fill="#FFFFFF" opacity="0.11"/><rect x="1372.6" y="272.7" width="164.0" height="927.3" fill="#000" opacity="0.49"/><rect x="1382.6" y="339.1" width="29.0" height="12" fill="#FFFFFF" opacity="0.20"/><rect x="1382.6" y="427.8" width="29.0" height="12" fill="#EC1C2D" opacity="0.13"/><rect x="1382.6" y="472.2" width="29.0" height="12" fill="#FFFFFF" opacity="0.31"/><rect x="1382.6" y="516.5" width="29.0" height="12" fill="#EC1C2D" opacity="0.09"/><rect x="1382.6" y="560.9" width="29.0" height="12" fill="#FFFFFF" opacity="0.19"/><rect x="1382.6" y="605.3" width="29.0" height="12" fill="#EC1C2D" opacity="0.06"/><rect x="1382.6" y="649.6" width="29.0" height="12" fill="#FFFFFF" opacity="0.14"/><rect x="1382.6" y="782.7" width="29.0" height="12" fill="#FFFFFF" opacity="0.08"/><rect x="1382.6" y="827.1" width="29.0" height="12" fill="#FFFFFF" opacity="0.09"/><rect x="1382.6" y="871.5" width="29.0" height="12" fill="#FFFFFF" opacity="0.12"/><rect x="1382.6" y="915.8" width="29.0" height="12" fill="#FFFFFF" opacity="0.11"/><rect x="1382.6" y="960.2" width="29.0" height="12" fill="#FFFFFF" opacity="0.07"/><rect x="1382.6" y="1004.5" width="29.0" height="12" fill="#FFFFFF" opacity="0.17"/><rect x="1382.6" y="1093.3" width="29.0" height="12" fill="#FFFFFF" opacity="0.19"/><rect x="1382.6" y="1137.6" width="29.0" height="12" fill="#FFFFFF" opacity="0.27"/><rect x="1418.6" y="294.7" width="29.0" height="12" fill="#FFFFFF" opacity="0.08"/><rect x="1418.6" y="339.1" width="29.0" height="12" fill="#EC1C2D" opacity="0.11"/><rect x="1418.6" y="427.8" width="29.0" height="12" fill="#FFFFFF" opacity="0.28"/><rect x="1418.6" y="472.2" width="29.0" height="12" fill="#FFFFFF" opacity="0.10"/><rect x="1418.6" y="560.9" width="29.0" height="12" fill="#FFFFFF" opacity="0.18"/><rect x="1418.6" y="649.6" width="29.0" height="12" fill="#FFFFFF" opacity="0.29"/><rect x="1418.6" y="738.4" width="29.0" height="12" fill="#FFFFFF" opacity="0.32"/><rect x="1418.6" y="782.7" width="29.0" height="12" fill="#FFFFFF" opacity="0.07"/><rect x="1418.6" y="871.5" width="29.0" height="12" fill="#EC1C2D" opacity="0.10"/><rect x="1418.6" y="960.2" width="29.0" height="12" fill="#FFFFFF" opacity="0.28"/><rect x="1418.6" y="1048.9" width="29.0" height="12" fill="#FFFFFF" opacity="0.21"/><rect x="1418.6" y="1093.3" width="29.0" height="12" fill="#FFFFFF" opacity="0.16"/><rect x="1454.6" y="294.7" width="29.0" height="12" fill="#FFFFFF" opacity="0.19"/><rect x="1454.6" y="339.1" width="29.0" height="12" fill="#FFFFFF" opacity="0.12"/><rect x="1454.6" y="383.5" width="29.0" height="12" fill="#FFFFFF" opacity="0.33"/><rect x="1454.6" y="516.5" width="29.0" height="12" fill="#FFFFFF" opacity="0.28"/><rect x="1454.6" y="560.9" width="29.0" height="12" fill="#FFFFFF" opacity="0.24"/><rect x="1454.6" y="605.3" width="29.0" height="12" fill="#FFFFFF" opacity="0.17"/><rect x="1454.6" y="649.6" width="29.0" height="12" fill="#FFFFFF" opacity="0.08"/><rect x="1454.6" y="782.7" width="29.0" height="12" fill="#FFFFFF" opacity="0.16"/><rect x="1454.6" y="827.1" width="29.0" height="12" fill="#FFFFFF" opacity="0.21"/><rect x="1454.6" y="871.5" width="29.0" height="12" fill="#EC1C2D" opacity="0.14"/><rect x="1454.6" y="915.8" width="29.0" height="12" fill="#FFFFFF" opacity="0.15"/><rect x="1454.6" y="960.2" width="29.0" height="12" fill="#FFFFFF" opacity="0.33"/><rect x="1454.6" y="1048.9" width="29.0" height="12" fill="#FFFFFF" opacity="0.31"/><rect x="1454.6" y="1093.3" width="29.0" height="12" fill="#FFFFFF" opacity="0.16"/><rect x="1454.6" y="1137.6" width="29.0" height="12" fill="#FFFFFF" opacity="0.06"/><rect x="1490.6" y="294.7" width="29.0" height="12" fill="#FFFFFF" opacity="0.20"/><rect x="1490.6" y="383.5" width="29.0" height="12" fill="#FFFFFF" opacity="0.30"/><rect x="1490.6" y="472.2" width="29.0" height="12" fill="#FFFFFF" opacity="0.19"/><rect x="1490.6" y="560.9" width="29.0" height="12" fill="#FFFFFF" opacity="0.07"/><rect x="1490.6" y="605.3" width="29.0" height="12" fill="#FFFFFF" opacity="0.17"/><rect x="1490.6" y="649.6" width="29.0" height="12" fill="#FFFFFF" opacity="0.32"/><rect x="1490.6" y="694.0" width="29.0" height="12" fill="#FFFFFF" opacity="0.25"/><rect x="1490.6" y="782.7" width="29.0" height="12" fill="#EC1C2D" opacity="0.29"/><rect x="1490.6" y="827.1" width="29.0" height="12" fill="#FFFFFF" opacity="0.28"/><rect x="1490.6" y="871.5" width="29.0" height="12" fill="#FFFFFF" opacity="0.07"/><rect x="1490.6" y="915.8" width="29.0" height="12" fill="#FFFFFF" opacity="0.09"/><rect x="1490.6" y="960.2" width="29.0" height="12" fill="#FFFFFF" opacity="0.19"/><rect x="1490.6" y="1004.5" width="29.0" height="12" fill="#FFFFFF" opacity="0.15"/><rect x="1490.6" y="1048.9" width="29.0" height="12" fill="#FFFFFF" opacity="0.27"/><rect x="1490.6" y="1137.6" width="29.0" height="12" fill="#FFFFFF" opacity="0.22"/><rect x="1579.8" y="557.4" width="171.3" height="642.6" fill="#000" opacity="0.22"/><rect x="1589.8" y="718.5" width="22.3" height="12" fill="#FFFFFF" opacity="0.12"/><rect x="1589.8" y="764.8" width="22.3" height="12" fill="#FFFFFF" opacity="0.13"/><rect x="1589.8" y="811.2" width="22.3" height="12" fill="#FFFFFF" opacity="0.13"/><rect x="1589.8" y="1042.9" width="22.3" height="12" fill="#FFFFFF" opacity="0.20"/><rect x="1620.1" y="579.4" width="22.3" height="12" fill="#EC1C2D" opacity="0.34"/><rect x="1620.1" y="625.8" width="22.3" height="12" fill="#FFFFFF" opacity="0.22"/><rect x="1620.1" y="718.5" width="22.3" height="12" fill="#FFFFFF" opacity="0.13"/><rect x="1620.1" y="764.8" width="22.3" height="12" fill="#FFFFFF" opacity="0.23"/><rect x="1620.1" y="811.2" width="22.3" height="12" fill="#FFFFFF" opacity="0.10"/><rect x="1620.1" y="857.5" width="22.3" height="12" fill="#FFFFFF" opacity="0.27"/><rect x="1620.1" y="903.9" width="22.3" height="12" fill="#FFFFFF" opacity="0.13"/><rect x="1620.1" y="950.2" width="22.3" height="12" fill="#FFFFFF" opacity="0.06"/><rect x="1620.1" y="1042.9" width="22.3" height="12" fill="#FFFFFF" opacity="0.20"/><rect x="1620.1" y="1089.3" width="22.3" height="12" fill="#FFFFFF" opacity="0.33"/><rect x="1650.4" y="579.4" width="22.3" height="12" fill="#FFFFFF" opacity="0.07"/><rect x="1650.4" y="625.8" width="22.3" height="12" fill="#FFFFFF" opacity="0.09"/><rect x="1650.4" y="764.8" width="22.3" height="12" fill="#FFFFFF" opacity="0.12"/><rect x="1650.4" y="811.2" width="22.3" height="12" fill="#FFFFFF" opacity="0.23"/><rect x="1650.4" y="857.5" width="22.3" height="12" fill="#FFFFFF" opacity="0.31"/><rect x="1650.4" y="996.6" width="22.3" height="12" fill="#FFFFFF" opacity="0.18"/><rect x="1650.4" y="1042.9" width="22.3" height="12" fill="#EC1C2D" opacity="0.23"/><rect x="1650.4" y="1135.6" width="22.3" height="12" fill="#FFFFFF" opacity="0.09"/><rect x="1680.6" y="625.8" width="22.3" height="12" fill="#EC1C2D" opacity="0.24"/><rect x="1680.6" y="672.1" width="22.3" height="12" fill="#FFFFFF" opacity="0.31"/><rect x="1680.6" y="764.8" width="22.3" height="12" fill="#FFFFFF" opacity="0.30"/><rect x="1680.6" y="811.2" width="22.3" height="12" fill="#FFFFFF" opacity="0.06"/><rect x="1680.6" y="903.9" width="22.3" height="12" fill="#FFFFFF" opacity="0.06"/><rect x="1680.6" y="950.2" width="22.3" height="12" fill="#FFFFFF" opacity="0.25"/><rect x="1680.6" y="1042.9" width="22.3" height="12" fill="#FFFFFF" opacity="0.09"/><rect x="1680.6" y="1089.3" width="22.3" height="12" fill="#EC1C2D" opacity="0.06"/><rect x="1680.6" y="1135.6" width="22.3" height="12" fill="#FFFFFF" opacity="0.23"/><rect x="1710.9" y="579.4" width="22.3" height="12" fill="#FFFFFF" opacity="0.27"/><rect x="1710.9" y="672.1" width="22.3" height="12" fill="#EC1C2D" opacity="0.34"/><rect x="1710.9" y="811.2" width="22.3" height="12" fill="#FFFFFF" opacity="0.20"/><rect x="1710.9" y="857.5" width="22.3" height="12" fill="#FFFFFF" opacity="0.30"/><rect x="1710.9" y="996.6" width="22.3" height="12" fill="#FFFFFF" opacity="0.33"/><rect x="1710.9" y="1042.9" width="22.3" height="12" fill="#EC1C2D" opacity="0.32"/><rect x="1710.9" y="1089.3" width="22.3" height="12" fill="#FFFFFF" opacity="0.17"/><rect x="1710.9" y="1135.6" width="22.3" height="12" fill="#FFFFFF" opacity="0.13"/>
  <rect width="1600" height="1200" fill="#000000" opacity="0.1"/>
</svg>
